<?xml version="1.0" encoding="UTF-8" standalone="no"?>
<svg
   xmlns:dc="http://purl.org/dc/elements/1.1/"
   xmlns:cc="http://creativecommons.org/ns#"
   xmlns:rdf="http://www.w3.org/1999/02/22-rdf-syntax-ns#"
   xmlns:svg="http://www.w3.org/2000/svg"
   xmlns="http://www.w3.org/2000/svg"
   xmlns:sodipodi="http://sodipodi.sourceforge.net/DTD/sodipodi-0.dtd"
   xmlns:inkscape="http://www.inkscape.org/namespaces/inkscape"
   viewBox="0 0 135.03801 112.23071"
   version="1.1"
   id="svg917"
   sodipodi:docname="Telegram_2019_Logo.svg"
   width="135.03801"
   height="112.23071"
   inkscape:version="1.0.2 (e86c870879, 2021-01-15)">
  <metadata
     id="metadata921">
    <rdf:RDF>
      <cc:Work
         rdf:about="">
        <dc:format>image/svg+xml</dc:format>
        <dc:type
           rdf:resource="http://purl.org/dc/dcmitype/StillImage" />
        <dc:title></dc:title>
      </cc:Work>
    </rdf:RDF>
  </metadata>
  <sodipodi:namedview
     pagecolor="#ffffff"
     bordercolor="#666666"
     borderopacity="1"
     objecttolerance="10"
     gridtolerance="10"
     guidetolerance="10"
     inkscape:pageopacity="0"
     inkscape:pageshadow="2"
     inkscape:window-width="1366"
     inkscape:window-height="751"
     id="namedview919"
     showgrid="false"
     fit-margin-top="0"
     fit-margin-left="0"
     fit-margin-right="0"
     fit-margin-bottom="0"
     inkscape:zoom="2.3083333"
     inkscape:cx="77.659385"
     inkscape:cy="49.85581"
     inkscape:window-x="0"
     inkscape:window-y="0"
     inkscape:window-maximized="1"
     inkscape:current-layer="svg917" />
  <defs
     id="defs909">
    <linearGradient
       id="a"
       x1="46"
       x2="29"
       y1="11"
       y2="52"
       gradientUnits="userSpaceOnUse"
       gradientTransform="scale(3.47)">
      <stop
         stop-color="#2aabee"
         offset="0"
         id="stop904" />
      <stop
         stop-color="#229ed9"
         offset="1"
         id="stop906" />
    </linearGradient>
  </defs>
  <path
     d="m 123.52539,0.99080957 c 0,0 12.492,-4.85799997 11.451,6.94000003 -0.347,4.8580004 -3.47,21.8610004 -5.899,40.2520004 l -8.328,54.479 c 0,0 -0.694,7.981 -6.94,9.369 -6.246,1.388 -15.615005,-4.858 -17.350005,-6.246 -1.388,-1.041 -26.025,-16.656 -34.7,-24.29 -2.429,-2.082 -5.205,-6.246 0.347,-11.104 l 36.435,-34.7 c 4.164005,-4.164 8.328005,-13.88 -9.022,-2.082 l -48.58,32.965 c 0,0 -5.552,3.47 -15.962,0.347 l -22.5549999,-6.94 c 0,0 -8.328,-5.205 5.899,-10.41 C 43.021385,33.26181 85.702385,16.60581 123.52539,0.99080957 Z"
     fill="#ffffff"
     id="path913"
     style="stroke-width:3.47" />
</svg>
