<?xml version="1.0" encoding="UTF-8" standalone="no"?>
<svg
   xmlns:dc="http://purl.org/dc/elements/1.1/"
   xmlns:cc="http://creativecommons.org/ns#"
   xmlns:rdf="http://www.w3.org/1999/02/22-rdf-syntax-ns#"
   xmlns:svg="http://www.w3.org/2000/svg"
   xmlns="http://www.w3.org/2000/svg"
   xmlns:xlink="http://www.w3.org/1999/xlink"
   xmlns:sodipodi="http://sodipodi.sourceforge.net/DTD/sodipodi-0.dtd"
   xmlns:inkscape="http://www.inkscape.org/namespaces/inkscape"
   width="78.206383mm"
   height="78.206383mm"
   viewBox="0 0 78.206383 78.206383"
   version="1.1"
   id="svg1576"
   inkscape:version="1.0.2 (e86c870879, 2021-01-15)"
   sodipodi:docname="devops.svg"
   inkscape:export-filename="/home/alex/cv/devops.png"
   inkscape:export-xdpi="300"
   inkscape:export-ydpi="300">
  <defs
     id="defs1570">
    <rect
       x="168.50476"
       y="159.28842"
       width="89.928925"
       height="57.035829"
       id="rect2818" />
    <rect
       id="rect1128-9-7-6"
       height="33.38343"
       width="91.187546"
       y="160.17892"
       x="12.116266" />
    <path
       id="a"
       d="M37.6 36.8c1.2 0 2.1-1 2.1-2.1s-.9-2.1-2.1-2.1-2.1 1-2.1 2.1.9 2.1 2.1 2.1zM31.3 31c1.2 0 2.1-1 2.1-2.1 0-1.2-.9-2.1-2.1-2.1-1.2 0-2.1 1-2.1 2.1 0 1.2.9 2.1 2.1 2.1zm6.3 0c1.2 0 2.1-1 2.1-2.1 0-1.2-.9-2.1-2.1-2.1s-2.1 1-2.1 2.1c0 1.2.9 2.1 2.1 2.1zm6.3 0c1.2 0 2.1-1 2.1-2.1 0-1.2-.9-2.1-2.1-2.1-1.2 0-2.1 1-2.1 2.1 0 1.2 1 2.1 2.1 2.1zm-12.6-5.7c1.2 0 2.1-1 2.1-2.1 0-1.2-.9-2.1-2.1-2.1-1.2 0-2.1 1-2.1 2.1 0 1.2.9 2.1 2.1 2.1zm6.3 0c1.2 0 2.1-1 2.1-2.1 0-1.2-.9-2.1-2.1-2.1s-2.1 1-2.1 2.1c0 1.2.9 2.1 2.1 2.1zm6.3 0c1.2 0 2.1-1 2.1-2.1 0-1.2-.9-2.1-2.1-2.1-1.2 0-2.1 1-2.1 2.1 0 1.2 1 2.1 2.1 2.1zm-6.3-5.7c1.2 0 2.1-1 2.1-2.1 0-1.2-.9-2.1-2.1-2.1s-2.1 1-2.1 2.1.9 2.1 2.1 2.1zm6.3 0c1.2 0 2.1-1 2.1-2.1 0-1.2-.9-2.1-2.1-2.1-1.2 0-2.1 1-2.1 2.1s1 2.1 2.1 2.1zm-12.6 0c1.2 0 2.1-1 2.1-2.1 0-1.2-.9-2.1-2.1-2.1-1.2 0-2.1 1-2.1 2.1s.9 2.1 2.1 2.1zM36.8 72L0 0h73.6L36.8 72z" />
  </defs>
  <sodipodi:namedview
     id="base"
     pagecolor="#ffffff"
     bordercolor="#666666"
     borderopacity="1.0"
     inkscape:pageopacity="0.0"
     inkscape:pageshadow="2"
     inkscape:zoom="1.5997199"
     inkscape:cx="189.47586"
     inkscape:cy="155.03523"
     inkscape:document-units="mm"
     inkscape:current-layer="layer1"
     inkscape:document-rotation="0"
     showgrid="false"
     inkscape:snap-nodes="true"
     inkscape:snap-smooth-nodes="false"
     inkscape:object-paths="true"
     fit-margin-top="0"
     fit-margin-left="0"
     fit-margin-right="0"
     fit-margin-bottom="0"
     inkscape:window-width="1366"
     inkscape:window-height="751"
     inkscape:window-x="0"
     inkscape:window-y="0"
     inkscape:window-maximized="1"
     inkscape:snap-midpoints="true"
     inkscape:snap-intersection-paths="true"
     inkscape:object-nodes="true" />
  <metadata
     id="metadata1573">
    <rdf:RDF>
      <cc:Work
         rdf:about="">
        <dc:format>image/svg+xml</dc:format>
        <dc:type
           rdf:resource="http://purl.org/dc/dcmitype/StillImage" />
        <dc:title />
      </cc:Work>
    </rdf:RDF>
  </metadata>
  <g
     inkscape:groupmode="layer"
     id="layer3"
     inkscape:label="bg"
     transform="translate(-68.140167,-82.329323)">
    <rect
       style="opacity:0.979809;fill:#ffffff;fill-opacity:1;stroke:none;stroke-width:0.264999;stroke-linecap:round;stroke-linejoin:round;stroke-dashoffset:37.7953;stroke-opacity:1"
       id="rect2066"
       width="78.206383"
       height="78.206383"
       x="68.140167"
       y="82.329323" />
  </g>
  <g
     inkscape:label="Layer 1"
     inkscape:groupmode="layer"
     id="layer1"
     transform="translate(-68.140167,-82.329323)">
    <text
       xml:space="preserve"
       id="text2816"
       style="font-style:normal;font-variant:normal;font-weight:normal;font-stretch:normal;font-size:8.46667px;line-height:1;font-family:serif;-inkscape-font-specification:serif;text-align:start;white-space:pre;shape-inside:url(#rect2818);opacity:0.979809;fill:#000000;fill-opacity:1;stroke:none;stroke-width:0.265;stroke-linecap:round;stroke-linejoin:round;stroke-dashoffset:10;stroke-opacity:1;" />
    <g
       id="g2935"
       transform="matrix(0.90075903,0,0,0.90075903,-18.998143,-65.141436)">
      <a
         id="a1517"
         xlink:href="https://imgs.xkcd.com/comics/automation.png"
         transform="matrix(1.4480966,0,0,1.4480966,-32.928153,-166.82707)"
         style="display:inline">
        <g
           aria-label="DevOps"
           transform="translate(88.676925,69.289399)"
           id="text1126-7-6-5"
           style="font-style:normal;font-variant:normal;font-weight:bold;font-stretch:normal;font-size:10.5833px;line-height:1.25;font-family:Ubuntu;-inkscape-font-specification:'Ubuntu Bold';letter-spacing:-0.529167px;white-space:pre;shape-inside:url(#rect1128-9-7-6);fill:#252f3e;fill-opacity:1;stroke:none">
          <path
             d="m 14.614846,168.70445 q 0.116417,0.0106 0.264583,0.0212 0.158749,0 0.370415,0 1.238246,0 1.830911,-0.62442 0.603248,-0.62441 0.603248,-1.72507 0,-1.15358 -0.571498,-1.74625 -0.571498,-0.59266 -1.809744,-0.59266 -0.169333,0 -0.349249,0.0106 -0.179916,0 -0.338666,0.0212 z m 4.773068,-2.32832 q 0,0.95249 -0.296332,1.66157 -0.296332,0.70909 -0.846664,1.17475 -0.539748,0.46567 -1.322912,0.6985 -0.783165,0.23283 -1.756828,0.23283 -0.444499,0 -1.037164,-0.0423 -0.592664,-0.0317 -1.164163,-0.14817 v -7.14373 q 0.571499,-0.10583 1.18533,-0.13758 0.624415,-0.0423 1.068913,-0.0423 0.941914,0 1.703912,0.21166 0.77258,0.21167 1.322912,0.66675 0.550332,0.45508 0.846664,1.16417 0.296332,0.70908 0.296332,1.70391 z"
             style="font-style:normal;font-variant:normal;font-weight:bold;font-stretch:normal;font-size:10.5833px;font-family:Ubuntu;-inkscape-font-specification:'Ubuntu Bold';fill:#252f3e;fill-opacity:1"
             id="path4531" />
          <path
             d="m 19.864156,167.30746 q 0,-0.74083 0.222249,-1.29117 0.232832,-0.56091 0.603248,-0.93133 0.370415,-0.37041 0.846664,-0.56091 0.486832,-0.1905 0.99483,-0.1905 1.18533,0 1.873244,0.73025 0.687915,0.71966 0.687915,2.12724 0,0.13758 -0.01058,0.30692 -0.01058,0.15875 -0.02117,0.28575 H 21.4834 q 0.05292,0.48683 0.455082,0.77258 0.402166,0.28575 1.079497,0.28575 0.433915,0 0.846664,-0.0741 0.423332,-0.0847 0.687914,-0.20108 l 0.211666,1.28058 q -0.126999,0.0635 -0.338665,0.127 -0.211666,0.0635 -0.476249,0.10583 -0.253999,0.0529 -0.550331,0.0847 -0.296333,0.0317 -0.592665,0.0317 -0.751414,0 -1.312329,-0.22225 -0.550332,-0.22225 -0.920747,-0.60325 -0.359833,-0.39158 -0.539749,-0.92075 -0.169332,-0.52916 -0.169332,-1.14299 z m 3.704154,-0.60325 q -0.01058,-0.20108 -0.07408,-0.39158 -0.05292,-0.1905 -0.179916,-0.33867 -0.116416,-0.14816 -0.306915,-0.24341 -0.179917,-0.0952 -0.455082,-0.0952 -0.264583,0 -0.455082,0.0952 -0.1905,0.0847 -0.317499,0.23283 -0.127,0.14816 -0.201083,0.34925 -0.0635,0.1905 -0.09525,0.39158 z"
             style="font-style:normal;font-variant:normal;font-weight:bold;font-stretch:normal;font-size:10.5833px;font-family:Ubuntu;-inkscape-font-specification:'Ubuntu Bold';fill:#252f3e;fill-opacity:1"
             id="path4533" />
          <path
             d="m 27.293626,170.04853 q -0.539749,-1.05833 -1.100663,-2.47649 -0.550332,-1.41816 -1.047747,-3.09032 h 1.672161 q 0.105833,0.41274 0.243416,0.89958 0.148166,0.47625 0.296333,0.97366 0.158749,0.48683 0.306915,0.9525 0.15875,0.46566 0.306916,0.84666 0.137583,-0.381 0.296332,-0.84666 0.15875,-0.46567 0.306916,-0.9525 0.15875,-0.49741 0.296332,-0.97366 0.148167,-0.48684 0.254,-0.89958 h 1.629828 q -0.497415,1.67216 -1.05833,3.09032 -0.550332,1.41816 -1.09008,2.47649 z"
             style="font-style:normal;font-variant:normal;font-weight:bold;font-stretch:normal;font-size:10.5833px;font-family:Ubuntu;-inkscape-font-specification:'Ubuntu Bold';fill:#252f3e;fill-opacity:1"
             id="path4535" />
          <path
             d="m 32.564098,166.37613 q 0,0.53975 0.127,0.97366 0.137583,0.43392 0.380999,0.75141 0.253999,0.30692 0.613831,0.47625 0.359832,0.16934 0.825498,0.16934 0.455082,0 0.814914,-0.16934 0.370415,-0.16933 0.613831,-0.47625 0.253999,-0.31749 0.380999,-0.75141 0.137583,-0.43391 0.137583,-0.97366 0,-0.53975 -0.137583,-0.97367 -0.127,-0.4445 -0.380999,-0.75141 -0.243416,-0.3175 -0.613831,-0.48683 -0.359832,-0.16934 -0.814914,-0.16934 -0.465666,0 -0.825498,0.17992 -0.359832,0.16933 -0.613831,0.48683 -0.243416,0.30692 -0.380999,0.75142 -0.127,0.43391 -0.127,0.96308 z m 5.598566,0 q 0,0.94191 -0.285749,1.66157 -0.275166,0.70909 -0.761998,1.19592 -0.486831,0.47625 -1.164163,0.71966 -0.666748,0.24342 -1.439328,0.24342 -0.751415,0 -1.418163,-0.24342 -0.666747,-0.24341 -1.164162,-0.71966 -0.497416,-0.48683 -0.783165,-1.19592 -0.285749,-0.71966 -0.285749,-1.66157 0,-0.94192 0.296333,-1.651 0.296332,-0.71966 0.793747,-1.20649 0.507998,-0.48684 1.164163,-0.73025 0.666748,-0.24342 1.396996,-0.24342 0.751414,0 1.418162,0.24342 0.666748,0.24341 1.164163,0.73025 0.497415,0.48683 0.783164,1.20649 0.285749,0.70908 0.285749,1.651 z"
             style="font-style:normal;font-variant:normal;font-weight:bold;font-stretch:normal;font-size:10.5833px;font-family:Ubuntu;-inkscape-font-specification:'Ubuntu Bold';fill:#252f3e;fill-opacity:1"
             id="path4537" />
          <path
             d="m 42.470054,167.30746 q 0,-0.73025 -0.328082,-1.16417 -0.328083,-0.44449 -0.973664,-0.44449 -0.211666,0 -0.391582,0.0212 -0.179916,0.0106 -0.296332,0.0318 v 2.84691 q 0.148166,0.0952 0.380998,0.15875 0.243416,0.0635 0.486832,0.0635 1.12183,0 1.12183,-1.51341 z m 1.608662,-0.0423 q 0,0.64559 -0.15875,1.17475 -0.158749,0.52917 -0.465665,0.91016 -0.306916,0.381 -0.761998,0.59267 -0.455082,0.21166 -1.047746,0.21166 -0.328083,0 -0.613832,-0.0635 -0.285749,-0.0635 -0.550331,-0.17992 v 2.09549 h -1.576912 v -7.33422 q 0.211666,-0.0635 0.486832,-0.11642 0.275166,-0.0635 0.571498,-0.10583 0.306916,-0.0423 0.613831,-0.0635 0.317499,-0.0318 0.603248,-0.0318 0.687915,0 1.227663,0.21166 0.539748,0.20109 0.910164,0.58208 0.370415,0.37042 0.560915,0.91017 0.201083,0.53975 0.201083,1.20649 z"
             style="font-style:normal;font-variant:normal;font-weight:bold;font-stretch:normal;font-size:10.5833px;font-family:Ubuntu;-inkscape-font-specification:'Ubuntu Bold';fill:#252f3e;fill-opacity:1"
             id="path4539" />
          <path
             d="m 46.364687,168.91612 q 0.433915,0 0.613831,-0.0847 0.179917,-0.0847 0.179917,-0.32808 0,-0.1905 -0.232833,-0.32808 -0.232833,-0.14817 -0.709081,-0.32808 -0.370416,-0.13759 -0.677331,-0.28575 -0.296333,-0.14817 -0.507999,-0.34925 -0.211666,-0.21167 -0.328082,-0.49742 -0.116416,-0.28575 -0.116416,-0.68791 0,-0.78317 0.582081,-1.23825 0.582082,-0.45508 1.598078,-0.45508 0.507999,0 0.973664,0.0952 0.465665,0.0847 0.740831,0.1905 l -0.275166,1.22766 q -0.275166,-0.0952 -0.603248,-0.16933 -0.317499,-0.0741 -0.719664,-0.0741 -0.740831,0 -0.740831,0.41274 0,0.0952 0.03175,0.16934 0.03175,0.0741 0.126999,0.14816 0.09525,0.0635 0.253999,0.14817 0.169333,0.0741 0.423332,0.16933 0.518582,0.1905 0.857248,0.381 0.338665,0.17992 0.529165,0.40217 0.201082,0.21166 0.275165,0.47625 0.08467,0.26458 0.08467,0.61383 0,0.82549 -0.624415,1.24883 -0.613831,0.42333 -1.746244,0.42333 -0.740831,0 -1.238246,-0.127 -0.486832,-0.127 -0.677331,-0.21167 l 0.264582,-1.28058 q 0.402165,0.15875 0.825497,0.254 0.423332,0.0847 0.836081,0.0847 z"
             style="font-style:normal;font-variant:normal;font-weight:bold;font-stretch:normal;font-size:10.5833px;font-family:Ubuntu;-inkscape-font-specification:'Ubuntu Bold';fill:#252f3e;fill-opacity:1"
             id="path4541" />
        </g>
      </a>
      <g
         id="g2907"
         transform="matrix(0.16503901,0,0,0.16503901,115.06364,162.35579)">
        <path
           class="st1"
           d="M 273.5,143.7 C 240.6,168 192.8,180.9 151.7,180.9 94.1,180.9 42.2,159.6 3,124.2 c -3.1,-2.8 -0.3,-6.6 3.4,-4.4 42.4,24.6 94.7,39.5 148.8,39.5 36.5,0 76.6,-7.6 113.5,-23.2 5.5,-2.5 10.2,3.6 4.8,7.6 z"
           id="path2903" />
        <path
           class="st1"
           d="m 287.2,128.1 c -4.2,-5.4 -27.8,-2.6 -38.5,-1.3 -3.2,0.4 -3.7,-2.4 -0.8,-4.5 18.8,-13.2 49.7,-9.4 53.3,-5 3.6,4.5 -1,35.4 -18.6,50.2 -2.7,2.3 -5.3,1.1 -4.1,-1.9 4,-9.9 12.9,-32.2 8.7,-37.5 z"
           id="path2905" />
      </g>
    </g>
    <g
       id="g1424"
       transform="matrix(0.5520799,0,0,0.5520799,52.01218,49.027183)"
       style="fill:#000000">
      <path
         id="path1371"
         style="stroke-width:0.999999;fill:#000000"
         transform="matrix(0.26458333,0,0,0.26458333,68.140167,82.329323)"
         d="m -67.207031,327.83594 c -0.02316,0.0736 -0.03766,0.14543 -0.01758,0.1875 0.02032,-0.0571 0.03933,-0.11457 0.05859,-0.17188 -0.01425,-0.005 -0.02654,-0.0109 -0.04102,-0.0156 z m -0.363281,13.79297 v 5.31054 h 8.888671 l 0.02148,26.53125 h 6 v -26.53125 h 8.898437 v -5.31054 z" />
      <path
         id="path1373"
         style="stroke-width:0.999999;fill:#000000"
         transform="matrix(0.26458333,0,0,0.26458333,68.140167,82.329323)"
         d="m 33.009766,339.7207 c -5.16,0 -7.410157,2.38874 -7.410157,7.21875 v 3.25 h -3.730468 v 4.64063 h 3.730468 v 18.64062 h 5.830079 v -18.64062 h 5.589843 l 0.330078,-4.64063 h -5.93164 v -2.91992 c 0,-1.76999 0.340858,-2.76953 2.630859,-2.76953 a 17.11,17.11 0 0 1 3.34961,0.37891 l 0.611328,-4.48829 a 18.47,18.47 0 0 0 -5,-0.66992 z m 57.882812,9.97071 a 4.4199999,4.4199999 0 0 0 -0.353516,0.0176 23.32,23.32 0 0 0 -9.339843,2.48047 l -0.570313,-2 h -4.449218 v 23.28125 h 5.830078 v -16.11132 a 16.08,16.08 0 0 1 6.068359,-2 c 1.330001,-1e-5 1.861328,0.62134 1.861328,1.86132 v 16.25 h 5.869141 v -16.11132 a 15.43,15.43 0 0 1 6.070316,-2 c 1.33,0 1.85937,0.62134 1.85937,1.86132 v 16.25 h 5.83008 v -16.88086 c 0,-4.16001 -1.38977,-6.88086 -5.25977,-6.88086 a 22.83,22.83 0 0 0 -9.369137,2.49024 4.4199999,4.4199999 0 0 0 -4.046875,-2.50781 z m -105.763672,0.0176 a 26.09,26.09 0 0 0 -6.11914,3.06055 l -0.38086,-2.58008 h -4.919922 v 23.26953 h 5.830078 v -15 a 45.649999,45.649999 0 0 1 6.189454,-3.38867 z m 14.25976588,0 a 26.09,26.09 0 0 0 -6.11914068,3.06055 l -0.3808593,-2.58008 H -12.03125 v 23.26953 h 5.8300781 v -15 a 45.649999,45.649999 0 0 1 6.1699219,-3.38867 z m 10.64062512,0 a 30.38,30.38 0 0 0 -8.0000001,1.10157 l 0.71875,4.44922 a 32.529999,32.529999 0 0 1 6.4511719,-0.72071 c 3.7300002,0 4.4492192,0.91022 4.4492192,3.49024 v 2.4414 H 8.0585938 c -4.7299994,0 -6.7890626,1.81883 -6.7890626,6.54883 0,4.01 1.8203132,6.92969 6.0703126,6.92969 a 12.73,12.73 0 0 0 6.9296872,-2.0586 l 0.429688,1.58008 h 4.779297 l 0.01953,-15.35156 c 0,-5.83 -2.158751,-8.41016 -9.46875,-8.41016 z m 38.75,0 c -7.98,0 -10.130859,4.40164 -10.130859,9.18164 v 5.87891 c 0,4.78001 2.130861,9.17969 10.130859,9.17969 7.98,0 10.138733,-4.39968 10.128906,-9.17969 v -5.87891 c 0,-4.78 -2.148906,-9.18164 -10.128906,-9.18164 z m 24.560547,0 a 26.079999,26.079999 0 0 0 -6.121094,3.06055 l -0.378906,-2.58008 h -4.921875 v 23.26953 h 5.830078 v -15 a 45.649999,45.649999 0 0 1 6.169922,-3.38867 z m -112.330078,0.0117 c -7.459998,0 -9.660157,4.15813 -9.660157,9.07813 v 6.15039 c 0,5.61003 2.53961,9 9.84961,9 a 24.999999,24.999999 0 0 0 8.560547,-1.47852 l -0.910157,-4.40039 a 24.39,24.39 0 0 1 -7.121093,1.09961 c -3.539997,0 -4.539841,-1.10086 -4.589844,-3.88086 v -1.19922 h 13 v -5 c 0,-5.02 -1.668905,-9.36914 -9.128906,-9.36914 z m 0.04883,4.76953 c 2.869999,0 3.541015,1.53045 3.541015,3.73047 v 1.17969 h -7.410156 v -1.17969 c 0,-2.20002 0.999141,-3.73047 3.869141,-3.73047 z m 87.720703,0.18946 c 3.110003,0 4.298828,1.38951 4.298828,4.01953 v 6.24023 c 0,2.60999 -1.198826,4 -4.298828,4 -3.099999,0 -4.300781,-1.37001 -4.300781,-4 v -6.25976 c 0,-2.61003 1.190782,-4 4.300781,-4 z M 9.3496114,364.66993 H 13.64844 v 3.42969 a 9.18,9.18 0 0 1 -4.4003911,1.19922 c -1.8099969,0 -2.3398438,-0.57987 -2.3398438,-2.33985 0,-1.76001 0.5314069,-2.28906 2.4414063,-2.28906 z" />
    </g>
    <g
       transform="matrix(0.12941575,0,0,0.12941575,72.549223,136.87384)"
       fill="#1a1918"
       id="g1524">
      <path
         d="m 67.516834,32.003525 c -0.541523,0 -1.126167,-0.136851 -1.532115,-0.685832 L 48.601192,8.4564861 V 31.775177 h -3.96431 V 3.0609307 c 0,-1.142528 0.945919,-2.0571024 2.0278,-2.0571024 0.629706,0 1.170841,0.1825994 1.574847,0.7315807 l 17.33963,22.815852 V 1.323673 h 3.963921 v 28.668103 c 0,1.189066 -0.945918,2.011749 -2.026246,2.011749"
         id="path1510" />
      <path
         d="m 100.30628,32.277976 c -3.962758,0 -8.106928,-0.823472 -11.980336,-2.285845 l 0.946306,-3.292704 c 3.557973,1.143316 7.430993,1.966394 11.03403,1.966394 4.99957,0 7.61163,-1.783401 7.61163,-4.297593 0,-2.286633 -2.02741,-3.429556 -9.008173,-6.721866 -6.980759,-3.291916 -9.727223,-5.394766 -9.727223,-9.5105488 0,-5.1656301 3.962756,-7.27005844 11.438426,-7.27005844 3.10812,0 7.88161,0.64087254 10.63002,1.46395014 l -0.63087,3.3830184 c -3.01839,-0.7311863 -6.80051,-1.2340248 -9.90864,-1.2340248 -5.268396,0 -7.430605,1.0052826 -7.430605,3.5206582 0,2.4684443 1.575624,3.5202633 8.961945,6.9498193 7.79188,3.612155 9.77345,5.441304 9.77345,9.189915 0,5.441699 -5.13515,8.138885 -11.70996,8.138885"
         id="path1512" />
      <path
         d="m 130.79813,1.323673 h 4.09833 v 30.45111 h -4.09833 z"
         id="path1514" />
      <path
         d="m 169.75783,17.966917 h -10.17978 v 10.334021 h 10.17978 c 3.46746,0 5.58422,-2.195137 5.58422,-5.259099 0,-2.880574 -2.20649,-5.074922 -5.58422,-5.074922 M 167.7751,4.7984644 h -8.19705 v 9.7392916 h 8.19705 c 3.28837,0 5.67512,-2.10364 5.67512,-5.0295684 0,-2.8805743 -2.07209,-4.7097232 -5.67512,-4.7097232 m 2.02741,26.9765946 h -12.24993 c -1.17162,0 -2.07248,-0.914969 -2.07248,-2.057497 V 3.3814458 c 0,-1.0979626 0.90086,-2.0574967 2.07248,-2.0574967 h 10.13317 c 6.21509,0 9.90786,3.0631737 9.90786,7.8643938 0,2.6056891 -1.53134,5.0291741 -3.8738,6.4465861 3.4694,1.05182 5.80992,3.932 5.80992,7.40691 0,4.846574 -4.00743,8.73322 -9.72722,8.73322"
         id="path1516" />
      <path
         d="m 199.21225,31.775098 c -1.12423,0 -2.02547,-0.960323 -2.02547,-2.057497 V 1.3239885 h 4.09755 V 28.071841 h 16.30398 v 3.703257 z"
         id="path1518" />
      <path
         d="m 245.52618,32.277976 c -8.3773,0 -13.42155,-3.108922 -13.42155,-9.372909 0,-2.972072 1.66692,-5.806897 4.90984,-7.132813 -2.61244,-1.646156 -3.96314,-3.978143 -3.96314,-6.5384782 0,-5.6692573 4.36987,-8.36802104 12.56575,-8.36802104 2.74763,0 6.62026,0.32063344 9.86358,1.05260854 l -0.45101,3.3830184 c -3.42201,-0.5489813 -6.62104,-0.8680372 -9.72839,-0.8680372 -5.31462,0 -8.15238,1.4623726 -8.15238,4.9834251 0,2.7894714 2.61283,4.9838194 6.08146,4.9838194 h 7.02504 c 0.99098,0 1.75626,0.777329 1.75626,1.737258 0,1.005677 -0.76528,1.783006 -1.75626,1.783006 h -7.56501 c -3.9647,0 -6.48546,1.965605 -6.48546,4.984214 0,4.434838 4.09833,5.760754 9.23231,5.760754 2.79269,0 6.57442,-0.364804 9.63671,-1.09678 l 0.58698,3.33727 c -2.92827,0.823472 -6.75701,1.371665 -10.13473,1.371665"
         id="path1520" />
      <path
         d="M 14.137998,7.0346956 21.31571,25.01896 10.475139,16.34963 Z M 26.88944,29.162349 15.849585,2.187727 C 15.534538,1.4103978 14.903667,0.99866187 14.137998,0.99866187 c -0.765669,0 -1.441214,0.41173593 -1.756261,1.18906513 L 0.26388589,31.775137 H 4.4084443 L 9.2060164,19.576868 23.520262,31.317653 c 0.575709,0.472077 0.990981,0.685832 1.532115,0.685832 1.080328,0 2.026246,-0.822683 2.026246,-2.011354 0,-0.192853 -0.06798,-0.499683 -0.189183,-0.829782 z"
         id="path1522" />
    </g>
    <path
       d="m 104.19718,132.14902 c 0.12496,0.009 0.25885,-0.009 0.37489,-0.0535 0.0714,-0.0358 0.11604,-0.11605 0.10707,-0.19636 -0.009,-0.0892 -0.0625,-0.16959 -0.14281,-0.19638 -0.13389,-0.0803 -0.28562,-0.15173 -0.43736,-0.19637 -0.15174,-0.0534 -0.28563,-0.11606 -0.41059,-0.17852 -0.11604,-0.0535 -0.21422,-0.12496 -0.31241,-0.21421 -0.0892,-0.0892 -0.15174,-0.18746 -0.19636,-0.30348 -0.0535,-0.13388 -0.0714,-0.2767 -0.0714,-0.41951 -0.009,-0.29454 0.12496,-0.58019 0.35703,-0.7587 0.241,-0.18744 0.56232,-0.2767 0.97291,-0.2767 0.19637,0 0.40167,0.0179 0.59804,0.0624 0.15173,0.0269 0.30347,0.0625 0.45521,0.11606 l -0.16959,0.7587 c -0.12496,-0.0446 -0.24099,-0.0713 -0.36595,-0.10718 -0.14283,-0.0357 -0.29456,-0.0445 -0.43737,-0.0445 -0.30347,0 -0.45522,0.0803 -0.45522,0.24991 0,0.0358 0.009,0.0715 0.0179,0.10718 0.0179,0.0357 0.0447,0.0625 0.0803,0.0892 0.0357,0.0269 0.0893,0.0534 0.15174,0.0892 0.0625,0.0357 0.15175,0.0715 0.25885,0.10718 0.17851,0.0624 0.35703,0.14281 0.5177,0.23207 0.12497,0.0624 0.23207,0.1428 0.32133,0.24994 0.0803,0.0803 0.13389,0.1785 0.16958,0.29454 0.0357,0.12496 0.0536,0.24992 0.0536,0.37489 0.0179,0.30348 -0.12497,0.59801 -0.38383,0.76761 -0.24992,0.16961 -0.60694,0.25884 -1.07109,0.25884 -0.25884,0.009 -0.50877,-0.0179 -0.7587,-0.0803 -0.14281,-0.0359 -0.2767,-0.0803 -0.41059,-0.12496 l 0.16066,-0.78548 c 0.16068,0.0625 0.33026,0.11605 0.49986,0.15174 0.17851,0.009 0.34811,0.0269 0.52663,0.0269 m -4.91814,-0.98185 c -0.009,-0.26775 0.04462,-0.53553 0.133889,-0.78546 0.08032,-0.21421 0.205294,-0.40167 0.365958,-0.57125 0.151738,-0.15173 0.321323,-0.26777 0.517693,-0.33918 0.19637,-0.0803 0.40167,-0.11606 0.60696,-0.11606 0.482,0 0.8658,0.15176 1.1425,0.4463 0.2767,0.29457 0.41952,0.73192 0.41952,1.30316 0,0.0535 0,0.11607 -0.009,0.18744 0,0.0715 -0.009,0.12496 -0.009,0.17853 h -2.1779 c 0.0179,0.18744 0.11604,0.36595 0.2767,0.47305 0.19636,0.12496 0.42844,0.18746 0.6605,0.17854 0.16959,0 0.34811,-0.0179 0.51771,-0.0447 0.14281,-0.0269 0.28562,-0.0714 0.4195,-0.13391 l 0.13389,0.78549 c -0.0625,0.0357 -0.13389,0.0535 -0.20528,0.0803 -0.0982,0.0269 -0.19637,0.0535 -0.29456,0.0624 -0.1071,0.0179 -0.21422,0.0358 -0.33918,0.0535 -0.11604,0.009 -0.241,0.0178 -0.36596,0.0178 -0.2767,0.009 -0.54448,-0.0357 -0.80332,-0.13387 -0.21422,-0.0803 -0.401667,-0.20532 -0.562331,-0.36599 -0.15174,-0.16065 -0.258852,-0.35702 -0.330257,-0.56232 -0.06248,-0.241 -0.09818,-0.48199 -0.09818,-0.71407 m 2.258228,-0.36595 c 0,-0.0803 -0.0178,-0.16066 -0.0446,-0.24101 -0.0179,-0.0803 -0.0625,-0.14281 -0.1071,-0.2053 -0.0535,-0.0624 -0.11604,-0.11607 -0.18744,-0.15172 -0.0893,-0.0447 -0.17852,-0.0624 -0.2767,-0.0624 -0.0982,0 -0.18745,0.0179 -0.2767,0.0624 -0.0714,0.0358 -0.14282,0.0803 -0.19637,0.14282 -0.0535,0.0624 -0.0982,0.13389 -0.12497,0.2142 -0.0268,0.0803 -0.0447,0.16068 -0.0535,0.24101 h 1.26747 m -4.873497,-2.21361 0.963989,-0.15174 v 0.99969 h 1.160355 v 0.80333 h -1.160355 v 1.19605 c -0.009,0.1696 0.02677,0.33918 0.107095,0.48201 0.07141,0.11605 0.214218,0.17851 0.437365,0.17851 0.107095,0 0.214218,-0.009 0.312403,-0.0269 0.107096,-0.0179 0.205294,-0.0445 0.303478,-0.0803 l 0.133887,0.74978 c -0.124961,0.0535 -0.258848,0.0892 -0.392736,0.12497 -0.169589,0.0358 -0.348107,0.0534 -0.526623,0.0534 -0.223146,0.009 -0.44629,-0.0269 -0.651585,-0.10718 -0.160665,-0.0625 -0.303477,-0.1696 -0.410588,-0.29456 -0.107096,-0.13387 -0.178516,-0.29454 -0.223146,-0.46414 -0.04463,-0.19636 -0.06249,-0.40165 -0.05355,-0.59802 v -2.86503 m -3.900584,2.57954 c -0.009,-0.26777 0.04463,-0.53552 0.133886,-0.78546 0.08032,-0.21421 0.205295,-0.40165 0.36596,-0.57126 0.151738,-0.15172 0.321331,-0.26776 0.517697,-0.33916 0.196369,-0.0803 0.401662,-0.11606 0.606956,-0.11606 0.481995,0 0.865806,0.15176 1.142504,0.44629 0.276703,0.29457 0.419515,0.73192 0.419515,1.30317 0,0.0535 0,0.11607 -0.009,0.18744 -0.009,0.0715 -0.009,0.12496 -0.009,0.17853 h -2.186827 c 0.01787,0.18743 0.116037,0.36594 0.276699,0.47307 0.19637,0.12495 0.428442,0.18743 0.660512,0.17852 0.16959,0 0.348109,-0.0179 0.517697,-0.0446 0.142815,-0.0269 0.285626,-0.0715 0.42844,-0.13389 l 0.133888,0.78549 c -0.06247,0.0357 -0.133888,0.0535 -0.205295,0.0803 -0.09818,0.0269 -0.196367,0.0534 -0.29455,0.0624 -0.107095,0.0179 -0.214222,0.0358 -0.339184,0.0535 -0.116038,0.009 -0.240996,0.0179 -0.365957,0.0179 -0.276702,0.009 -0.544476,-0.0358 -0.803324,-0.13389 -0.214219,-0.0803 -0.401662,-0.20529 -0.562326,-0.36596 -0.151739,-0.16068 -0.25885,-0.35703 -0.330257,-0.56231 -0.07141,-0.24102 -0.107095,-0.48202 -0.09818,-0.71409 m 2.258235,-0.36595 c 0,-0.0803 -0.01787,-0.16067 -0.04463,-0.241 -0.01787,-0.0803 -0.06249,-0.14282 -0.107095,-0.20529 -0.05356,-0.0624 -0.116037,-0.11607 -0.187441,-0.15174 -0.08927,-0.0446 -0.178517,-0.0625 -0.276703,-0.0625 -0.09818,0 -0.18744,0.0179 -0.2767,0.0625 -0.07141,0.0357 -0.133886,0.0803 -0.187441,0.14282 -0.05355,0.0625 -0.09818,0.13387 -0.124963,0.21421 -0.02678,0.0803 -0.04462,0.16068 -0.05354,0.241 h 1.25854 m -5.917817,-1.24961 c 0.205293,-0.0535 0.419513,-0.0983 0.633732,-0.1339 0.267776,-0.0445 0.544476,-0.0624 0.81225,-0.0624 0.240997,-0.009 0.481995,0.0357 0.714066,0.11606 0.178514,0.0625 0.339181,0.1696 0.455216,0.31241 0.116037,0.14282 0.196369,0.3124 0.240999,0.49092 0.05355,0.20529 0.07141,0.4195 0.07141,0.63373 v 1.91904 h -0.955061 v -1.79408 c 0,-0.31242 -0.04462,-0.52663 -0.124962,-0.66051 -0.08034,-0.12496 -0.232071,-0.19637 -0.455217,-0.19637 -0.07141,0 -0.142814,0 -0.223146,0.009 -0.08032,0 -0.142812,0.009 -0.205293,0.0178 v 2.6242 H 89.10346 v -3.27579 m -0.678362,0.74083 c -0.08926,-0.0178 -0.187442,-0.0446 -0.303479,-0.0625 -0.124961,-0.0269 -0.249924,-0.0357 -0.374885,-0.0357 -0.07141,0 -0.142811,0.009 -0.223145,0.0179 -0.06247,0.009 -0.124962,0.0179 -0.187443,0.0358 v 2.59742 h -0.963987 v -3.23115 c 0.196367,-0.0713 0.401661,-0.12497 0.606956,-0.16958 0.258848,-0.0624 0.526624,-0.0893 0.785472,-0.0803 0.06247,0 0.124962,0.009 0.187443,0.009 0.07141,0 0.142813,0.009 0.223146,0.0269 0.07141,0.009 0.142812,0.0179 0.223143,0.0357 0.06247,0.009 0.124961,0.0269 0.187443,0.0534 l -0.160664,0.80331 m -5.989227,0.87474 c -0.009,-0.26779 0.04463,-0.53556 0.133888,-0.78548 0.08032,-0.21422 0.205294,-0.40164 0.365958,-0.57126 0.15174,-0.15173 0.32133,-0.26776 0.517697,-0.33917 0.196368,-0.0803 0.401664,-0.11606 0.606957,-0.11606 0.481994,0 0.865804,0.15175 1.142505,0.4463 0.276701,0.29457 0.419515,0.73192 0.419515,1.29424 0,0.0535 0,0.11606 -0.009,0.18745 -0.009,0.0715 -0.009,0.12497 -0.009,0.17854 h -2.186809 c 0.01786,0.18742 0.116037,0.36594 0.276701,0.47304 0.196367,0.12496 0.428438,0.18744 0.660509,0.17852 0.169592,0 0.348107,-0.0179 0.517699,-0.0446 0.142812,-0.0269 0.285627,-0.0715 0.419514,-0.12496 l 0.133887,0.78547 c -0.06249,0.0357 -0.133887,0.0535 -0.205293,0.0803 -0.09818,0.0269 -0.196369,0.0534 -0.294554,0.0624 -0.107095,0.0179 -0.214219,0.0358 -0.33918,0.0535 -0.116037,0.009 -0.240998,0.018 -0.36596,0.018 -0.2767,0.009 -0.544474,-0.0357 -0.803323,-0.13389 -0.214219,-0.0803 -0.401663,-0.2053 -0.562327,-0.36595 -0.151739,-0.16068 -0.258848,-0.35706 -0.330256,-0.56234 -0.05356,-0.241 -0.08926,-0.47305 -0.08926,-0.71407 m 2.26716,-0.36596 c 0,-0.0803 -0.01787,-0.16066 -0.04463,-0.24099 -0.01787,-0.0803 -0.06249,-0.14281 -0.107096,-0.2053 -0.05356,-0.0625 -0.116037,-0.11606 -0.187444,-0.15173 -0.08927,-0.0446 -0.178515,-0.0625 -0.276699,-0.0625 -0.09818,0 -0.187442,0.018 -0.2767,0.0625 -0.07141,0.0357 -0.142813,0.0803 -0.196369,0.1428 -0.05354,0.0624 -0.09818,0.13389 -0.124962,0.21423 -0.02678,0.0803 -0.04462,0.16067 -0.05355,0.24099 h 1.267468 m -3.829178,0.31241 c 0,-0.62481 -0.232072,-0.92827 -0.68729,-0.92827 -0.09818,0 -0.196366,0.009 -0.294551,0.0357 -0.08032,0.0178 -0.160666,0.0534 -0.232072,0.0982 v 1.74944 c 0.04463,0.009 0.107096,0.018 0.178518,0.0269 0.07141,0.009 0.151739,0.009 0.240998,0.009 0.232069,0.018 0.455214,-0.0803 0.598028,-0.26776 0.133887,-0.21423 0.205294,-0.46416 0.196369,-0.723 m 0.981839,0.0357 c 0,0.24992 -0.0357,0.49983 -0.124961,0.74086 -0.07141,0.21419 -0.187443,0.40164 -0.339182,0.56231 -0.160666,0.16066 -0.348108,0.28563 -0.5534,0.36596 -0.240998,0.0892 -0.490923,0.12496 -0.749771,0.12496 -0.116037,0 -0.240996,-0.009 -0.365957,-0.0179 -0.124964,-0.009 -0.249925,-0.0269 -0.374886,-0.0357 -0.116037,-0.0179 -0.232071,-0.0358 -0.348106,-0.0625 -0.116037,-0.0179 -0.21422,-0.0446 -0.294554,-0.0803 v -4.77531 l 0.963989,-0.15174 v 1.6959 c 0.107096,-0.0445 0.223147,-0.0803 0.339182,-0.10708 0.124963,-0.0269 0.249924,-0.0358 0.374884,-0.0358 0.223146,0 0.437365,0.0358 0.642658,0.13389 0.178517,0.0803 0.339182,0.20528 0.464144,0.35702 0.133887,0.16961 0.232073,0.35705 0.285627,0.56233 0.05354,0.22316 0.08033,0.47307 0.08033,0.72299 m -4.070175,1.57094 c -0.205294,0.0534 -0.419513,0.0983 -0.633734,0.12496 -0.267773,0.0446 -0.544475,0.0625 -0.812248,0.0625 -0.249924,0.009 -0.490921,-0.0359 -0.722993,-0.11607 -0.178515,-0.0714 -0.330255,-0.17852 -0.455216,-0.32132 -0.116036,-0.15173 -0.196367,-0.32135 -0.240999,-0.50876 -0.05355,-0.20533 -0.07141,-0.42844 -0.07141,-0.64267 v -1.88336 h 0.963988 v 1.77625 c 0,0.3124 0.04462,0.53555 0.124962,0.66942 0.08032,0.1339 0.232071,0.20532 0.455216,0.20532 0.07141,0 0.142813,0 0.223146,-0.009 0.08032,-0.009 0.142815,-0.009 0.205294,-0.0269 v -2.61527 h 0.963989 v 3.2847 m -5.623267,-2.05294 c 0.09818,-0.10706 0.187441,-0.21422 0.294553,-0.32131 0.09818,-0.11606 0.196368,-0.22316 0.294551,-0.33027 0.09818,-0.11607 0.187442,-0.21422 0.267775,-0.3124 0.08032,-0.0983 0.160665,-0.18744 0.223145,-0.25884 h 1.142505 c -0.23207,0.25884 -0.455216,0.5177 -0.669437,0.75869 -0.223146,0.24098 -0.455215,0.4909 -0.714065,0.74083 0.142812,0.1339 0.276699,0.26779 0.401661,0.41951 0.133888,0.16067 0.267776,0.32135 0.401663,0.49984 0.124962,0.16961 0.249922,0.34813 0.357033,0.51771 0.107096,0.1696 0.196368,0.33024 0.267774,0.47308 h -1.106801 c -0.07141,-0.11607 -0.151739,-0.23209 -0.240997,-0.36597 -0.08926,-0.13389 -0.187445,-0.26779 -0.276702,-0.41058 -0.09818,-0.13388 -0.205294,-0.26778 -0.321329,-0.39273 -0.09818,-0.11606 -0.205293,-0.22315 -0.321329,-0.31243 v 1.49062 h -0.963997 v -4.89134 l 0.963989,-0.15175 v 2.84733"
       id="path3003"
       style="opacity:0.99653;fill:#000000;stroke-width:0.0892585" />
    <path
       d="m 84.352381,119.46567 h 1.392043 v 1.88476 h 1.681754 v -1.88476 h 1.39204 v 5.29424 h -1.39204 v -2.01885 h -1.681754 v 2.01885 h -1.392043 z m 6.062799,5.29424 v -5.29424 h 3.292847 v 1.1506 h -1.900808 v 0.86122 h 1.681756 v 1.17179 h -1.681756 v 0.97415 h 1.900808 v 1.13648 z m 4.819146,0 v -5.29424 h 1.39204 v 3.89656 h 1.907874 v 1.39768 z m 5.455104,-5.29424 2.16225,1.96241 2.1552,-1.96241 h 0.62889 v 5.29424 h -1.39911 v -2.71771 l -1.38498,1.26357 -1.39203,-1.25652 v 2.71066 h -1.39911 v -5.29424 z"
       fill="#0f1689"
       id="path1973"
       style="opacity:0.99653;fill-rule:evenodd;stroke-width:0.0703554" />
    <path
       style="fill:#5c4ee5;fill-opacity:1;stroke:#000000;stroke-width:0.151868;stroke-linecap:butt;stroke-linejoin:miter;stroke-miterlimit:4;stroke-dasharray:none;stroke-opacity:1"
       d="m 126.01141,157.24364 -17.97425,-9.70951 v -0.90988 h 35.9485 v 0.90988 z"
       id="path1109"
       sodipodi:nodetypes="cccccc" />
    <path
       style="fill:#e3e3e8;fill-opacity:1;stroke:#000000;stroke-width:0.151868;stroke-linecap:butt;stroke-linejoin:miter;stroke-miterlimit:4;stroke-dasharray:none;stroke-opacity:1"
       d="m 126.01141,156.33377 -17.97425,-9.70952 17.97425,-9.70951 17.97425,9.70951 z"
       id="path1109-3" />
    <path
       style="fill:none;stroke:#000000;stroke-width:0.172;stroke-linecap:butt;stroke-linejoin:miter;stroke-opacity:1;stroke-miterlimit:4;stroke-dasharray:none"
       d="m 117.02428,151.47901 17.97425,-9.70952"
       id="path959" />
    <path
       style="fill:none;stroke:#000000;stroke-width:0.172;stroke-linecap:butt;stroke-linejoin:miter;stroke-opacity:1;stroke-miterlimit:4;stroke-dasharray:none"
       d="m 134.99853,151.47901 -17.97425,-9.70952"
       id="path961" />
    <path
       style="fill:#000000;fill-opacity:0.4;stroke:none;stroke-width:0.151868;stroke-linecap:butt;stroke-linejoin:miter;stroke-miterlimit:4;stroke-dasharray:none;stroke-opacity:1"
       d="m 126.01141,152.78723 -14.69157,-7.93625 14.69157,-7.93624 14.69157,7.93624 z"
       id="path1109-3-2-0"
       sodipodi:nodetypes="ccccc" />
    <path
       style="fill:#000000;fill-opacity:1;stroke:#000000;stroke-width:0.151868;stroke-linecap:butt;stroke-linejoin:miter;stroke-miterlimit:4;stroke-dasharray:none;stroke-opacity:1"
       d="m 126.01141,149.13551 -17.97425,-9.70952 v -0.90987 h 35.9485 v 0.90987 z"
       id="path1109-6"
       sodipodi:nodetypes="cccccc" />
    <path
       style="fill:#e3e3e8;fill-opacity:1;stroke:#000000;stroke-width:0.151868;stroke-linecap:butt;stroke-linejoin:miter;stroke-miterlimit:4;stroke-dasharray:none;stroke-opacity:1"
       d="m 126.01141,148.22564 -17.97425,-9.70952 17.97425,-9.70951 17.97425,9.70951 z"
       id="path1109-3-2" />
    <path
       style="fill:none;stroke:#000000;stroke-width:0.172;stroke-linecap:butt;stroke-linejoin:miter;stroke-opacity:1;stroke-miterlimit:4;stroke-dasharray:none"
       d="m 134.99853,143.37088 -17.97425,-9.70951"
       id="path957" />
    <path
       style="fill:none;stroke:#000000;stroke-width:0.172;stroke-linecap:butt;stroke-linejoin:miter;stroke-opacity:1;stroke-miterlimit:4;stroke-dasharray:none"
       d="m 117.02428,143.37088 17.97425,-9.70951"
       id="path955" />
    <path
       style="fill:#000000;fill-opacity:0.4;stroke:none;stroke-width:0.151868;stroke-linecap:butt;stroke-linejoin:miter;stroke-miterlimit:4;stroke-dasharray:none;stroke-opacity:1"
       d="m 126.01141,144.6791 -14.69157,-7.93625 14.69157,-7.93624 14.69157,7.93624 z"
       id="path1109-3-2-0-7"
       sodipodi:nodetypes="ccccc" />
    <path
       style="fill:#326de6;fill-opacity:1;stroke:#000000;stroke-width:0.151868;stroke-linecap:butt;stroke-linejoin:miter;stroke-miterlimit:4;stroke-dasharray:none;stroke-opacity:1"
       d="m 126.01141,141.02737 -17.97425,-9.70951 v -0.90987 h 35.9485 v 0.90987 z"
       id="path1109-6-3"
       sodipodi:nodetypes="cccccc" />
    <path
       style="fill:#e3e3e8;fill-opacity:1;stroke:#000000;stroke-width:0.151868;stroke-linecap:butt;stroke-linejoin:miter;stroke-miterlimit:4;stroke-dasharray:none;stroke-opacity:1"
       d="m 126.01141,140.1175 -17.97425,-9.70951 17.97425,-9.70951 17.97425,9.70951 z"
       id="path1109-3-2-7" />
    <path
       style="fill:none;stroke:#000000;stroke-width:0.172;stroke-linecap:butt;stroke-linejoin:miter;stroke-opacity:1;stroke-miterlimit:4;stroke-dasharray:none"
       d="m 134.99853,135.26275 -17.97425,-9.70951"
       id="path949" />
    <path
       style="fill:none;stroke:#000000;stroke-width:0.172;stroke-linecap:butt;stroke-linejoin:miter;stroke-opacity:1;stroke-miterlimit:4;stroke-dasharray:none"
       d="m 117.02428,135.26275 17.97425,-9.70951"
       id="path945" />
    <path
       style="fill:#000000;fill-opacity:0.4;stroke:none;stroke-width:0.151868;stroke-linecap:butt;stroke-linejoin:miter;stroke-miterlimit:4;stroke-dasharray:none;stroke-opacity:1"
       d="m 126.01141,136.57097 -14.69157,-7.93625 14.69157,-7.93624 14.69157,7.93624 z"
       id="path1109-3-2-0-3"
       sodipodi:nodetypes="ccccc" />
    <g
       id="g2489"
       transform="translate(-0.78780354,2.6461845)">
      <path
         style="fill:#0f1689;fill-opacity:1;stroke:#000000;stroke-width:0.151868;stroke-linecap:butt;stroke-linejoin:miter;stroke-miterlimit:4;stroke-dasharray:none;stroke-opacity:1"
         d="m 126.79921,130.27305 -17.97425,-9.70951 v -0.90987 h 35.9485 v 0.90987 z"
         id="path1109-6-2"
         sodipodi:nodetypes="cccccc" />
      <path
         style="fill:#e3e3e8;fill-opacity:1;stroke:#000000;stroke-width:0.151868;stroke-linecap:butt;stroke-linejoin:miter;stroke-miterlimit:4;stroke-dasharray:none;stroke-opacity:1"
         d="m 126.79921,129.36318 -17.97425,-9.70951 17.97425,-9.70952 17.97425,9.70952 z"
         id="path1109-3-2-2" />
    </g>
    <path
       style="fill:none;stroke:#000000;stroke-width:0.172021;stroke-linecap:butt;stroke-linejoin:miter;stroke-miterlimit:4;stroke-dasharray:none;stroke-opacity:1"
       d="m 117.02428,127.15461 17.97425,-9.70951"
       id="path1865" />
    <path
       style="fill:none;stroke:#000000;stroke-width:0.172021;stroke-linecap:butt;stroke-linejoin:miter;stroke-miterlimit:4;stroke-dasharray:none;stroke-opacity:1"
       d="m 117.02428,127.15461 v 0.90988"
       id="path1867" />
    <path
       style="fill:none;stroke:#000000;stroke-width:0.172021;stroke-linecap:butt;stroke-linejoin:miter;stroke-miterlimit:4;stroke-dasharray:none;stroke-opacity:1"
       d="m 117.02428,117.4451 17.97425,9.70951"
       id="path1869" />
    <path
       style="fill:none;stroke:#000000;stroke-width:0.172;stroke-linecap:butt;stroke-linejoin:miter;stroke-miterlimit:4;stroke-dasharray:none;stroke-opacity:1"
       d="m 134.99853,127.15461 v 0.90988"
       id="path1871" />
    <g
       id="Group"
       style="fill:none;fill-rule:evenodd;stroke:none;stroke-width:1"
       transform="matrix(0.0425872,0,0,0.0425872,121.53714,118.9074)">
      <path
         d="m 105.0614,193.655 v 0 l 38.64,-118.921 h -77.28 z"
         id="Fill-4"
         fill="#e24329" />
      <path
         id="Fill-6"
         fill="#fc6d26"
         d="" />
      <path
         d="M 105.0614,193.6548 66.4214,74.7338 H 12.2684 Z"
         id="Fill-8"
         fill="#fc6d26" />
      <path
         id="Fill-10"
         fill="#fc6d26"
         d="" />
      <path
         d="m 12.2685,74.7341 v 0 l -11.742,36.139 c -1.071,3.296 0.102,6.907 2.906,8.944 l 101.629,73.838 z"
         id="Fill-12"
         fill="#fca326" />
      <path
         id="Fill-14"
         fill="#fc6d26"
         d="" />
      <path
         d="m 12.2685,74.7342 h 54.153 L 43.1485,3.1092 c -1.197,-3.686 -6.411,-3.685 -7.608,0 z"
         id="Fill-16"
         fill="#e24329" />
      <path
         d="m 105.0614,193.6548 38.64,-118.921 h 54.153 z"
         id="Fill-18"
         fill="#fc6d26" />
      <path
         d="m 197.8544,74.7341 v 0 l 11.742,36.139 c 1.071,3.296 -0.102,6.907 -2.906,8.944 l -101.629,73.838 z"
         id="Fill-20"
         fill="#fca326" />
      <path
         d="m 197.8544,74.7342 h -54.153 l 23.273,-71.625 c 1.197,-3.686 6.411,-3.685 7.608,0 z"
         id="Fill-22"
         fill="#e24329" />
    </g>
    <g
       id="g2148"
       style="fill:none;fill-rule:evenodd"
       transform="matrix(0.16552866,0,0,0.16552866,121.42991,108.00997)">
      <g
         id="g2146">
        <path
           fill="#24a1c1"
           fill-rule="nonzero"
           d="m 27.75,0 c 2.517,0 4.754,1.777 4.754,3.965 0,2.189 -2.13,3.966 -4.754,3.966 -0.3,0 -0.692,-0.05 -1.176,-0.148 C 26.199,7.707 25.808,7.769 25.475,7.959 L 8.43,17.66 c -0.38,0.217 -0.513,0.7 -0.297,1.082 0.071,0.125 0.175,0.228 0.301,0.299 l 18.478,10.381 c 0.48,0.27 1.065,0.271 1.546,0.004 L 47.037,19.091 c 0.382,-0.213 0.52,-0.696 0.307,-1.078 -0.07,-0.128 -0.175,-0.233 -0.301,-0.305 l -5.797,-3.293 c -0.48,-0.273 -1.068,-0.276 -1.55,-0.007 l -6.12,3.396 c -0.155,0.086 -0.256,0.241 -0.275,0.414 l -0.003,0.059 c 0,2.188 -2.13,3.965 -4.755,3.965 -2.624,0 -4.754,-1.777 -4.754,-3.965 0,-2.189 2.13,-3.966 4.754,-3.966 0.098,0 0.21,0.006 0.336,0.016 l 0.2,0.02 0.223,0.028 c 0.338,0.046 0.683,-0.019 0.982,-0.185 l 9.05,-5.023 c 0.693,-0.384 1.53,-0.397 2.231,-0.04 l 0.095,0.052 12.637,7.18 c 1.585,0.9 1.603,3.163 0.067,4.098 l -0.085,0.05 -8.454,4.702 c -0.383,0.213 -0.52,0.696 -0.308,1.078 0.075,0.135 0.188,0.245 0.324,0.317 l 8.373,4.408 c 1.662,0.874 1.702,3.242 0.07,4.172 L 28.856,49.688 c -0.73,0.416 -1.626,0.416 -2.356,0 L 1.215,35.244 c -1.634,-0.933 -1.589,-3.306 0.079,-4.176 l 8.464,-4.42 c 0.388,-0.202 0.539,-0.68 0.337,-1.069 C 10.023,25.442 9.914,25.329 9.78,25.254 L 1.214,20.442 c -1.585,-0.89 -1.62,-3.146 -0.096,-4.093 L 1.202,16.299 22.241,4.326 c 0.333,-0.19 0.585,-0.493 0.712,-0.853 L 22.98,3.389 C 23.718,1.188 25.399,0 27.75,0 Z M 39.49,29.21 29.1,35.188 29.005,35.24 c -0.707,0.365 -1.551,0.351 -2.248,-0.042 L 16.401,29.355 c -0.466,-0.262 -1.032,-0.271 -1.506,-0.023 l -5.97,3.124 c -0.387,0.202 -0.537,0.681 -0.335,1.07 0.07,0.135 0.177,0.246 0.309,0.322 L 27.138,44.29 c 0.485,0.278 1.08,0.279 1.566,0 L 47.101,33.773 c 0.38,-0.217 0.511,-0.701 0.295,-1.082 -0.075,-0.131 -0.185,-0.239 -0.319,-0.31 l -6.065,-3.2 c -0.479,-0.252 -1.053,-0.242 -1.523,0.028 z"
           transform="translate(0,7)"
           id="path2144" />
      </g>
    </g>
    <g
       id="g4548">
      <path
         style="fill:#ffffff;fill-opacity:1;stroke:none;stroke-width:0.184955px;stroke-linecap:butt;stroke-linejoin:miter;stroke-opacity:1"
         d="m 131.83789,115.23793 3.16064,6.18385 3.16064,-6.18385 z"
         id="path2270" />
      <use
         xlink:href="#a"
         overflow="visible"
         fill-rule="evenodd"
         clip-rule="evenodd"
         id="use2258"
         transform="matrix(0.10567579,0,0,0.10567579,131.10966,114.69119)"
         x="0"
         y="0"
         width="100%"
         height="100%"
         style="fill:#000000" />
    </g>
    <g
       id="g2336"
       transform="matrix(0.57191959,0,0,0.57191959,57.697684,17.08374)">
      <circle
         style="opacity:0.99653;fill:#ffffff;fill-opacity:1;stroke:none;stroke-width:0.326937;stroke-linecap:round;stroke-linejoin:round;stroke-miterlimit:4;stroke-dasharray:none;stroke-dashoffset:37.7953;stroke-opacity:1"
         id="path2330"
         cx="103.76189"
         cy="176.3159"
         r="7.2184682" />
      <g
         id="g2326"
         transform="matrix(0.13573748,0,0,0.13573748,96.070126,168.51562)">
        <g
           id="Layer_2" />
        <path
           style="fill:#e6522c;fill-opacity:1"
           inkscape:connector-curvature="0"
           id="path4486"
           d="M 56.667,0.667 C 25.372,0.667 0,26.036 0,57.332 c 0,31.295 25.372,56.666 56.667,56.666 31.295,0 56.666,-25.371 56.666,-56.666 0,-31.296 -25.372,-56.665 -56.666,-56.665 z m 0,106.055 c -8.904,0 -16.123,-5.948 -16.123,-13.283 H 72.79 c 0,7.334 -7.219,13.283 -16.123,13.283 z M 83.297,89.04 H 30.034 V 79.382 H 83.298 V 89.04 Z M 83.106,74.411 H 30.186 C 30.01,74.208 29.83,74.008 29.66,73.802 24.208,67.182 22.924,63.726 21.677,60.204 c -0.021,-0.116 6.611,1.355 11.314,2.413 0,0 2.42,0.56 5.958,1.205 -3.397,-3.982 -5.414,-9.044 -5.414,-14.218 0,-11.359 8.712,-21.285 5.569,-29.308 3.059,0.249 6.331,6.456 6.552,16.161 3.252,-4.494 4.613,-12.701 4.613,-17.733 0,-5.21 3.433,-11.262 6.867,-11.469 -3.061,5.045 0.793,9.37 4.219,20.099 1.285,4.03 1.121,10.812 2.113,15.113 C 63.797,33.534 65.333,20.5 71,16 c -2.5,5.667 0.37,12.758 2.333,16.167 3.167,5.5 5.087,9.667 5.087,17.548 0,5.284 -1.951,10.259 -5.242,14.148 3.742,-0.702 6.326,-1.335 6.326,-1.335 l 12.152,-2.371 c 10e-4,-10e-4 -1.765,7.261 -8.55,14.254 z" />
      </g>
    </g>
    <path
       style="fill:none;stroke:#000000;stroke-width:0.172;stroke-linecap:butt;stroke-linejoin:miter;stroke-opacity:1;stroke-miterlimit:4;stroke-dasharray:none"
       d="m 117.02429,135.26275 v 0.90987"
       id="path951" />
    <path
       style="fill:none;stroke:#000000;stroke-width:0.172;stroke-linecap:butt;stroke-linejoin:miter;stroke-opacity:1;stroke-miterlimit:4;stroke-dasharray:none"
       d="m 134.99853,135.26275 v 0.90987"
       id="path953" />
    <path
       style="fill:none;stroke:#000000;stroke-width:0.172;stroke-linecap:butt;stroke-linejoin:miter;stroke-opacity:1;stroke-miterlimit:4;stroke-dasharray:none"
       d="m 117.02428,151.47901 v 0.90987"
       id="path963" />
    <path
       style="fill:none;stroke:#000000;stroke-width:0.172;stroke-linecap:butt;stroke-linejoin:miter;stroke-opacity:1;stroke-miterlimit:4;stroke-dasharray:none"
       d="m 134.99853,151.47901 v 0.90988"
       id="path965" />
  </g>
  <style
     type="text/css"
     id="style2899">
	.st0{fill:#252F3E;}
	.st1{fill-rule:evenodd;clip-rule:evenodd;fill:#FF9900;}
</style>
</svg>
