<?xml version="1.0" encoding="UTF-8" standalone="no"?>
<svg
   xmlns:dc="http://purl.org/dc/elements/1.1/"
   xmlns:cc="http://creativecommons.org/ns#"
   xmlns:rdf="http://www.w3.org/1999/02/22-rdf-syntax-ns#"
   xmlns:svg="http://www.w3.org/2000/svg"
   xmlns="http://www.w3.org/2000/svg"
   xmlns:xlink="http://www.w3.org/1999/xlink"
   xmlns:sodipodi="http://sodipodi.sourceforge.net/DTD/sodipodi-0.dtd"
   xmlns:inkscape="http://www.inkscape.org/namespaces/inkscape"
   width="78.206383mm"
   height="78.206383mm"
   viewBox="0 0 78.206383 78.206383"
   version="1.1"
   id="svg1576"
   inkscape:version="1.0.2 (e86c870879, 2021-01-15)"
   sodipodi:docname="go.svg"
   inkscape:export-filename="/home/alex/cv/go.png"
   inkscape:export-xdpi="300"
   inkscape:export-ydpi="300">
  <defs
     id="defs1570">
    <linearGradient
       inkscape:collect="always"
       id="linearGradient3793">
      <stop
         style="stop-color:#cee7f0;stop-opacity:1"
         offset="0"
         id="stop3789" />
      <stop
         style="stop-color:#bad4ee;stop-opacity:0"
         offset="1"
         id="stop3791" />
    </linearGradient>
    <linearGradient
       inkscape:collect="always"
       id="linearGradient2732">
      <stop
         style="stop-color:#8cc4dd;stop-opacity:1"
         offset="0"
         id="stop2728" />
      <stop
         style="stop-color:#bad4ee;stop-opacity:0"
         offset="1"
         id="stop2730" />
    </linearGradient>
    <inkscape:path-effect
       effect="taper_stroke"
       id="path-effect3472"
       is_visible="true"
       lpeversion="1"
       stroke_width="0.2"
       attach_start="0.99999"
       end_offset="0.99999"
       smoothing="1"
       jointype="extrapolated"
       miter_limit="100" />
    <inkscape:path-effect
       effect="taper_stroke"
       id="path-effect3474"
       is_visible="true"
       lpeversion="1"
       stroke_width="0.1"
       attach_start="0.2"
       end_offset="0.99999"
       smoothing="0.5"
       jointype="extrapolated"
       miter_limit="100" />
    <filter
       inkscape:collect="always"
       style="color-interpolation-filters:sRGB"
       id="filter3496"
       x="-2.7737778e-08"
       width="1.0000001"
       y="-3.2049066e-08"
       height="1.0000001">
      <feGaussianBlur
         inkscape:collect="always"
         stdDeviation="1.5583858e-08"
         id="feGaussianBlur3498" />
    </filter>
    <inkscape:path-effect
       effect="taper_stroke"
       id="path-effect3500"
       is_visible="true"
       lpeversion="1"
       stroke_width="0.1"
       attach_start="0.6"
       end_offset="0.2"
       smoothing="0.5"
       jointype="extrapolated"
       miter_limit="100" />
    <inkscape:path-effect
       effect="taper_stroke"
       id="path-effect3502"
       is_visible="true"
       lpeversion="1"
       stroke_width="0.1"
       attach_start="0.4"
       end_offset="0.1"
       smoothing="0.5"
       jointype="extrapolated"
       miter_limit="100" />
    <inkscape:path-effect
       effect="taper_stroke"
       id="path-effect3504"
       is_visible="true"
       lpeversion="1"
       stroke_width="0.1"
       attach_start="0.8"
       end_offset="0.2"
       smoothing="0.5"
       jointype="extrapolated"
       miter_limit="100" />
    <rect
       id="rect2199"
       height="5.590785"
       width="12.815663"
       y="309.21707"
       x="99.427872" />
    <rect
       x="82.033516"
       y="307.36761"
       width="52.886311"
       height="36.127338"
       id="rect1976-4" />
    <rect
       x="82.033516"
       y="307.36761"
       width="63.906673"
       height="30.933254"
       id="rect1976-4-1-61" />
    <rect
       x="69.253342"
       y="308.36713"
       width="63.197186"
       height="21.489635"
       id="rect1366-7" />
    <rect
       x="113.81543"
       y="311.45822"
       width="48.839577"
       height="26.398083"
       id="rect1331-6" />
    <rect
       x="74.314331"
       y="325.17276"
       width="42.974556"
       height="24.273825"
       id="rect1487" />
    <linearGradient
       inkscape:collect="always"
       xlink:href="#linearGradient2732"
       id="linearGradient3635"
       x1="-188.96507"
       y1="142.94814"
       x2="-137.64487"
       y2="142.94814"
       gradientUnits="userSpaceOnUse"
       gradientTransform="translate(271.29439,-35.704774)" />
    <linearGradient
       inkscape:collect="always"
       xlink:href="#linearGradient3793"
       id="linearGradient3769"
       gradientUnits="userSpaceOnUse"
       gradientTransform="translate(28.429363,-35.514994)"
       x1="-188.96507"
       y1="142.94814"
       x2="-165.52097"
       y2="142.94814" />
  </defs>
  <sodipodi:namedview
     id="base"
     pagecolor="#ffffff"
     bordercolor="#666666"
     borderopacity="1.0"
     inkscape:pageopacity="0.0"
     inkscape:pageshadow="2"
     inkscape:zoom="1.3137456"
     inkscape:cx="205.48577"
     inkscape:cy="198.22978"
     inkscape:document-units="mm"
     inkscape:current-layer="layer1"
     inkscape:document-rotation="0"
     showgrid="false"
     inkscape:snap-nodes="false"
     inkscape:snap-smooth-nodes="true"
     inkscape:object-paths="true"
     fit-margin-top="0"
     fit-margin-left="0"
     fit-margin-right="0"
     fit-margin-bottom="0"
     inkscape:window-width="1366"
     inkscape:window-height="751"
     inkscape:window-x="0"
     inkscape:window-y="0"
     inkscape:window-maximized="1"
     inkscape:snap-midpoints="true" />
  <metadata
     id="metadata1573">
    <rdf:RDF>
      <cc:Work
         rdf:about="">
        <dc:format>image/svg+xml</dc:format>
        <dc:type
           rdf:resource="http://purl.org/dc/dcmitype/StillImage" />
        <dc:title />
      </cc:Work>
    </rdf:RDF>
  </metadata>
  <g
     inkscape:groupmode="layer"
     id="layer3"
     inkscape:label="bg"
     transform="translate(-68.140167,-82.329323)">
    <rect
       style="opacity:0.979809;fill:#ffffff;fill-opacity:1;stroke:none;stroke-width:0.264999;stroke-linecap:round;stroke-linejoin:round;stroke-dashoffset:37.7953;stroke-opacity:1"
       id="rect2066"
       width="78.206383"
       height="78.206383"
       x="68.140167"
       y="82.329323" />
  </g>
  <g
     inkscape:label="Layer 1"
     inkscape:groupmode="layer"
     id="layer1"
     transform="translate(-68.140167,-82.329323)">
    <rect
       transform="rotate(-90)"
       y="68.329948"
       x="-160.53571"
       height="78.20639"
       width="78.206383"
       id="rect2037-36-6-5-7-2-9"
       style="display:inline;fill:url(#linearGradient3769);fill-opacity:1;stroke-width:0.461817" />
    <rect
       transform="matrix(0,1,1,0,0,0)"
       y="68.140167"
       x="82.329323"
       height="78.20639"
       width="78.206383"
       id="rect2037-36-6-5-7-2"
       style="display:inline;fill:url(#linearGradient3635);fill-opacity:1;stroke-width:0.461817" />
    <rect
       style="display:inline;opacity:0.5;fill:#efefef;fill-opacity:1;stroke:#bbc2c7;stroke-width:0.140933;stroke-linecap:round;stroke-linejoin:round;stroke-miterlimit:4;stroke-dasharray:none;stroke-dashoffset:37.7953;stroke-opacity:1"
       id="rect2756"
       width="2.6942825"
       height="78.206383"
       x="105.89622"
       y="82.329323" />
    <g
       id="g3709"
       transform="matrix(1.1222341,0,0,1.1222341,-142.45261,-58.089366)">
      <a
         id="a1336"
         xlink:href="https://pa1.narvii.com/7384/219627c9ea2d73dd40d7d8b27deadd4a0fb6a043r1-288-200_hq.gif"
         style="display:inline"
         transform="translate(150.05127,-154.76355)">
        <g
           aria-label="Vegeta"
           transform="matrix(0.49859576,0,0,0.49859576,0.53762658,128.02303)"
           id="text1974-8-2-8"
           style="font-size:14.7372px;line-height:1.25;font-family:sans-serif;white-space:pre;shape-inside:url(#rect1976-4-1-61);display:inline;fill:#333333;fill-opacity:1">
          <path
             d="m 90.669202,310.46325 -3.197972,6.48437 h -0.147372 l -0.677911,-6.18963 h -3.6843 l 1.797938,10.31604 h 3.610614 l 5.438027,-9.57918 z"
             style="font-style:normal;font-variant:normal;font-weight:normal;font-stretch:normal;font-size:14.7372px;font-family:Souses;-inkscape-font-specification:Souses;fill:#333333;fill-opacity:1"
             id="path5523" />
          <path
             d="m 92.128146,317.24236 c -0.486328,2.80007 1.488457,4.12642 3.846409,4.12642 1.768464,0 3.271658,-0.88424 3.271658,-0.88424 l -0.722122,-1.91583 c 0,0 -0.987393,0.44211 -2.136894,0.44211 -0.73686,0 -1.252662,-0.44211 -1.252662,-0.44211 l 0.02947,-0.14737 c 0,0 0.560014,0.14737 1.149502,0.14737 1.768464,0 3.551665,-0.88423 3.890619,-2.80007 0.20632,-1.17898 -0.618961,-2.35795 -2.976913,-2.35795 -2.505324,0 -4.701167,1.62109 -5.099071,3.83167 z m 3.330607,-0.57475 c 0.324218,-0.89897 0.825283,-1.19371 1.414771,-1.19371 0.36843,0 0.545277,0.22105 0.486328,0.5158 -0.05895,0.36843 -0.560014,0.66317 -1.901099,0.67791 z"
             style="font-style:normal;font-variant:normal;font-weight:normal;font-stretch:normal;font-size:14.7372px;font-family:Souses;-inkscape-font-specification:Souses;fill:#333333;fill-opacity:1"
             id="path5525" />
          <path
             d="m 104.59579,315.91601 c 0.66318,0 1.07582,0.14737 1.07582,0.14737 l -0.48633,2.35796 c 0,0 -0.41264,0.29474 -1.07581,0.29474 -0.73686,0 -0.89897,-0.73686 -0.79581,-1.32635 0.13263,-0.81054 0.54527,-1.47372 1.28213,-1.47372 z m 0.17685,4.86328 c -0.10316,0.58949 -0.61896,1.0316 -1.65057,1.0316 -0.73686,0 -1.6653,-0.58949 -1.6653,-0.58949 l -1.28214,2.21058 c 0,0 0.97266,0.81055 2.96218,0.81055 2.35795,0 4.34748,-1.25266 4.78959,-3.75799 l 1.10529,-6.33699 c 0,0 -1.41477,-0.73686 -3.62535,-0.73686 -3.6843,0 -4.8338,2.35795 -5.09907,3.83167 -0.353694,2.06321 0.48633,3.97904 2.77059,3.97904 0.81055,0 1.54741,-0.44211 1.54741,-0.44211 z"
             style="font-style:normal;font-variant:normal;font-weight:normal;font-stretch:normal;font-size:14.7372px;font-family:Souses;-inkscape-font-specification:Souses;fill:#333333;fill-opacity:1"
             id="path5527" />
          <path
             d="m 109.29694,317.24236 c -0.48633,2.80007 1.48846,4.12642 3.84641,4.12642 1.76846,0 3.27166,-0.88424 3.27166,-0.88424 l -0.72212,-1.91583 c 0,0 -0.9874,0.44211 -2.1369,0.44211 -0.73686,0 -1.25266,-0.44211 -1.25266,-0.44211 l 0.0295,-0.14737 c 0,0 0.56002,0.14737 1.14951,0.14737 1.76846,0 3.55166,-0.88423 3.89062,-2.80007 0.20632,-1.17898 -0.61897,-2.35795 -2.97692,-2.35795 -2.50532,0 -4.70117,1.62109 -5.09907,3.83167 z m 3.33061,-0.57475 c 0.32422,-0.89897 0.82528,-1.19371 1.41477,-1.19371 0.36843,0 0.54528,0.22105 0.48633,0.5158 -0.0589,0.36843 -0.56002,0.66317 -1.9011,0.67791 z"
             style="font-style:normal;font-variant:normal;font-weight:normal;font-stretch:normal;font-size:14.7372px;font-family:Souses;-inkscape-font-specification:Souses;fill:#333333;fill-opacity:1"
             id="path5529" />
          <path
             d="m 123.0762,315.9897 0.67791,-2.1369 h -1.76847 l 0.38317,-2.19584 -3.0506,0.57475 -0.28001,1.62109 h -0.88423 l -0.56001,2.35796 1.04634,-0.0737 -0.41264,2.28427 c -0.33896,1.91583 0.5158,2.94744 2.13689,2.94744 1.47372,0 2.46112,-0.58949 2.46112,-0.58949 l -0.36843,-2.06321 c 0,0 -0.32422,0.14737 -0.76634,0.14737 -0.29474,0 -0.54528,-0.29474 -0.45685,-0.73686 l 0.35369,-2.06321 z"
             style="font-style:normal;font-variant:normal;font-weight:normal;font-stretch:normal;font-size:14.7372px;font-family:Souses;-inkscape-font-specification:Souses;fill:#333333;fill-opacity:1"
             id="path5531" />
          <path
             d="m 127.77734,313.55806 c -2.28427,0 -3.78746,1.91584 -4.15589,3.97904 -0.26527,1.47372 0.50106,3.83168 3.15376,3.83168 0.88423,0 1.57688,-0.58949 1.57688,-0.58949 h 0.14737 l 0.0442,0.58949 2.60849,-0.14738 1.25266,-7.51597 -2.90323,-0.29474 -0.17685,0.58949 h -0.14737 c 0,0 -0.58949,-0.44212 -1.40003,-0.44212 z m -0.33896,5.30539 c -0.73686,0 -0.9137,-0.66317 -0.76633,-1.47372 0.10316,-0.58949 0.5158,-1.32635 1.25266,-1.32635 0.66317,0 0.98739,0.29475 0.98739,0.29475 l -0.29474,2.06321 c 0,0 -0.5158,0.44211 -1.17898,0.44211 z"
             style="font-style:normal;font-variant:normal;font-weight:normal;font-stretch:normal;font-size:14.7372px;font-family:Souses;-inkscape-font-specification:Souses;fill:#333333;fill-opacity:1"
             id="path5533" />
        </g>
      </a>
      <g
         aria-label="ベジータ"
         transform="translate(120.04883,-183.29816)"
         id="text1364-5"
         style="font-size:9.87778px;line-height:1.25;font-family:sans-serif;letter-spacing:-1.85208px;word-spacing:0px;white-space:pre;shape-inside:url(#rect1366-7);display:inline;fill:#d2232a;fill-opacity:1">
        <path
           d="m 77.541364,316.87196 0.118533,-0.0593 0.04939,0.0593 0.04939,-0.11854 h 0.118533 l -0.167922,-0.86924 c -0.365478,-0.14817 -0.721078,-0.31609 -1.076678,-0.48401 -0.3556,-0.1778 -0.681567,-0.39511 -0.997656,-0.65194 -0.306211,-0.24694 -0.632178,-0.47413 -0.987778,-0.66181 -0.3556,-0.19755 -0.691444,-0.38523 -1.037167,-0.58279 -0.286455,-0.0395 -0.553155,0 -0.819856,0.11854 -0.256822,0.11853 -0.513644,0.21731 -0.780344,0.31609 -0.256822,0.10865 -0.503767,0.22718 -0.770467,0.34572 -0.256822,0.13829 -0.493889,0.28645 -0.7112,0.43462 l -0.108656,0.29633 c 0,0.079 0.01976,0.13829 0.05927,0.1778 0.02963,0.0395 0.04939,0.0889 0.04939,0.14817 0,0.0593 0.03951,0.079 0.118533,0.079 0.05927,0 0.118534,0.0198 0.158045,0.0593 0.227189,0 0.414866,-0.0494 0.582789,-0.14817 0.158044,-0.0988 0.345722,-0.18768 0.543278,-0.2667 0.207433,-0.0691 0.404989,-0.15804 0.563033,-0.25682 0.167922,-0.0889 0.335845,-0.19756 0.523522,-0.31609 v -0.16792 l 0.493889,-0.0691 h -0.04939 v -0.10865 l 0.375355,0.0593 c 0.296334,0.15804 0.592667,0.33584 0.898878,0.52352 0.296334,0.19755 0.582789,0.39511 0.889,0.61242 0.286456,0.20743 0.563034,0.42474 0.839612,0.63218 0.286455,0.21731 0.543278,0.45438 0.809978,0.72108 z m -4.632679,-2.38055 -0.06915,0.0692 -0.04939,-0.0692 0.04939,-0.0494 z m 3.259667,-0.80998 0.276578,-0.11853 -0.04939,-0.64206 -0.563033,-0.23706 c -0.03951,0 -0.07902,0 -0.108656,0 -0.03951,0 -0.0889,0 -0.128411,0 -0.05927,0 -0.0889,0.0197 -0.0889,0.0593 0,0.0395 -0.01976,0.079 -0.05927,0.12842 l 0.108656,0.40498 z m 1.047045,-0.70132 h 0.05927 l -0.108656,-0.52352 -0.395111,-0.29633 H 76.44493 l 0.09878,0.47413 z"
           style="font-size:9.87778px;letter-spacing:-1.32292px"
           id="path5505" />
        <path
           d="m 79.379314,318.13631 c 0.06915,0 0.138289,0 0.197556,0 0.04939,0 0.108655,-0.01 0.187678,-0.0197 0.06914,-0.0198 0.128411,-0.0494 0.167922,-0.0889 0.02963,-0.0296 0.06914,-0.0889 0.108656,-0.14817 0.138288,-0.0691 0.296333,-0.14817 0.4445,-0.22719 0.138289,-0.079 0.286455,-0.15804 0.424744,-0.21731 0.148167,-0.0691 0.296334,-0.14817 0.434623,-0.22719 0.148166,-0.0691 0.286455,-0.15804 0.385233,-0.2667 l 0.118533,-0.1778 h 0.108656 l 0.108655,-0.31609 0.217312,-0.1778 0.167922,-0.0494 0.167922,-0.15804 0.325967,-0.55316 h 0.108655 l 0.167923,-0.49389 0.108655,-0.22719 h 0.09878 v -0.10865 l 0.1778,-0.0593 c 0.06914,-0.0593 0.138289,-0.14816 0.1778,-0.24694 0.04939,-0.0889 0.108656,-0.1778 0.167922,-0.24695 0.05927,-0.0691 0.118534,-0.15804 0.1778,-0.24694 0.04939,-0.0889 0.0889,-0.18768 0.118534,-0.30621 l -0.04939,-0.31609 -0.434622,-0.22719 -0.04939,-0.2667 -0.385234,1.03717 h -0.108655 v 0.10865 h -0.108656 v 0.1778 h -0.118533 l -0.325967,0.37536 -0.217311,0.38523 h -0.108656 v 0.16792 h -0.108655 l -0.276578,0.32597 -0.05927,0.10866 c -0.1778,0.14816 -0.3556,0.27657 -0.523522,0.37535 -0.158045,0.11853 -0.325967,0.24695 -0.484011,0.37536 -0.167923,0.11853 -0.3556,0.22719 -0.553156,0.29633 -0.207433,0.0691 -0.395111,0.14817 -0.582789,0.20743 h -0.207433 v -0.14816 l -0.553156,0.0494 -0.158045,0.38523 0.217312,0.82973 z m 0.602545,-3.07199 0.108655,-0.10865 0.04939,0.0593 0.118534,-0.0593 v -0.10866 l 0.602544,-0.50377 v -0.0494 h -0.04939 c 0.02963,-0.0691 0.01976,-0.11854 -0.02963,-0.12842 -0.05927,-0.0197 -0.0889,-0.0593 -0.0889,-0.11853 0,-0.0593 0,-0.11853 0,-0.16792 0,-0.0494 0,-0.0988 0,-0.12841 l -0.325967,0.0494 -0.612422,-0.0988 -0.2667,0.0494 v 0.0988 h -0.108656 l -0.05927,0.10865 0.05927,0.72108 c 0.03951,0.0395 0.06915,0.079 0.0889,0.10865 0.0099,0.0395 0.03951,0.0593 0.07902,0.0593 0.02963,0 0.07902,0 0.128411,0 0.04939,0 0.09878,0 0.148166,0 v 0.10866 z m -0.108656,-2.36079 c 0.108656,0 0.207434,0 0.306211,0 0.0889,0 0.197556,0 0.306212,0 0.09878,0 0.187677,-0.0296 0.2667,-0.0889 0.06914,-0.0593 0.148166,-0.11853 0.217311,-0.18767 v -0.15805 l -0.158045,-0.0691 v -0.0988 h -0.118533 v -0.10866 l -0.7112,-0.33584 v -0.10866 l -0.158045,-0.0593 h -0.276577 l -0.167923,0.27657 0.217311,0.55316 h 0.108656 z m 4.375857,-0.82973 0.128411,-0.0494 0.04939,0.0494 0.167922,-0.0494 v -0.33584 h -0.108655 l -0.05927,-0.43463 -0.612422,0.0494 v 0.10866 h -0.09878 v 0.11853 h -0.05927 l 0.335845,0.37536 z m 1.214967,-0.60255 0.167922,-0.0593 v -0.49389 l -0.612422,-0.16792 -0.325967,0.11853 v 0.15804 l 0.325967,0.33585 z"
           style="font-size:9.87778px;letter-spacing:-3.70417px"
           id="path5507" />
        <path
           d="m 86.738239,314.28398 c 0.582789,-0.0889 1.1557,-0.14817 1.748367,-0.20744 0.592666,-0.0494 1.175455,-0.0988 1.778,-0.12841 0.296333,0 0.582789,0 0.879122,0.01 0.286456,0.01 0.543278,0.079 0.780345,0.20743 l 0.09878,-0.0296 0.128411,-0.2667 0.187678,-0.0296 -0.03951,-0.079 c -0.118534,-0.0395 -0.237067,-0.0889 -0.345723,-0.12842 -0.118533,-0.0296 -0.246944,-0.0593 -0.375355,-0.079 -0.721078,0.0494 -1.442156,0.0988 -2.173112,0.14817 -0.740833,0.0494 -1.471789,0.0889 -2.182989,0.13829 -0.276578,0.0198 -0.523523,-0.0296 -0.740834,-0.12841 -0.227189,-0.10866 -0.464255,-0.16793 -0.701322,-0.18768 l 0.612422,0.56303 z"
           style="font-size:9.87778px;letter-spacing:-2.11667px"
           id="path5509" />
        <path
           d="m 93.195463,318.50179 c 0.04939,-0.0889 0.108655,-0.12841 0.197555,-0.12841 0.0889,0 0.158045,-0.0198 0.217312,-0.0593 0.06914,-0.0395 0.128411,-0.079 0.197555,-0.11853 0.06915,-0.0494 0.138289,-0.0494 0.217311,-0.01 v -0.12841 l 0.385234,-0.31609 0.118533,-0.0593 v -0.19755 h -0.05927 v 0.12841 h -0.187677 l 0.187677,-0.24694 v -0.0692 h 0.256823 v 0.0692 h 0.05927 l 0.316089,-0.57292 v -0.12841 l -0.05927,0.0593 h -0.06915 v -0.24695 l 0.128411,-0.24694 h 0.128412 l 0.05927,-0.19756 h 0.128411 v -0.12841 h 0.128411 v 0.0593 h 0.187678 l 0.316089,-0.0593 v -0.0691 l -0.06914,0.12841 h -0.118534 v -0.25682 l 0.246945,-0.0593 0.06914,-0.38523 h 0.1778 l -0.04939,-0.0494 v -0.19756 l 0.118533,-0.0691 0.05927,-0.31609 0.197555,-0.0593 0.118534,-0.31609 v -0.0691 h -0.118534 v -0.12841 l 0.187678,-0.0494 0.4445,-0.889 0.128411,-0.12841 0.118534,-0.0691 0.128411,-0.24694 h 0.128411 v -0.12841 h 0.128411 l 0.05927,-0.24695 -0.05927,-0.19755 -0.632178,-0.38524 -1.135945,0.19756 h -0.2667 v -0.12841 l -0.375355,-0.24695 -0.503767,0.0494 -0.701322,1.08656 h -0.118534 l -0.375355,0.37536 -0.197556,0.31608 0.06914,0.19756 0.622301,0.11853 v 0.19756 c 0.04939,0.19755 0.148166,0.30621 0.296333,0.30621 0.138289,0 0.286456,0.0198 0.414867,0.0691 0.118533,0.0494 0.256822,0.0988 0.404989,0.15805 0.138289,0.0593 0.286455,0.10865 0.414866,0.15804 0,0.21731 -0.04939,0.39511 -0.158044,0.54328 -0.108656,0.13829 -0.207433,0.29633 -0.286456,0.4445 -0.0889,0.13829 -0.167922,0.29633 -0.256822,0.4445 -0.07902,0.13829 -0.167922,0.30621 -0.256822,0.47413 -0.128411,0.15805 -0.256823,0.34573 -0.404989,0.52353 -0.148167,0.19755 -0.306211,0.36548 -0.474134,0.51364 -0.1778,0.14817 -0.3556,0.2667 -0.543278,0.37536 -0.187677,0.10865 -0.375355,0.23706 -0.5334,0.3556 l 0.246945,0.37535 h 0.246944 z m 1.017411,-0.0691 h -0.128411 v -0.12842 h 0.128411 z m 0.118534,-0.25683 -0.05927,0.0692 -0.05927,-0.0692 0.05927,-0.0593 z m 0.128411,-0.0593 -0.05927,0.12841 -0.06914,-0.0692 v -0.18767 h 0.197555 z m 0.572911,-0.57291 h -0.187678 l 0.05927,-0.18768 h 0.128411 z m 0.4445,-0.88901 0.05927,-0.0593 h 0.06914 z m 0.572911,-1.0668 -0.06914,0.11854 v -0.18768 z m 0.05927,-0.0691 -0.05927,0.0691 -0.06914,-0.0691 0.06914,-0.12841 0.128411,0.0691 z m 0.316089,-0.63218 -0.06914,0.0593 -0.04939,-0.0593 0.04939,-0.0593 z m 0.197555,-0.38523 -0.06914,0.0691 -0.06914,-0.0691 0.06914,-0.0593 z m -0.4445,-0.4445 -0.06914,0.0691 -0.05927,-0.0691 0.05927,-0.0494 z m 0.05927,-0.0494 -0.05927,0.0494 -0.06914,-0.0494 -0.05927,0.0494 h -0.138289 v -0.11853 c -0.07902,-0.0395 -0.1778,-0.0692 -0.306211,-0.0988 -0.118533,-0.0198 -0.237067,-0.0395 -0.345722,-0.0593 -0.108656,-0.0197 -0.197556,-0.0593 -0.286456,-0.12841 -0.0889,-0.0593 -0.167922,-0.12841 -0.256822,-0.21731 l 0.128411,-0.25682 v -0.12841 c 0.0889,0 0.158045,-0.0198 0.227189,-0.0691 0.05927,-0.0395 0.118533,-0.0889 0.187678,-0.15804 0.05927,-0.0494 0.118533,-0.10866 0.187678,-0.1778 0.05927,-0.0691 0.128411,-0.079 0.217311,-0.0395 l 0.06914,-0.18768 1.007534,-0.18768 h 0.128411 c 0,0.15804 -0.01976,0.32597 -0.05927,0.47413 -0.04939,0.13829 -0.0889,0.28646 -0.158044,0.41487 -0.06915,0.11853 -0.128411,0.2667 -0.197556,0.41487 -0.06914,0.13829 -0.138289,0.27657 -0.217311,0.40499 z"
           style="font-size:9.87778px;letter-spacing:-2.11667px"
           id="path5511" />
      </g>
    </g>
    <g
       id="g1566"
       transform="matrix(1.7404894,0,0,1.7404894,-51.894016,-364.38181)"
       style="display:inline">
      <path
         style="fill:#a2a5ad;fill-rule:nonzero;stroke:none;stroke-width:0.2;stroke-linecap:butt;stroke-linejoin:miter;stroke-miterlimit:4;stroke-dasharray:none;stroke-opacity:1"
         d="m 82.39671,287.85053 c -5.256855,4.70084 -5.190197,4.77538 -5.190197,4.77538 0,0 0.06666,0.0745 5.323514,-4.62629 l 0.02612,-0.0234 0.0059,-0.0346 c 2.006543,-11.80128 1.907958,-11.81804 1.907958,-11.81804 0,0 -0.09858,-0.0168 -2.105128,11.78452 l -2e-5,1.2e-4 0.03193,-0.0578 z"
         id="path3462"
         inkscape:path-effect="#path-effect3472"
         inkscape:original-d="m 77.206513,292.62591 5.256908,-4.70088 2.006563,-11.8014"
         sodipodi:nodetypes="ccc" />
      <path
         style="fill:#a4bcc4;fill-rule:nonzero;stroke:none;stroke-width:0.1;stroke-linecap:butt;stroke-linejoin:miter;stroke-miterlimit:4;stroke-dasharray:none;stroke-opacity:1"
         d="m 78.797108,290.57316 c -0.09711,0.33399 -0.146207,0.68194 -0.146207,0.68194 0,0 0.145121,-0.32003 0.24223,-0.65402 l 0.776875,-2.67191 -0.02125,0.0283 1.455509,-0.92209 0.0048,-0.0196 c 1.362362,-5.53557 2.676173,-11.08309 2.676173,-11.08309 0,0 -1.410913,5.52362 -2.773275,11.05919 l -2.7e-5,1.1e-4 0.02179,-0.0303 -1.454495,0.92145 z"
         id="path3464"
         inkscape:path-effect="#path-effect3474"
         inkscape:original-d="m 78.650901,291.2551 0.971093,-3.33989 1.438521,-0.91133 2.724751,-11.07125"
         sodipodi:nodetypes="cccc" />
      <path
         style="fill:#babdca;fill-rule:nonzero;stroke:none;stroke-width:0.05;stroke-linecap:butt;stroke-linejoin:miter;stroke-miterlimit:4;stroke-dasharray:none;stroke-opacity:1;filter:url(#filter3496)"
         d="m 83.241035,280.36323 c -0.357493,0.32489 -0.681358,0.68678 -0.681358,0.68678 0,0 0.39112,-0.28789 0.748613,-0.61277 l 0.238328,-0.2166 c 0.119164,-0.10829 0.204701,-0.25359 0.204701,-0.25359 0,0 -0.152792,0.0713 -0.271956,0.17959 z"
         id="path3466"
         sodipodi:nodetypes="cc"
         inkscape:path-effect="#path-effect3500"
         inkscape:original-d="m 82.559677,281.05001 1.191642,-1.08296" />
      <path
         style="fill:#babdca;fill-rule:nonzero;stroke:none;stroke-width:0.05;stroke-linecap:butt;stroke-linejoin:miter;stroke-miterlimit:4;stroke-dasharray:none;stroke-opacity:1"
         d="m 82.596441,282.66303 c -0.219923,0.0527 -0.42819,0.15405 -0.42819,0.15405 0,0 0.231577,-0.004 0.4515,-0.0568 l 0.549806,-0.13179 c 0.05498,-0.0132 0.09831,-0.075 0.09831,-0.075 0,0 -0.06664,-0.0354 -0.121616,-0.0223 z"
         id="path3468"
         inkscape:path-effect="#path-effect3502"
         inkscape:original-d="m 82.168251,282.81708 1.099612,-0.26358"
         sodipodi:nodetypes="cc" />
      <path
         style="fill:#babdca;fill-rule:nonzero;stroke:none;stroke-width:0.05;stroke-linecap:butt;stroke-linejoin:miter;stroke-miterlimit:4;stroke-dasharray:none;stroke-opacity:1"
         d="m 82.312576,286.37021 c -0.592223,0.18641 -1.169434,0.42052 -1.169434,0.42052 0,0 0.607235,-0.13872 1.199459,-0.32513 0.148055,-0.0466 0.281099,-0.1409 0.281099,-0.1409 0,0 -0.163068,-0.001 -0.311124,0.0455 z"
         id="path3470"
         inkscape:path-effect="#path-effect3504"
         inkscape:original-d="M 81.143142,286.79073 82.6237,286.3247"
         sodipodi:nodetypes="cc" />
    </g>
    <g
       id="g3592"
       transform="matrix(1.3163967,0,0,1.3163967,-207.98997,-41.807481)">
      <path
         style="display:inline;fill:#939393;fill-opacity:1;stroke:none;stroke-width:0.1;stroke-linecap:butt;stroke-linejoin:miter;stroke-miterlimit:4;stroke-dasharray:none;stroke-opacity:1"
         d="m 236.33661,135.02026 c -1.07086,0.43042 -1.54477,0.79078 -0.41678,0.96332 1.12799,0.17253 2.64732,0.35364 4.01169,0.32657 1.36436,-0.0271 1.93635,-0.24444 2.27481,-0.17637 0.33846,0.068 0.45298,0.14912 0.45298,0.14912 0,0 0.58834,-0.17479 0.77913,-0.36274 0.19029,-0.18746 0.40805,-0.31898 -0.008,-0.58719 -0.41635,-0.26818 -1.45476,-0.50536 -1.45476,-0.50536 z"
         id="path1849"
         sodipodi:nodetypes="cssccsscc" />
      <a
         id="a1381"
         xlink:href="https://duckduckgo.com/?q=cyberpunk+2077+jacket&amp;iar=images&amp;iax=images&amp;ia=images&amp;iai=https%3A%2F%2Fwww.nycjackets.com%2Fwp-content%2Fuploads%2F2019%2F06%2Frocyberpunk-2077-real-bomber-leather-bwn-jacket-b.jpg"
         style="display:inline"
         transform="translate(150.05127,-154.76355)">
        <ellipse
           style="fill:#00acd7;stroke-width:0.935965;stroke-dasharray:0, 10.2956"
           id="path1185"
           cx="89.541794"
           cy="285.00632"
           rx="3.5160172"
           ry="5.3014865" />
      </a>
      <path
         fill-rule="evenodd"
         clip-rule="evenodd"
         fill="#6ad7e5"
         stroke="#000000"
         stroke-width="0.0738671"
         stroke-linecap="round"
         d="m 239.45114,123.3609 c 1.48633,0 2.87966,0.21257 3.606,1.64057 0.65195,1.6006 0.4201,3.32658 0.51953,5.01819 0.0854,1.45252 0.27471,3.13061 -0.39913,4.47664 -0.70888,1.41613 -2.48021,1.77237 -3.93958,1.72019 -1.14629,-0.041 -2.53103,-0.41498 -3.17799,-1.46229 -0.75901,-1.22866 -0.39967,-3.05559 -0.34454,-4.42272 0.0653,-1.61944 -0.43864,-3.24381 0.0934,-4.82848 0.55191,-1.64386 2.04038,-2.01536 3.64234,-2.1421"
         id="path2216"
         style="display:inline;stroke:none;stroke-opacity:1" />
      <path
         fill-rule="evenodd"
         clip-rule="evenodd"
         fill="#6ad7e5"
         stroke="#000000"
         stroke-width="0.0738672"
         stroke-linecap="round"
         d="m 235.79434,125.81647 c -1.48465,-0.4175 -0.38067,-2.30623 0.81154,-1.52936 z"
         id="path2196"
         style="display:inline;stroke:#6ad7e5;stroke-opacity:1" />
      <path
         fill-rule="evenodd"
         clip-rule="evenodd"
         fill="#6ad7e5"
         stroke="#000000"
         stroke-width="0.0738672"
         stroke-linecap="round"
         d="m 242.39063,124.14537 c 1.17516,-0.82541 2.23709,1.03688 0.87134,1.50544 z"
         id="path2198"
         style="display:inline;stroke:#6ad7e5;stroke-opacity:1" />
      <path
         fill-rule="evenodd"
         clip-rule="evenodd"
         fill="#f6d2a2"
         stroke="#000000"
         stroke-width="0.0738672"
         stroke-linecap="round"
         d="m 242.64341,135.20967 c 0.29849,0.18468 0.8441,0.74315 0.39632,1.01395 -0.43026,0.39393 -0.67106,-0.43239 -1.04869,-0.5469 0.16263,-0.22085 0.36877,-0.42225 0.65237,-0.46705 z"
         id="path2200"
         style="display:inline;stroke:#f6d2a2;stroke-opacity:1" />
      <path
         sodipodi:nodetypes="cccccccscsscscc"
         d="m 235.59466,132.11074 -0.01,0.70375 c 0,0 -0.25999,0.98 3.75908,1.03819 l 0.55061,-0.008 c 4.01906,-0.0582 3.73918,-1.0304 3.73918,-1.0304 l -0.01,-0.70376 h -5.7e-4 c 0,0 -0.13332,0.236 -0.30081,0.37266 -0.16749,0.13665 -0.40834,0.20556 -1.20773,0.42819 -0.79217,0.2201 -2.47037,0.21893 -2.50075,0.21887 h -0.0101 c -0.0304,6e-5 -1.70857,0 -2.50075,-0.21887 -0.79939,-0.22263 -1.04023,-0.29154 -1.20772,-0.42819 -0.1675,-0.13666 -0.263,-0.2856 -0.263,-0.2856 z"
         style="display:inline;fill:#1a1a1a;fill-opacity:1;stroke:#1a1a1a;stroke-width:0.0814507;stroke-linecap:butt;stroke-linejoin:miter;stroke-miterlimit:4;stroke-dasharray:none;stroke-dashoffset:0;stroke-opacity:1"
         id="path2311-3" />
      <path
         sodipodi:nodetypes="ccccssccccsscc"
         d="m 235.12436,126.67402 0.096,1.74815 0.25649,0.1997 0.23907,0.89621 c 0,0 0.66006,0.2431 3.89872,0.27317 h 5.7e-4 c 3.23866,-0.0301 3.89816,-0.27317 3.89816,-0.27317 l 0.23907,-0.89621 0.25647,-0.1997 0.096,-1.74815 c 0,0 -0.0868,0.59238 -4.48968,0.59238 h -5.6e-4 c -4.40298,0 -4.49024,-0.59238 -4.49024,-0.59238 z"
         style="display:inline;fill:#3d2b1b;fill-opacity:1;stroke:#3d2b1b;stroke-width:0.0814331;stroke-linecap:butt;stroke-linejoin:miter;stroke-miterlimit:4;stroke-dasharray:none;stroke-opacity:1"
         id="path2354" />
      <path
         d="m 235.71576,129.51797 -0.0538,1.73188 c 0,0 0.0301,-0.38851 0.0583,-0.83507 0.0278,-0.44656 -0.004,-0.89681 -0.004,-0.89681 z m 0,0 -0.37041,0.34175 c -0.27176,0.68482 0.31598,1.39013 0.31598,1.39013 z"
         style="display:inline;mix-blend-mode:normal;fill:#3d2b1b;fill-opacity:1;stroke:#3d2b1b;stroke-width:0.0814507;stroke-linecap:butt;stroke-linejoin:miter;stroke-miterlimit:4;stroke-dasharray:none;stroke-opacity:1"
         id="path2359-6" />
      <path
         sodipodi:nodetypes="ccccscsccscsccccsssscc"
         d="m 235.70818,129.51797 c 0,0 -0.009,0.33849 -0.0191,0.86592 -0.01,0.5275 -0.14552,1.17771 -0.14552,1.17771 l 0.0518,0.54914 c 0,0 0.0727,0.23701 0.28228,0.35976 0.20962,0.12275 0.55829,0.27688 0.76493,0.3311 0.20664,0.0543 0.59687,0.16502 0.92543,0.19754 0.32855,0.0325 0.87447,0.0855 1.09099,0.0971 h 1.91205 c 0.21651,-0.0116 0.76187,-0.0646 1.09043,-0.0971 0.32855,-0.0325 0.71935,-0.14324 0.92599,-0.19754 0.20665,-0.0542 0.55531,-0.20835 0.76493,-0.3311 0.20963,-0.12275 0.28229,-0.35976 0.28229,-0.35976 l 0.0507,-0.39633 c 0,0 -0.0856,-0.49546 -0.14439,-1.33052 -0.0109,-0.52743 -0.0197,-0.86592 -0.0197,-0.86592 0,0 -0.38205,0.0784 -1.03544,0.15545 -0.65323,0.077 -2.86954,0.11783 -2.87058,0.11783 h -5.7e-4 c -7e-4,0 -2.21792,-0.0408 -2.87114,-0.11783 -0.65339,-0.077 -1.03543,-0.15545 -1.03543,-0.15545 z"
         style="display:inline;fill:#3d2b1b;fill-opacity:1;stroke:#3d2b1b;stroke-width:0.0814507;stroke-linecap:butt;stroke-linejoin:miter;stroke-miterlimit:4;stroke-dasharray:none;stroke-opacity:1"
         id="path1989" />
      <path
         id="path2102"
         d="m 235.34535,129.85972 -0.33238,-0.055 -0.0564,0.20626 0.33256,0.0484 0.0562,-0.19964"
         style="display:inline;fill:#3d2b1b;fill-opacity:1;stroke:#3d2b1b;stroke-width:0.0814507;stroke-linecap:butt;stroke-linejoin:miter;stroke-miterlimit:4;stroke-dasharray:none;stroke-opacity:1" />
      <path
         style="display:inline;mix-blend-mode:normal;fill:#3d2b1b;fill-opacity:1;stroke:#3d2b1b;stroke-width:0.0814507;stroke-linecap:butt;stroke-linejoin:miter;stroke-miterlimit:4;stroke-dasharray:none;stroke-opacity:1"
         d="m 243.88414,129.85973 0.33239,-0.055 0.0564,0.20625 -0.33257,0.0484 -0.0562,-0.19964"
         id="path2102-7" />
      <path
         style="display:inline;mix-blend-mode:normal;fill:#3d2b1b;fill-opacity:1;stroke:#3d2b1b;stroke-width:0.0814507;stroke-linecap:butt;stroke-linejoin:miter;stroke-miterlimit:4;stroke-dasharray:none;stroke-opacity:1"
         d="m 235.2808,130.25448 -0.33531,0.0328 -0.001,0.21381 0.33377,-0.0393 0.002,-0.2074"
         id="path2102-0" />
      <path
         id="path2102-0-9"
         d="m 243.94862,130.25448 0.33532,0.0328 7e-4,0.21381 -0.33378,-0.0393 -0.002,-0.2074"
         style="display:inline;mix-blend-mode:normal;fill:#3d2b1b;fill-opacity:1;stroke:#3d2b1b;stroke-width:0.0814507;stroke-linecap:butt;stroke-linejoin:miter;stroke-miterlimit:4;stroke-dasharray:none;stroke-opacity:1" />
      <rect
         ry="1.6671922e-05"
         y="127.69568"
         x="236.3391"
         height="1.3576427"
         width="6.5512424"
         id="rect2207"
         style="display:inline;opacity:0.984041;fill:#000000;fill-opacity:1;stroke:none;stroke-width:0.0108601;stroke-miterlimit:4;stroke-dasharray:none;stroke-opacity:1" />
      <g
         aria-label="JAEGER"
         transform="matrix(1.0860073,0,0,1.0860073,128.73066,-208.32617)"
         id="text2197"
         style="font-size:1.41111px;line-height:1.25;font-family:sans-serif;white-space:pre;shape-inside:url(#rect2199);display:inline;fill:#ececec">
        <path
           d="m 99.343068,310.45164 c 0,0 0.107244,0.10583 0.263877,0.10583 0.337256,0 0.428975,-0.19755 0.465665,-0.40922 l 0.11007,-0.62089 -0.344313,0.0282 -0.0762,0.59267 c -0.01411,0.11289 -0.06773,0.14111 -0.110066,0.14111 -0.05644,0 -0.128411,-0.0706 -0.128411,-0.0706 z"
           style="font-style:normal;font-variant:normal;font-weight:normal;font-stretch:normal;font-size:1.41111px;font-family:Souses;-inkscape-font-specification:Souses;fill:#ececec"
           id="path5573" />
        <path
           d="m 100.58202,309.54147 -0.56162,0.98778 h 0.33866 l 0.11713,-0.22578 h 0.28927 l 0.0395,0.254 0.33867,-0.0437 -0.1905,-1.00048 z m 0.11007,0.33867 h 0.0141 l 0.0325,0.21166 h -0.16228 z"
           style="font-style:normal;font-variant:normal;font-weight:normal;font-stretch:normal;font-size:1.41111px;font-family:Souses;-inkscape-font-specification:Souses;fill:#ececec"
           id="path5575" />
        <path
           d="m 101.95221,310.28936 -0.41346,-0.0141 0.0212,-0.11995 h 0.35277 l 0.0296,-0.24694 h -0.33867 l 0.0198,-0.11289 h 0.381 l 0.0663,-0.254 h -0.6985 l -0.18768,0.98778 h 0.71261 z"
           style="font-style:normal;font-variant:normal;font-weight:normal;font-stretch:normal;font-size:1.41111px;font-family:Souses;-inkscape-font-specification:Souses;fill:#ececec"
           id="path5577" />
        <path
           d="m 103.01054,309.65436 c 0,0 -0.11007,-0.14111 -0.32738,-0.14111 -0.42474,0 -0.55457,0.26105 -0.60396,0.53622 -0.055,0.3175 0.10866,0.508 0.43322,0.508 0.127,0 0.28222,-0.0423 0.39934,-0.10583 l 0.0861,-0.48684 -0.4318,-0.0282 -0.0649,0.24695 0.16792,0.007 -0.0169,0.0917 c -0.0367,0.0127 -0.0663,0.0212 -0.10866,0.0212 -0.11289,0 -0.16933,-0.0847 -0.1397,-0.254 0.0409,-0.22578 0.11994,-0.27517 0.21872,-0.27517 0.11995,0 0.17639,0.0776 0.17639,0.0776 z"
           style="font-style:normal;font-variant:normal;font-weight:normal;font-stretch:normal;font-size:1.41111px;font-family:Souses;-inkscape-font-specification:Souses;fill:#ececec"
           id="path5579" />
        <path
           d="m 103.7937,310.28936 -0.41345,-0.0141 0.0212,-0.11995 h 0.35278 l 0.0296,-0.24694 h -0.33866 l 0.0198,-0.11289 h 0.381 l 0.0663,-0.254 h -0.6985 l -0.18768,0.98778 h 0.71261 z"
           style="font-style:normal;font-variant:normal;font-weight:normal;font-stretch:normal;font-size:1.41111px;font-family:Souses;-inkscape-font-specification:Souses;fill:#ececec"
           id="path5581" />
        <path
           d="m 104.20433,310.52925 0.0466,-0.31045 h 0.0282 l 0.20179,0.33867 0.34008,-0.0847 -0.21449,-0.31044 0.003,-0.0141 c 0,0 0.21308,-0.0847 0.24554,-0.27517 0.0423,-0.23283 -0.10584,-0.35983 -0.44591,-0.34572 l -0.3556,0.0141 -0.15946,0.98778 z m 0.11007,-0.74789 h 0.0494 c 0.127,0 0.19473,0.0141 0.17921,0.10583 -0.0169,0.0917 -0.0917,0.11995 -0.26105,0.11995 z"
           style="font-style:normal;font-variant:normal;font-weight:normal;font-stretch:normal;font-size:1.41111px;font-family:Souses;-inkscape-font-specification:Souses;fill:#ececec"
           id="path5583" />
      </g>
      <path
         style="display:inline;fill:none;fill-opacity:1;stroke:#000000;stroke-width:0.760208;stroke-linecap:round;stroke-linejoin:round;stroke-miterlimit:4;stroke-dasharray:none;stroke-opacity:1;paint-order:normal"
         d="m 238.35638,130.42308 c 0,0 0.21172,-0.10962 0.32698,-0.13387 0.13166,-0.0277 0.27113,-0.0347 0.40349,-0.0108 0.13847,0.0253 0.28525,0.0664 0.39112,0.15915 0.088,0.0771 0.17722,0.18795 0.17386,0.30489 -0.002,0.0945 -0.10197,0.81707 -0.15923,1.13334 -0.0281,0.15458 -0.18516,0.26482 -0.31926,0.34668 -0.13075,0.0798 -0.28979,0.12475 -0.44297,0.12244 -0.13105,-0.002 -0.26499,-0.046 -0.3757,-0.11609 -0.0932,-0.059 -0.17865,-0.14343 -0.22332,-0.24432 -0.0505,-0.11412 -0.0612,-0.25081 -0.0347,-0.37277 0.0231,-0.10654 0.0794,-0.21325 0.16258,-0.28361 0.0877,-0.0743 0.20975,-0.10263 0.32344,-0.11945 0.14808,-0.0219 0.29908,0.0145 0.44822,0.0273 0.42029,0.0357 0.83652,0.11934 1.25793,0.13744 0.1269,0.006 0.25694,0.0188 0.38095,-0.009 0.12796,-0.0283 0.27179,-0.061 0.36009,-0.15789 0.081,-0.0888 0.10512,-0.22234 0.11376,-0.34224 0.009,-0.12382 0.004,-0.26408 -0.0654,-0.36663 -0.0722,-0.10588 -0.20591,-0.16147 -0.32782,-0.20112 -0.11897,-0.0387 -0.24971,-0.0423 -0.37413,-0.0294 -0.14005,0.0145 -0.28542,0.0451 -0.40528,0.11888 -0.13663,0.0842 -0.31502,0.19516 -0.32879,0.35167 -0.0136,0.15411 -0.10024,0.74104 -0.13624,1.15114 -0.006,0.0646 0.0541,0.12052 0.0983,0.16797 0.0415,0.0445 0.098,0.0728 0.15077,0.10295 0.0935,0.0534 0.18718,0.11454 0.29244,0.13716 0.14549,0.0313 0.2917,0.034 0.43987,0.0202 0.13931,-0.006 0.24045,-0.0638 0.35587,-0.14123"
         id="path2322-9"
         sodipodi:nodetypes="csssssssssssssssssssssssssscc" />
      <path
         sodipodi:nodetypes="csssssssssssssssssssssssssscc"
         id="path2322"
         d="m 238.35652,130.42302 c 0,0 0.21172,-0.10963 0.32698,-0.13388 0.13166,-0.0277 0.27113,-0.0346 0.4035,-0.0108 0.13846,0.0253 0.28524,0.0663 0.39111,0.15914 0.088,0.0771 0.17722,0.18796 0.17386,0.3049 -0.002,0.0945 -0.10197,0.81707 -0.15923,1.13333 -0.028,0.15459 -0.18516,0.26483 -0.31925,0.34669 -0.13076,0.0798 -0.2898,0.12475 -0.44298,0.12244 -0.13105,-0.002 -0.26499,-0.046 -0.3757,-0.1161 -0.0932,-0.0591 -0.17865,-0.14343 -0.22332,-0.24432 -0.0505,-0.11412 -0.0612,-0.25081 -0.0347,-0.37277 0.0231,-0.10653 0.0794,-0.21325 0.16258,-0.28361 0.0877,-0.0743 0.20975,-0.10263 0.32344,-0.11945 0.14808,-0.0219 0.29908,0.0145 0.44822,0.0273 0.42029,0.0357 0.83652,0.11934 1.25793,0.13745 0.1269,0.006 0.25694,0.0188 0.38095,-0.009 0.12796,-0.0283 0.27179,-0.061 0.36009,-0.15788 0.081,-0.0888 0.10512,-0.22234 0.11376,-0.34225 0.009,-0.12381 0.004,-0.26407 -0.0654,-0.36662 -0.0722,-0.10588 -0.20591,-0.16147 -0.32782,-0.20112 -0.11897,-0.0387 -0.24971,-0.0424 -0.37413,-0.0294 -0.14005,0.0145 -0.28542,0.0451 -0.40528,0.11887 -0.13663,0.0842 -0.31502,0.19517 -0.32879,0.35167 -0.0136,0.15412 -0.10024,0.74104 -0.13624,1.15114 -0.006,0.0646 0.0541,0.12052 0.0983,0.16797 0.0415,0.0445 0.098,0.0728 0.15077,0.10296 0.0935,0.0534 0.18718,0.11454 0.29244,0.13716 0.14549,0.0313 0.2917,0.034 0.43987,0.0202 0.13931,-0.006 0.24045,-0.0638 0.35587,-0.14124"
         style="display:inline;fill:none;fill-opacity:1;stroke:#aa0000;stroke-width:0.307464;stroke-linecap:round;stroke-linejoin:round;stroke-miterlimit:4;stroke-dasharray:none;stroke-opacity:1;paint-order:normal" />
      <path
         d="m 243.54536,129.48708 0.0798,1.69605 c 0,0 -0.0301,-0.38851 -0.0583,-0.83506 -0.0278,-0.44656 -0.022,-0.86099 -0.022,-0.86099 z m 0,0 0.3704,0.34175 c 0.27176,0.68482 -0.29203,1.38899 -0.29203,1.38899 z"
         style="display:inline;mix-blend-mode:normal;fill:#3d2b1b;fill-opacity:1;stroke:#3d2b1b;stroke-width:0.0814507;stroke-linecap:butt;stroke-linejoin:miter;stroke-miterlimit:4;stroke-dasharray:none;stroke-opacity:1"
         id="path2359-6-3"
         sodipodi:nodetypes="ccccccccc" />
    </g>
    <a
       id="a1337"
       xlink:href="https://thesource.com/wp-content/uploads/2019/05/akira.jpg"
       style="display:inline"
       transform="matrix(1.3163967,0,0,1.3163967,-10.462983,-247.36078)">
      <g
         id="g2745"
         transform="translate(-165.73749)">
        <path
           style="fill:#939393;fill-opacity:1;stroke:none;stroke-width:0.185974px;stroke-linecap:butt;stroke-linejoin:miter;stroke-opacity:1"
           d="m 242.14559,276.67074 6.71986,-0.63255 7.44617,1.48601 c 0,0 0.28511,0.12514 0.80568,0.10436 0.52056,-0.0208 1.86629,-0.0731 1.86629,-0.0731 0,0 5.10015,0.91334 5.71146,0.52689 0.6113,-0.38645 1.27697,-1.4321 1.27697,-1.4321 l 4.66054,0.39208 c 0,0 2.045,0.16485 3.66475,0.21346 0.60568,0.0182 1.72296,0.10168 2.58679,-0.27337 0.722,-0.25226 1.09241,-0.79012 0.71315,-1.47044 -0.2245,-0.31375 -0.68048,-0.33045 -1.18522,-0.55185 -0.50475,-0.22141 -1.13622,-0.20282 -1.13622,-0.20282 l -10.47404,-1.00829 -20.19859,-0.75128 -9.85048,2.94103 c 0,0 -0.67299,0.21739 -1.14909,0.65947 -0.47611,0.44209 -0.3778,0.58199 -0.32093,0.72195 0.054,0.13306 0.20693,0.27316 0.2875,0.34306 0.0702,0.0609 0.20124,0.18672 0.59434,0.2439 0.62342,0.0907 4.04962,-0.76289 4.04962,-0.76289 z"
           id="path967"
           sodipodi:nodetypes="cccccsccsccsccccsssscc" />
        <path
           style="display:inline;fill:#33080f;fill-opacity:1;stroke:#33080f;stroke-width:0.185974px;stroke-linecap:butt;stroke-linejoin:miter;stroke-opacity:1"
           d="m 237.74438,268.86797 c -2.06993,0.786 -3.09047,1.1966 -3.75642,1.97517 -0.39737,0.46455 -0.85607,1.08393 -0.9641,1.65769 -0.10803,0.57377 -0.11793,1.37649 0.0716,1.92173 0.18954,0.54524 0.44153,0.98901 0.70699,1.33166 0.26547,0.34264 1.14728,0.96439 1.8413,1.10628 0.69403,0.14187 1.51563,0.38023 2.25231,0.41691 0.73669,0.0367 3.27018,-0.19552 3.27018,-0.19552 0,0 0.90178,-0.10575 1.46947,-0.51272 0.35826,-0.25684 0.50112,-0.32875 0.67855,-0.666 0.19295,-0.36677 -0.0635,-1.23694 -0.0635,-1.23694 l -1.7519,-3.75195 c 0,0 -0.94984,-1.6432 -1.64852,-1.96739 -0.69868,-0.32418 -1.29357,-0.30555 -1.54274,-0.26588 -0.24916,0.0396 -0.56328,0.18696 -0.56328,0.18696 z"
           id="path105"
           sodipodi:nodetypes="ssssssscssccsccs" />
        <path
           style="display:inline;fill:#33080f;fill-opacity:1;stroke:#33080f;stroke-width:0.185974px;stroke-linecap:butt;stroke-linejoin:miter;stroke-opacity:1"
           d="m 270.04924,276.9945 c 2.09213,0.34068 4.1222,-0.18527 4.1222,-0.18527 0,0 0.71638,-0.16375 1.33234,-0.60837 0.61596,-0.44461 1.01948,-0.86284 1.1975,-1.1442 0.17801,-0.28135 0.25628,-0.32745 0.45391,-0.7816 0.19763,-0.45415 0.30058,-0.93732 0.26052,-1.6411 -0.0401,-0.70377 -0.32562,-1.63467 -0.50505,-1.91942 -0.26786,-0.42875 -0.52215,-0.82333 -0.89662,-1.18338 -0.73434,-0.70606 -1.80004,-1.05441 -2.07374,-1.11134 -0.27372,-0.0569 -1.13033,-0.12477 -1.47443,-0.13286 -0.34411,-0.008 -2.07711,0.21846 -2.07711,0.21846 l -4.08326,0.94582 -1.05538,4.25592 0.45814,0.84508 c 0,0 0.72287,1.02246 1.96468,1.59375 1.24178,0.57129 2.37629,0.84851 2.3763,0.84851 z"
           id="path964"
           sodipodi:nodetypes="ccsssscsssccccsc" />
        <path
           style="display:inline;fill:#9d1a28;fill-opacity:1;stroke:none;stroke-width:0.185974px;stroke-linecap:butt;stroke-linejoin:miter;stroke-opacity:1"
           d="m 241.34496,265.69881 -1.37556,0.73567 -0.44861,0.47858 -3.76241,2.52535 -0.16865,0.20375 1.70993,-0.70729 0.40176,-0.008 c 0,0 -0.15481,1.31021 0.0588,1.80725 0.21362,0.49705 0.94025,1.42975 0.94025,1.42975 l -0.32007,0.3172 -0.91712,0.15174 c 0,0 -0.55305,0.14053 -0.99487,0.48871 -0.44183,0.34817 -0.5621,0.39117 -0.7196,0.80718 -0.1575,0.41601 -0.0424,1.51327 -0.0424,1.51327 0,0 0.0623,0.54233 0.40677,0.81046 0.3444,0.26814 0.67798,0.59874 0.99756,0.75545 0.31958,0.15671 1.28407,0.45305 2.75712,0.27846 1.47305,-0.17458 1.93256,-0.49098 1.93256,-0.49098 l 0.48572,-0.834 0.94939,-0.2741 3.73745,-0.82344 1.6408,-0.005 c 0,0 0.0364,0.26865 0.59067,0.49282 0.55425,0.22418 2.39909,0.7871 2.39909,0.7871 l 3.56118,0.38759 1.53995,0.5736 c 0,0 0.35086,0.17267 1.18498,0.32896 0.83412,0.15628 1.90008,0.1371 1.90008,0.1371 0,0 0.3547,-0.0228 0.66555,-0.24618 0.31085,-0.22339 0.7801,-0.002 0.7801,-0.002 0,0 1.45761,0.47574 2.10327,0.40739 0.64566,-0.0684 1.10229,-0.18236 1.10229,-0.18236 0,0 1.84035,-0.73413 1.88005,-1.32537 0.0397,-0.59124 -0.2454,-1.34721 -0.2454,-1.34721 0,0 -0.17429,-0.77274 0.41531,-0.63306 0.58959,0.13969 1.50984,0.72975 1.50984,0.72975 l 1.36256,0.64369 c 0,0 0.0597,0.29544 0.27844,0.48812 0.21869,0.19271 0.30379,0.39557 1.0734,0.53009 0.7696,0.13452 1.33265,0.0991 1.33265,0.0991 0,0 0.70142,0.0325 1.19605,-0.21197 0.49462,-0.24452 1.00822,-0.82115 1.00822,-0.82115 0,0 0.39251,-0.23745 0.42317,-0.8504 0.0306,-0.61296 -0.0347,-1.08384 -0.34405,-1.48163 -0.30939,-0.39778 -0.46873,-0.69411 -1.1265,-0.90664 -0.65778,-0.21253 -1.11107,-0.25432 -1.40391,-0.17476 -0.29283,0.0796 -0.97783,0.16836 -0.97783,0.16836 l -1.41254,-0.51538 -0.066,-0.25459 -1.88692,-1.09104 -0.0198,-0.39125 3.20532,-0.9131 c 0,0 0.16629,-0.11056 0.0695,-0.64892 -0.0968,-0.53835 -0.92742,-1.7596 -0.92742,-1.7596 l -3.92677,-1.96777 -0.49152,0.59745 -2.93291,1.94849 -2.49666,-0.10428 c 0,0 -0.30372,-0.0986 -0.72769,0 -0.42397,0.0986 -1.06761,0.93684 -1.06761,0.93684 l -3.0886,0.0749 c 0,0 -0.85938,-0.85996 -1.23989,-0.95616 -0.3805,-0.0962 -1.44707,-0.96598 -1.44707,-0.96598 l -0.8714,-3.79491 -0.5012,-0.83938 -2.3549,0.45889 z"
           id="path951"
           sodipodi:nodetypes="cccccccscccsscssscccccscccscscccscsccsscscssssccccccccccccsccsccccc" />
        <path
           style="display:inline;fill:#69121b;fill-opacity:1;stroke:none;stroke-width:0.185974px;stroke-linecap:butt;stroke-linejoin:miter;stroke-opacity:1"
           d="m 251.0557,265.25052 0.914,-2.80564 c 0,0 0.11859,-0.24756 0.2125,-0.26245 0.0939,-0.0149 0.22648,0.0388 0.22648,0.0388 0,0 0.24467,0.12589 0.21692,0.24198 -0.0278,0.11609 -0.83466,2.66648 -0.83466,2.66648 l 1.03347,3.14214 c 0,0 0.10016,0.21054 -0.015,0.31461 -0.11515,0.10405 -0.35387,0.16413 -0.42189,0.12535 -0.068,-0.0388 -0.1217,-0.0933 -0.17602,-0.22796 -0.0543,-0.13463 -1.15583,-3.2333 -1.15583,-3.2333 z"
           id="path954"
           sodipodi:nodetypes="ccscsccssscc" />
        <path
           style="display:inline;fill:#00acd7;fill-opacity:1;stroke:none;stroke-width:0.185974px;stroke-linecap:butt;stroke-linejoin:miter;stroke-opacity:1"
           d="m 239.87895,267.31123 c -0.003,0.4161 0.0459,1.58239 0.0459,1.58239 0,0 0.0588,0.58355 0.57954,0.86198 0.52078,0.27843 1.16789,0.35085 1.16789,0.35085 0,0 0.64145,0.13178 3.42231,-0.15872 2.78087,-0.29051 4.18841,-0.44204 4.18841,-0.44204 0.31176,-0.0273 0.99986,-0.18828 1.25063,-0.24369 0.37247,-0.0693 1.20939,-0.40732 1.20939,-0.40732 0,0 -0.13657,-0.56439 -0.0911,-0.89374 0.0454,-0.32934 0.0727,-0.57098 0.31333,-0.78767 0.2406,-0.2167 2.43498,-1.31425 2.43498,-1.31425 0.025,-0.0665 0.0284,-0.55775 -0.17202,-0.8805 -0.20038,-0.32274 -0.41869,-0.43809 -0.60261,-0.51486 -0.16682,-0.1022 -3.64997,-0.1635 -3.80062,-0.1814 -0.18031,-0.0214 -0.2954,0.0349 -0.6002,-0.28902 -0.14334,-0.15235 -0.221,-0.37905 -0.22022,-0.48421 l -0.01,-0.33663 c 0,0 0.0158,-0.31708 0.23022,-0.38509 0.21441,-0.068 1.66673,-0.44205 1.84626,-0.54093 0.11489,-0.0633 0.40582,-0.39596 0.64936,-0.51895 0.19652,-0.14341 1.71824,-0.11432 1.71824,-0.11432 l 0.0477,-0.54204 c 0,0 0.0401,-0.19245 -0.11111,-0.36836 -0.1512,-0.17591 -0.13908,-0.17991 -0.34551,-0.23365 -0.20643,-0.0538 -0.50892,-0.0892 -1.12492,0.08 -0.61599,0.16927 -3.23614,0.89685 -3.47913,0.99787 -0.24299,0.10104 -3.31864,1.51112 -4.02535,1.96839 -0.70672,0.45727 -2.15721,1.30877 -2.51754,1.54698 -0.36032,0.23819 -1.14387,0.85801 -1.34152,1.03874 -0.20936,0.19142 -0.56415,0.65232 -0.61376,0.82856 -0.0496,0.17624 -0.0486,0.3816 -0.0486,0.3816 z"
           id="path959"
           sodipodi:nodetypes="ccscscccsscscsscccscccscsssssscc" />
        <path
           style="display:inline;fill:#69121b;fill-opacity:1;stroke:none;stroke-width:0.185974px;stroke-linecap:butt;stroke-linejoin:miter;stroke-opacity:1"
           d="m 254.85374,268.35169 0.86181,2.94294 1.04867,0.006 0.36274,1.51692 0.42459,0.71812 2.72447,0.19941 1.12982,-0.42614 0.57937,-0.54977 1.88239,-1.31538 0.72476,-0.74097 0.69941,-1.04164 0.2368,-0.80705 0.54359,-0.83698 0.38844,-0.3665 0.0394,-1.06651 -0.72051,-1.68241 -1.12407,0.29892 -1.13589,-0.0141 -1.63504,-0.32635 -2.34581,2.44649 -0.20415,1.10933 -0.67032,-0.004 -0.44511,-0.41385 -1.52466,-0.004 -0.18111,0.97358 -0.84648,-0.004 -0.2277,-0.64299 z"
           id="path962"
           sodipodi:nodetypes="cccccccccccccccccccccccccccc" />
      </g>
    </a>
    <g
       id="g3682"
       transform="matrix(1.6156662,0,0,1.6156662,-342.37999,-62.844426)">
      <g
         aria-label="GO"
         transform="matrix(1.1962246,0,0,1.1962246,169.08105,-248.34078)"
         id="text1974-8"
         style="font-size:14.1111px;line-height:1.25;font-family:sans-serif;white-space:pre;shape-inside:url(#rect1976-4);display:inline;fill:#333333;fill-opacity:1">
        <path
           d="m 90.910503,311.54407 c 0,0 -0.9906,-1.27 -2.9464,-1.27 -3.8227,0 -4.9911,2.3495 -5.4356,4.826 -0.4953,2.8575 0.9779,4.572 3.8989,4.572 1.143,0 2.54,-0.381 3.5941,-0.9525 l 0.7747,-4.3815 -3.8862,-0.254 -0.5842,2.2225 1.5113,0.0635 -0.1524,0.8255 c -0.3302,0.1143 -0.5969,0.1905 -0.9779,0.1905 -1.016,0 -1.524,-0.762 -1.2573,-2.286 0.3683,-2.032 1.0795,-2.4765 1.9685,-2.4765 1.0795,0 1.5875,0.6985 1.5875,0.6985 z"
           style="font-style:normal;font-variant:normal;font-weight:normal;font-stretch:normal;font-size:12.7px;font-family:Souses;-inkscape-font-specification:Souses;fill:#333333;fill-opacity:1"
           id="path5568" />
        <path
           d="m 91.469288,314.84607 c -0.4953,2.794 0.8636,4.826 3.4671,4.826 3.2385,0 4.7244,-2.286 5.118102,-4.572 0.4064,-2.286 -0.355602,-4.826 -3.467102,-4.826 -2.8575,0 -4.6228,1.778 -5.1181,4.572 z m 4.7244,-2.286 c 1.2065,0 1.1938,1.4605 1.0033,2.54 -0.1905,1.0795 -0.5207,2.286 -1.8542,2.286 -1.2065,0 -1.2319,-1.3335 -1.016,-2.54 0.1905,-1.0795 0.5334,-2.286 1.8669,-2.286 z"
           style="font-style:normal;font-variant:normal;font-weight:normal;font-stretch:normal;font-size:12.7px;font-family:Souses;-inkscape-font-specification:Souses;fill:#333333;fill-opacity:1"
           id="path5570" />
      </g>
      <g
         aria-label="語"
         transform="translate(154.57582,-195.4969)"
         id="text1329-1"
         style="font-style:normal;font-variant:normal;font-weight:normal;font-stretch:normal;font-size:19.7556px;line-height:1.25;font-family:aoyagireisyo2;-inkscape-font-specification:aoyagireisyo2;white-space:pre;shape-inside:url(#rect1331-6);display:inline;fill:#d2232a;fill-opacity:1">
        <path
           d="m 128.69237,331.37263 c 0,-0.0593 0.0395,-0.13829 0.11854,-0.21731 0.079,-0.079 0.1778,-0.11854 0.27658,-0.11854 0.0988,0 0.19755,-0.0395 0.27657,-0.11853 0.079,-0.079 0.15805,-0.11853 0.23707,-0.11853 0,-0.29634 0.0395,-0.57292 0.11853,-0.86925 0.0593,-0.27658 0.11854,-0.5334 0.15805,-0.80998 0.0197,-0.27658 0.079,-0.5334 0.15804,-0.80998 0.079,-0.27658 0.23707,-0.51364 0.47414,-0.77047 l -0.3556,-1.14582 c -0.23707,-0.15805 -0.49389,-0.27658 -0.79023,-0.3556 -0.29633,-0.079 -0.59266,-0.13829 -0.889,-0.1778 -0.29633,-0.0198 -0.61242,-0.0395 -0.90876,-0.0395 -0.29633,0 -0.61242,-0.0395 -0.92851,-0.11854 l -2.15336,0.45438 -0.33584,0.94827 c 0,0.13829 0,0.31609 0,0.51365 0,0.19755 0.0593,0.37535 0.1778,0.51364 0.0988,0.15805 0.1778,0.31609 0.21731,0.47414 0.0395,0.15804 0.0988,0.29633 0.19755,0.47413 l -0.13829,1.14582 v 0.67169 l 0.25683,0.13829 1.56069,-0.45437 h 0.21731 v 0.21731 l 0.69145,-0.11854 1.12607,0.11854 z m -9.1666,-0.57291 0.43463,-0.11854 v -0.19755 h 0.23707 l 0.57291,-1.87678 0.43462,-0.47414 c 0,-0.13829 0,-0.31609 0,-0.51364 0,-0.19756 -0.0395,-0.37536 -0.0988,-0.53341 -0.079,-0.15804 -0.15804,-0.31609 -0.23706,-0.47413 -0.0593,-0.13829 -0.1778,-0.27658 -0.33585,-0.45438 l -2.60774,0.3556 h -1.46191 v -0.47413 l 1.12607,-0.21731 h -0.23707 v -0.47414 l 1.02729,-0.21731 h 0.57291 v 0.21731 l 0.79023,0.3556 h 0.33584 l 0.11854,-0.47413 0.45437,-0.3556 h 0.55316 l 0.25682,0.3556 h 0.19756 l 0.33584,1.04704 c 0.37536,-0.079 0.69145,-0.21731 0.96803,-0.41486 0.25682,-0.19756 0.55316,-0.31609 0.90876,-0.39512 0.33584,-0.079 0.7112,-0.15804 1.08655,-0.23706 0.37536,-0.0593 0.71121,-0.13829 0.98778,-0.21731 v -0.25683 l 2.6275,-0.0988 3.06212,0.69144 c 0.13829,0 0.31609,0 0.51364,0 0.1778,0 0.31609,-0.0197 0.45438,-0.0593 0.11854,-0.0395 0.23707,-0.11853 0.3556,-0.23706 0.0988,-0.11854 0.25683,-0.13829 0.49389,-0.0395 v -0.3556 h 0.11854 v -0.47414 c -0.39512,-0.079 -0.79023,-0.11853 -1.2051,-0.11853 -0.41486,0 -0.82973,-0.0395 -1.18533,-0.11854 -0.39511,-0.0593 -0.77047,-0.11853 -1.18534,-0.15804 -0.39511,-0.0395 -0.77047,-0.13829 -1.0668,-0.29634 l 0.19756,-0.80997 0.69144,-0.35561 c 0,-0.079 0,-0.19755 0,-0.3556 0,-0.13829 -0.0198,-0.25682 -0.0395,-0.3556 -0.0395,-0.079 -0.11853,-0.15804 -0.21731,-0.21731 -0.11853,-0.079 -0.13829,-0.19755 -0.079,-0.33584 -0.15805,-0.1778 -0.33585,-0.29634 -0.49389,-0.37536 -0.19756,-0.079 -0.41487,-0.11853 -0.63218,-0.15805 -0.21731,-0.0395 -0.43463,-0.079 -0.61243,-0.11853 -0.19755,-0.0197 -0.39511,-0.0395 -0.63217,-0.0395 l 0.21731,-1.30387 1.69898,-0.0988 -0.0988,-0.7112 h -0.23707 V 317.682 l -0.23706,-0.11854 -4.06966,0.35561 -0.31609,0.45437 v 0.49389 h 0.19756 l 0.33584,0.90876 0.92852,-0.3556 h 0.31609 l 0.23706,0.3556 h 0.23707 l 0.0988,0.33585 v 0.25682 l -2.35092,0.31609 -0.47413,0.80998 0.11853,0.94827 1.69898,-0.45438 h 0.33585 c 0,0.13829 0,0.25682 0,0.37536 0,0.13828 -0.0593,0.23706 -0.15805,0.29633 -0.11853,0.079 -0.21731,0.1778 -0.29633,0.29633 -0.079,0.11854 -0.15804,0.21732 -0.23707,0.29634 -0.11853,0.25682 -0.33584,0.43462 -0.59267,0.5334 -0.27657,0.11853 -0.5334,0.1778 -0.80997,0.21731 -0.27658,0.0395 -0.53341,0.0593 -0.79023,0.0593 -0.27658,0 -0.51364,0.079 -0.73096,0.25682 -0.23706,-0.0988 -0.43462,-0.1778 -0.57291,-0.25682 -0.15804,-0.079 -0.33584,-0.13829 -0.51364,-0.15805 -0.19756,-0.0395 -0.39512,-0.0593 -0.61243,-0.0593 -0.23706,0 -0.45438,0 -0.69144,0 v -0.21732 l -0.47414,0.0988 h -0.31609 l 0.11854,-0.3556 0.79022,-0.33584 0.90876,0.21731 0.31609,-0.11854 v -0.57291 c -0.0593,-0.25682 -0.21731,-0.37535 -0.43463,-0.41487 -0.23706,-0.0395 -0.47413,-0.0593 -0.67169,-0.0593 -0.23706,0 -0.49389,0 -0.75071,0 -0.25682,0 -0.47413,-0.0395 -0.63218,-0.0988 -0.37535,-0.079 -0.75071,-0.0593 -1.0668,0.0395 -0.33585,0.11853 -0.67169,0.21731 -0.96803,0.27658 -0.31608,0.0988 -0.65193,0.1778 -0.96802,0.25682 -0.33584,0.079 -0.65193,0.19756 -0.96802,0.3556 v 1.50143 l 0.45437,-0.23707 h 0.23707 l -0.31609,0.69145 0.079,1.04704 h 0.23707 v 0.71121 h 0.3556 l -0.3556,0.90875 v 0.59267 h 0.3556 l 0.0988,0.47414 h 0.21731 l 0.69145,2.07433 1.34338,-0.45438 1.50142,0.35561 z m -0.57291,-1.50143 -1.02729,0.11853 -0.90876,-0.33584 v -1.16558 l 2.15336,-0.23707 h 0.3556 l -0.25682,1.26436 -0.31609,0.13829 z m 9.85805,-0.11853 -0.57292,-0.0988 -0.3556,0.0988 h -2.1336 l -0.33585,-0.45438 c 0,-0.15805 0.0198,-0.31609 0.0593,-0.47414 0.0395,-0.15804 0.0988,-0.27657 0.1778,-0.39511 0.0593,-0.11853 0.0988,-0.25682 0.13829,-0.41487 0.0395,-0.15804 0.13829,-0.25682 0.29633,-0.33584 h 0.45438 v 0.33584 l 1.00754,-0.11853 0.11853,-0.69144 0.3556,-0.11854 c 0.15805,0 0.25683,0.0198 0.33585,0.0593 0.0593,0.0395 0.15804,0.0593 0.27658,0.0593 0.11853,0 0.21731,0.0593 0.29633,0.1778 0.0593,0.11853 0.11853,0.21731 0.19756,0.29633 0,0.13829 0,0.29633 0,0.45438 0,0.15804 -0.0198,0.31609 -0.0593,0.45438 -0.0198,0.13829 -0.0593,0.29633 -0.079,0.45438 -0.0395,0.1778 -0.0988,0.29633 -0.1778,0.37535 z m -10.52974,-5.23524 -2.19287,0.37536 h -0.67169 l 0.13829,-0.37536 1.58045,-0.69144 1.14582,0.23706 z m 8.83076,-0.80998 -0.11854,0.11854 h -0.3556 l 0.3556,-1.61996 0.45438,-0.13829 0.69145,0.25682 -0.47414,1.02729 z m -12.58432,-0.57291 c 0.0593,0 0.13829,0 0.23707,0 0.079,0 0.11853,-0.0395 0.11853,-0.11853 0,-0.079 0,-0.13829 0,-0.19756 0,-0.0197 0,-0.079 0,-0.15804 l 0.5334,-0.0988 0.13829,-0.3556 c 0.29633,0 0.55316,-0.0593 0.79022,-0.19756 0.21731,-0.0988 0.47414,-0.15804 0.79023,-0.15804 0.31609,0 0.61242,0 0.90875,0 0.29634,0 0.55316,-0.079 0.79023,-0.21731 l 2.15336,0.11853 0.57291,-0.11853 v -1.28412 c -0.23707,-0.0593 -0.51364,-0.0988 -0.79022,-0.0988 -0.31609,0 -0.61243,0 -0.84949,0 -0.25683,0 -0.55316,0 -0.84949,0 -0.31609,0 -0.59267,-0.079 -0.79023,-0.25682 -0.39511,0 -0.75071,0.0395 -1.08656,0.11853 -0.3556,0.0988 -0.69144,0.15805 -1.02729,0.17781 -0.31609,0.0395 -0.65193,0.11853 -0.96802,0.27657 -0.29634,0.1778 -0.63218,0.29634 -0.98778,0.37536 l -0.3556,0.43462 0.21731,1.06681 h 0.33584 l 0.11854,0.45437 z m 2.03482,-3.83258 c 0.29634,0 0.61243,0 0.92852,0 0.27658,0 0.59267,-0.0395 0.889,-0.11854 0.29633,-0.079 0.63218,-0.11853 0.96802,-0.11853 0.33585,0 0.65194,0 0.94827,0 l 0.11854,-0.45438 -0.21731,-0.92851 -0.45438,-0.11854 v -0.25682 l -1.36314,-0.23707 -1.81752,0.23707 v 0.25682 l -0.57291,0.23707 -0.11853,0.19756 0.11853,0.7112 h 0.23707 z"
           style="font-style:normal;font-variant:normal;font-weight:normal;font-stretch:normal;font-size:19.7556px;font-family:aoyagireisyo2;-inkscape-font-specification:aoyagireisyo2"
           id="path5565" />
      </g>
    </g>
    <g
       id="g3697"
       transform="matrix(0.95225287,0,0,0.95225287,-35.535162,-26.008468)">
      <g
         id="g2678"
         transform="matrix(0.04804501,0,0,0.04804501,151.46067,114.99272)"
         style="display:inline;fill:#333333;fill-opacity:1">
        <g
           id="g2653"
           style="fill:#333333;fill-opacity:1">
          <path
             class="st0"
             d="m 241.8,69.6 h 111.7 c 1.9,0 3.3,1.7 3,3.5 l -4.7,27.9 c -0.2,1.4 -1.5,2.5 -3,2.5 h -71 c -1.5,0 -2.7,1.1 -3,2.5 l -4.8,29.4 c -0.3,1.8 1.1,3.5 3,3.5 h 61.5 c 1.9,0 3.3,1.7 3,3.5 l -4.7,28 c -0.2,1.4 -1.5,2.5 -3,2.5 h -63.5 c -1.5,0 -2.7,1.1 -3,2.5 l -10.6,64.3 c -0.2,1.4 -1.5,2.5 -3,2.5 h -35.6 c -1.9,0 -3.3,-1.7 -3,-3.5 L 238.8,72 c 0.3,-1.4 1.5,-2.4 3,-2.4 z"
             id="path2643"
             style="fill:#333333;fill-opacity:1" />
          <path
             class="st0"
             d="m 361.5,112.7 h 35.1 c 1.9,0 3.3,1.7 3,3.5 l -20.5,123.5 c -0.2,1.4 -1.5,2.5 -3,2.5 H 341 c -1.9,0 -3.3,-1.7 -3,-3.5 l 20.5,-123.5 c 0.3,-1.4 1.6,-2.5 3,-2.5 z M 364,77.8 c 1.7,-10.8 12.4,-19.6 24,-19.6 11.6,0 19.9,8.8 18.4,19.6 -1.5,10.8 -12.2,19.7 -23.9,19.7 -11.7,0 -20.1,-8.9 -18.5,-19.7 z"
             id="path2645"
             style="fill:#333333;fill-opacity:1" />
          <path
             class="st0"
             d="m 424.2,69.6 h 35.1 c 1.9,0 3.3,1.7 3,3.5 l -10.1,61.8 h 0.9 c 6.7,-11.9 20.1,-23.8 40.6,-23.8 27.1,0 48,20.8 40.4,66.5 -7.3,44.1 -34.2,66.5 -62.9,66.5 -19.1,0 -28.9,-10.4 -32.2,-22.1 -0.1,-0.4 -0.5,-0.7 -1,-0.7 v 0 c -0.5,0 -0.9,0.4 -1,0.8 l -2.8,17.6 c -0.2,1.5 -1.5,2.5 -3,2.5 h -34.7 c -1.9,0 -3.3,-1.7 -3,-3.5 L 421.1,72.1 c 0.3,-1.5 1.6,-2.5 3.1,-2.5 z M 462.3,212 c 15.2,0 26,-13.6 29.3,-34.5 3.3,-20.9 -2.7,-34.2 -18,-34.2 -15.1,0 -26.1,13.1 -29.5,34.2 -3.4,21 3.1,34.5 18.2,34.5 z"
             id="path2647"
             style="fill:#333333;fill-opacity:1" />
          <path
             class="st0"
             d="m 538.8,178 c 6.7,-40.1 36.3,-66.9 75.3,-66.9 36.8,0 58.7,23.5 51.6,66.1 l -1.4,8.7 c -0.1,0.9 -0.9,1.5 -1.8,1.5 h -83.1 c -0.9,0 -1.7,0.6 -1.8,1.5 v 0 c -2.6,16.4 5.1,26 21.2,26 10.3,0 19.3,-4.2 24.2,-12.3 0.3,-0.6 1,-0.9 1.6,-0.9 l 33.9,1 c 1.3,0 2.1,1.3 1.6,2.5 -9.9,24.1 -34,39.4 -67.1,39.4 -40.5,0.1 -61.2,-25.2 -54.2,-66.6 z M 628,163.5 c 0.9,0 1.7,-0.7 1.8,-1.7 1.2,-12.4 -6.6,-21 -19.5,-21 -12.5,0 -23.6,8.7 -27.4,20.3 -0.4,1.2 0.5,2.4 1.8,2.4 H 628 Z"
             id="path2649"
             style="fill:#333333;fill-opacity:1" />
          <path
             class="st0"
             d="m 688.3,112.7 h 33.9 c 1.9,0 3.3,1.7 3,3.5 l -3.4,20.1 h 1.3 c 7.7,-17.1 20.4,-25.3 34.5,-25.3 2.8,0 5.6,0.3 8.4,0.8 1.6,0.3 2.7,1.8 2.4,3.5 l -5,29.8 c -0.3,1.7 -1.9,2.8 -3.6,2.4 -3.8,-0.9 -8.9,-1.3 -12.9,-1.3 -14.6,0 -27.2,10.4 -29.9,25.8 l -11.2,67.8 c -0.2,1.4 -1.5,2.5 -3,2.5 h -35.1 c -1.9,0 -3.3,-1.7 -3,-3.5 l 20.6,-123.5 c 0.3,-1.5 1.6,-2.6 3,-2.6 z"
             id="path2651"
             style="fill:#333333;fill-opacity:1" />
        </g>
        <path
           class="st1"
           d="M 210.2,115.4 H 80.8 c -1,0 -1.9,0.5 -2.5,1.3 l -6.5,9.3 c -1.4,2 0,4.7 2.5,4.7 l 134.4,-0.1 c 1.5,0 2.7,-1.1 3,-2.5 l 1.5,-9.2 c 0.3,-1.8 -1.1,-3.5 -3,-3.5 z"
           id="path2655"
           style="fill:#333333;fill-opacity:1" />
        <path
           class="st1"
           d="m 205.5,147.1 h -169 c -1,0 -1.9,0.5 -2.4,1.2 l -6.7,9.2 c -1.4,2 0,4.8 2.4,4.8 L 204,162.2 c 1.5,0 2.7,-1.1 3,-2.5 l 1.5,-9.1 c 0.2,-1.9 -1.2,-3.5 -3,-3.5 z"
           id="path2657"
           style="fill:#333333;fill-opacity:1" />
        <path
           class="st1"
           d="m 200.7,178.7 h -69.2 c -1,0 -2,0.5 -2.5,1.4 l -6.1,9.3 c -1.3,2 0.1,4.6 2.5,4.6 l 73.8,-0.1 c 1.5,0 2.7,-1.1 3,-2.5 l 1.5,-9.2 c 0.3,-1.8 -1.1,-3.5 -3,-3.5 z"
           id="path2659"
           style="fill:#333333;fill-opacity:1" />
      </g>
      <g
         aria-label="ファイバ"
         transform="translate(85.077217,-211.69967)"
         id="text1485"
         style="font-size:14.1111px;line-height:1.25;font-family:sans-serif;letter-spacing:-7.9375px;white-space:pre;shape-inside:url(#rect1487);display:inline;fill:#d2232a;fill-opacity:1">
        <path
           d="m 77.602339,338.70442 0.381,-0.18344 h 0.155222 v 0.18344 l 0.733777,-0.28222 v -0.0847 l 0.183445,-0.23989 0.352777,-0.0847 0.09878,-0.26811 0.804333,-0.43745 c 0.183444,-0.46567 0.380999,-0.90311 0.592666,-1.32644 0.197555,-0.39511 0.395111,-0.81845 0.578555,-1.27 0.183444,-0.42333 0.352778,-0.86078 0.536222,-1.29822 0.183444,-0.45156 0.437444,-0.84667 0.804333,-1.18533 l 0.366888,-0.26812 -0.183444,-0.79022 c -0.127,-0.0564 -0.254,-0.14111 -0.409222,-0.26811 -0.155222,-0.11289 -0.296333,-0.18344 -0.437444,-0.22578 -0.155222,-0.0282 -0.310444,-0.0564 -0.465666,-0.0847 -0.141111,-0.0282 -0.310445,-0.0564 -0.493889,-0.127 -0.479777,0 -0.945444,0 -1.425221,0 -0.479778,0 -0.959555,0.0141 -1.439332,0.0423 -0.479778,0.0282 -0.931333,0.0847 -1.354666,0.16933 -0.423333,0.0988 -0.860777,0.16934 -1.340554,0.23989 l -0.169334,0.52211 0.268111,0.87489 c 0.282222,-0.0564 0.592666,-0.127 0.889,-0.22578 0.296333,-0.0847 0.606777,-0.15522 0.931332,-0.22577 0.338667,-0.0565 0.663222,-0.11289 1.001888,-0.16934 0.324556,-0.0564 0.649111,-0.11289 0.945444,-0.16933 v -0.0847 l 0.536222,-0.0988 1.072443,0.26811 0.08467,0.45155 c -0.05644,0.45156 -0.141111,0.90311 -0.296333,1.35467 -0.155222,0.43744 -0.324555,0.87489 -0.493889,1.29822 -0.183444,0.45155 -0.437444,0.86078 -0.719666,1.22766 -0.310444,0.39512 -0.634999,0.762 -1.001888,1.10067 -0.112889,0.11289 -0.211666,0.21167 -0.310444,0.31044 -0.09878,0.0988 -0.197555,0.19756 -0.310444,0.29634 -0.127,0.127 -0.225778,0.22578 -0.324556,0.31044 -0.09878,0.0988 -0.211666,0.14111 -0.39511,0.14111 v 0.32456 h 0.183444 z m 0.733778,-0.28222 -0.09878,0.0988 -0.09878,-0.0988 0.09878,-0.0847 z m -0.889,-0.15522 -0.09878,0.0706 -0.09878,-0.0706 0.09878,-0.0988 z m 0.437444,-0.16934 -0.08467,0.0706 -0.09878,-0.0706 0.09878,-0.0847 z m 0.09878,-0.0847 -0.09878,0.0847 -0.08467,-0.0847 0.08467,-0.0988 z"
           style="font-style:normal;font-variant:normal;font-weight:normal;font-stretch:normal;font-size:14.1111px;font-family:aoyagireisyo2;-inkscape-font-specification:aoyagireisyo2;fill:#d2232a;fill-opacity:1"
           id="path5514" />
        <path
           d="m 84.622579,339.48053 0.155222,-0.15522 h 0.141111 v 0.0282 l 0.451555,-2.413 -0.04233,-0.53622 v -0.16933 l 0.296333,0.0423 v 0.0847 h 0.09878 v 0.15522 l 0.197555,-0.0423 0.155222,-0.11289 v -0.0847 h 0.09878 l 0.141111,-0.127 0.310444,-0.45155 h 0.09878 v -0.0847 l 0.296333,-0.254 0.197555,-0.32456 h 0.09878 v -0.0847 l 0.310444,-0.127 0.09878,-0.11289 h 0.112889 l -0.07056,-0.32456 -0.451555,-0.22577 v -0.0847 l -0.09878,-0.0282 c -0.437444,0.0141 -0.860777,0.0423 -1.28411,0.0564 -0.451555,0.0141 -0.874888,0.0564 -1.28411,0.127 -0.423333,0.0706 -0.832555,0.127 -1.227666,0.19756 -0.39511,0.0705 -0.832554,0.127 -1.255887,0.16933 l -0.197556,0.39511 0.08467,0.40922 0.155222,0.0847 c 0.141111,-0.0282 0.296333,-0.0565 0.437444,-0.0847 0.155222,-0.0282 0.296333,-0.0423 0.451555,-0.0423 0.141111,0 0.282222,-0.0282 0.423333,-0.0988 0.127,-0.0564 0.254,-0.0988 0.395111,-0.14111 l 0.155222,-0.16933 h 0.155222 v 0.0423 h 0.04233 v -0.0847 h 0.254 v -0.0423 h 0.04233 v -0.0423 l 0.761999,-0.0847 v -0.0282 l 0.493888,-0.0564 0.296334,0.0847 h 0.09878 l -0.141111,-0.0282 v -0.0847 l 0.197556,-0.0282 h 0.09878 c 0.04233,0.0847 0.02822,0.18344 -0.01411,0.28222 -0.05644,0.0988 -0.112889,0.19756 -0.183444,0.28222 -0.07056,0.0706 -0.127,0.14111 -0.197555,0.21167 -0.07056,0.0706 -0.112889,0.16933 -0.155223,0.28222 h -0.09878 v 0.0847 h -0.09878 l -0.141111,0.15522 h -0.112889 l -0.04233,-0.36689 -0.211667,-0.127 v -0.0847 l -0.296333,-0.14111 h -0.197555 l -0.155222,0.31044 0.254,0.94544 c 0,0.254 0,0.508 0,0.74789 0,0.254 -0.01411,0.47978 -0.02822,0.71967 -0.01411,0.23989 -0.04233,0.46566 -0.07055,0.70555 -0.04233,0.22578 -0.127,0.43745 -0.254,0.635 v 0.19756 l 0.155222,-0.11289 h 0.141111 l -0.04233,0.11289 z m 0.860777,-3.33022 -0.05644,0.0423 -0.05644,-0.0423 0.05644,-0.0423 h 0.05644 z m -0.268111,-1.524 -0.04233,0.0282 -0.05644,-0.0282 0.05644,-0.0282 z m 0.211667,0 -0.05644,0.0282 -0.04233,-0.0282 0.04233,-0.0282 z m 0.493888,-0.0282 -0.04233,0.0282 -0.05644,-0.0282 0.05644,-0.0564 z m 0.112889,0 -0.05644,0.0282 -0.05644,-0.0282 0.05644,-0.0564 h 0.05644 z m 0.08467,0 -0.04233,0.0282 -0.04233,-0.0282 0.04233,-0.0564 z m 0.05644,-0.0564 -0.05644,0.0564 -0.04233,-0.0564 0.04233,-0.0423 z m 0.254,0 -0.05644,0.0564 h -0.09878 v -0.0988 z"
           style="font-style:normal;font-variant:normal;font-weight:normal;font-stretch:normal;font-size:14.1111px;font-family:aoyagireisyo2;-inkscape-font-specification:aoyagireisyo2;fill:#d2232a;fill-opacity:1"
           id="path5516" />
        <path
           d="m 93.237373,339.55109 0.324555,-0.0847 -0.155222,-1.905 c 0,-0.254 0,-0.52211 0,-0.77611 0,-0.26811 0,-0.52211 0,-0.81844 0,-0.28223 0.01411,-0.55034 0.02822,-0.80434 0.02822,-0.26811 0.09878,-0.49388 0.211667,-0.69144 0,-0.15522 -0.02822,-0.32456 -0.08467,-0.46567 -0.05644,-0.15522 -0.09878,-0.29633 -0.127,-0.43744 -0.01411,-0.11289 -0.01411,-0.28222 0,-0.46567 0.02822,-0.18344 -0.02822,-0.31044 -0.197555,-0.40922 l 0.90311,-1.00189 0.268111,-0.46566 h 0.169333 l 0.663222,-0.84667 -0.169333,-0.55033 -0.931333,-0.47978 h -0.239888 c -0.05644,0.11289 -0.141111,0.22578 -0.254,0.32456 -0.112889,0.0988 -0.183445,0.21166 -0.211667,0.29633 -0.01411,0.0988 -0.04233,0.22578 -0.07055,0.35278 -0.02822,0.14111 -0.04233,0.28222 -0.04233,0.43744 -0.352777,0.35278 -0.634999,0.73378 -0.888999,1.11478 -0.239889,0.39511 -0.536222,0.762 -0.860777,1.11477 -0.338666,0.381 -0.649111,0.73378 -0.973666,1.08656 -0.310444,0.36689 -0.691444,0.69144 -1.128888,1.016 l -0.08467,0.14111 -1.241776,0.55033 0.08467,0.53622 h 0.169333 l 0.08467,0.22578 0.987777,-0.14111 v -0.0847 h 0.08467 l 0.338666,-0.31044 c 0.09878,-0.0988 0.211667,-0.22578 0.324555,-0.381 0.112889,-0.15522 0.197556,-0.31044 0.268111,-0.42333 0.04233,-0.127 0.09878,-0.28222 0.169333,-0.43745 0.05644,-0.14111 0.112889,-0.29633 0.169334,-0.45155 l 0.578555,-0.29634 v -0.23988 l 0.747888,-0.39511 h 0.239889 c 0,0.19755 0.04233,0.40922 0.127,0.62088 0.08467,0.19756 0.127,0.40923 0.127,0.62089 0,0.19756 0,0.42334 0,0.64911 0,0.23989 0.02822,0.45156 0.08467,0.64911 l -0.08467,1.70745 c 0,0.15522 0,0.32455 0,0.508 0,0.16933 0,0.35277 0,0.53622 0,0.16933 0.02822,0.32455 0.08467,0.46566 0.05645,0.127 0.127,0.254 0.254,0.40923 l 0.254,0.0706 z"
           style="font-style:normal;font-variant:normal;font-weight:normal;font-stretch:normal;font-size:14.1111px;font-family:aoyagireisyo2;-inkscape-font-specification:aoyagireisyo2;fill:#d2232a;fill-opacity:1"
           id="path5518" />
        <path
           d="m 94.147507,337.81542 0.254,-0.0847 0.338666,0.0847 0.691444,-0.0847 0.07055,-0.18344 0.522111,-0.19756 1.100666,-2.38477 -0.08467,-1.905 -1.015999,-0.47978 h -0.522111 v 0.19756 l -0.338666,0.18344 0.268111,0.762 c 0,0.381 -0.04233,0.762 -0.127,1.10067 -0.09878,0.35278 -0.183444,0.70555 -0.268111,1.04422 -0.08467,0.35278 -0.197555,0.67733 -0.366888,1.00189 -0.183445,0.31044 -0.352778,0.635 -0.522111,0.94544 z m 1.876776,-0.66322 -0.08467,0.28222 h -0.183445 l 0.183445,-0.36689 z m 6.702777,-0.28222 0.42333,-0.19756 0.0847,-0.26811 c 0.0564,-0.19755 0.0564,-0.36689 0,-0.49389 -0.0564,-0.11289 -0.11289,-0.26811 -0.19756,-0.42333 -0.0988,-0.15522 -0.19756,-0.29633 -0.31044,-0.42333 -0.11289,-0.127 -0.16934,-0.254 -0.16934,-0.381 l -0.67733,-0.381 v -0.19756 l -0.762,-0.47978 v -0.28222 l -0.33867,-0.28222 -0.33866,0.18344 c 0,0.254 0.0141,0.508 0.0423,0.762 0.0282,0.254 0.0988,0.47978 0.21167,0.66323 0.0988,0.19755 0.21166,0.40922 0.33866,0.62088 0.11289,0.22578 0.22578,0.43745 0.32456,0.62089 z m -0.33867,-4.67078 0.254,-0.0988 c 0,-0.127 -0.0141,-0.254 -0.0423,-0.381 -0.0282,-0.11289 -0.0706,-0.23989 -0.15523,-0.33867 -0.0988,-0.0988 -0.18344,-0.19756 -0.26811,-0.28222 -0.0847,-0.0988 -0.18344,-0.19756 -0.29633,-0.32456 l -0.42333,0.0988 0.16933,0.83255 z m 0.69144,-0.86077 0.60678,-0.0988 -0.36689,-0.74789 -0.508,-0.40922 -0.32455,0.11289 0.23989,0.762 h 0.16933 z"
           style="font-style:normal;font-variant:normal;font-weight:normal;font-stretch:normal;font-size:14.1111px;font-family:aoyagireisyo2;-inkscape-font-specification:aoyagireisyo2;fill:#d2232a;fill-opacity:1"
           id="path5520" />
      </g>
    </g>
  </g>
</svg>
