<?xml version="1.0" encoding="UTF-8" standalone="no"?>
<svg
   xmlns:dc="http://purl.org/dc/elements/1.1/"
   xmlns:cc="http://creativecommons.org/ns#"
   xmlns:rdf="http://www.w3.org/1999/02/22-rdf-syntax-ns#"
   xmlns:svg="http://www.w3.org/2000/svg"
   xmlns="http://www.w3.org/2000/svg"
   xmlns:sodipodi="http://sodipodi.sourceforge.net/DTD/sodipodi-0.dtd"
   xmlns:inkscape="http://www.inkscape.org/namespaces/inkscape"
   width="78.206383mm"
   height="78.206383mm"
   viewBox="0 0 78.206383 78.206383"
   version="1.1"
   id="svg1576"
   inkscape:version="1.0.2 (e86c870879, 2021-01-15)"
   sodipodi:docname="python_v2.svg"
   inkscape:export-filename="/home/alex/cv/python_v2.png"
   inkscape:export-xdpi="300"
   inkscape:export-ydpi="300">
  <defs
     id="defs1570">
    <rect
       x="165.2847"
       y="88.295562"
       width="72.666008"
       height="66.221486"
       id="rect1163" />
    <rect
       x="168.50476"
       y="159.28842"
       width="89.928925"
       height="57.035829"
       id="rect2818" />
    <rect
       x="165.2847"
       y="88.295563"
       width="56.641495"
       height="13.642664"
       id="rect1163-2" />
  </defs>
  <sodipodi:namedview
     id="base"
     pagecolor="#ffffff"
     bordercolor="#666666"
     borderopacity="1.0"
     inkscape:pageopacity="0.0"
     inkscape:pageshadow="2"
     inkscape:zoom="1.1797405"
     inkscape:cx="199.57141"
     inkscape:cy="109.29956"
     inkscape:document-units="mm"
     inkscape:current-layer="layer1"
     inkscape:document-rotation="0"
     showgrid="false"
     inkscape:snap-nodes="true"
     inkscape:snap-smooth-nodes="true"
     inkscape:object-paths="true"
     fit-margin-top="0"
     fit-margin-left="0"
     fit-margin-right="0"
     fit-margin-bottom="0"
     inkscape:window-width="1366"
     inkscape:window-height="751"
     inkscape:window-x="0"
     inkscape:window-y="0"
     inkscape:window-maximized="1"
     inkscape:snap-midpoints="true"
     inkscape:snap-intersection-paths="true"
     inkscape:object-nodes="true" />
  <metadata
     id="metadata1573">
    <rdf:RDF>
      <cc:Work
         rdf:about="">
        <dc:format>image/svg+xml</dc:format>
        <dc:type
           rdf:resource="http://purl.org/dc/dcmitype/StillImage" />
        <dc:title />
      </cc:Work>
    </rdf:RDF>
  </metadata>
  <g
     inkscape:groupmode="layer"
     id="layer3"
     inkscape:label="bg"
     transform="translate(-68.140167,-82.329323)">
    <rect
       style="opacity:0.979809;fill:#1a1a1a;fill-opacity:1;stroke:none;stroke-width:0.264999;stroke-linecap:round;stroke-linejoin:round;stroke-dashoffset:37.7953;stroke-opacity:1"
       id="rect2066"
       width="78.206383"
       height="78.206383"
       x="68.140167"
       y="82.329323" />
  </g>
  <g
     inkscape:label="Layer 1"
     inkscape:groupmode="layer"
     id="layer1"
     transform="translate(-68.140167,-82.329323)">
    <text
       xml:space="preserve"
       id="text2816"
       style="font-style:normal;font-variant:normal;font-weight:normal;font-stretch:normal;font-size:8.46667px;line-height:1;font-family:serif;-inkscape-font-specification:serif;text-align:start;white-space:pre;shape-inside:url(#rect2818);opacity:0.979809;fill:#000000;fill-opacity:1;stroke:none;stroke-width:0.265;stroke-linecap:round;stroke-linejoin:round;stroke-dashoffset:10;stroke-opacity:1;" />
    <g
       aria-label="And now for something completely different."
       transform="translate(-94.503653,6.4941135)"
       id="text1161"
       style="font-style:normal;font-variant:normal;font-weight:normal;font-stretch:normal;font-size:7.76111px;line-height:1;font-family:'Linux Biolinum';-inkscape-font-specification:'Linux Biolinum';text-align:center;white-space:pre;shape-inside:url(#rect1163);fill:#fff1e5;fill-opacity:1;stroke:none;stroke-width:1.5;stroke-linecap:round;stroke-linejoin:round;stroke-dashoffset:10;stroke-opacity:1">
      <path
         d="m 184.91169,92.243492 q -0.36001,-0.932243 -0.78445,-1.913751 h -0.0152 l -0.81856,1.909961 q 0.41307,0.02274 0.81098,0.02274 0.37896,0 0.80718,-0.01895 z m -1.76974,0.363802 q -0.47749,1.167198 -0.64423,1.796272 -0.0947,-0.02274 -0.35244,-0.02274 -0.17811,0 -0.26906,0.02274 1.31878,-2.895258 2.28892,-5.131124 h 0.21601 q 0.26527,0.629074 0.75034,1.834168 0.48507,1.201305 0.84508,2.080493 0.36001,0.875399 0.53055,1.216463 -0.13264,-0.02274 -0.46234,-0.02274 -0.25769,0 -0.39032,0.02274 -0.18948,-0.685918 -0.60255,-1.796272 -0.29938,-0.02274 -0.90951,-0.01895 -0.69349,-0.0038 -1.00045,0.01895 z"
         style="font-style:normal;font-variant:normal;font-weight:normal;font-stretch:normal;font-size:7.76111px;font-family:'Linux Biolinum';-inkscape-font-specification:'Linux Biolinum';text-align:center;text-anchor:middle;fill:#fff1e5;fill-opacity:1;stroke:none"
         id="path13683" />
      <path
         d="m 190.20198,92.982465 q 0,0.882977 0.072,1.398364 l -0.0189,0.02274 q -0.14022,-0.02274 -0.36381,-0.02274 -0.22358,0 -0.3638,0.02274 l -0.0152,-0.02274 q 0.0682,-0.519176 0.0682,-1.398364 v -0.757921 q 0,-0.458542 -0.12506,-0.621495 -0.12127,-0.162953 -0.43202,-0.162953 -0.23874,0 -0.5457,0.155373 -0.30696,0.155374 -0.57981,0.48128 v 0.905716 q 0,0.901925 0.0682,1.398364 l -0.0151,0.02274 q -0.14022,-0.02274 -0.36381,-0.02274 -0.22358,0 -0.3638,0.02274 l -0.0152,-0.02274 q 0.0682,-0.473701 0.0682,-1.398364 v -0.424436 q 0,-1.072458 -0.0682,-1.508263 l 0.0152,-0.02274 q 0.34107,0.03032 0.62908,-0.02274 0.0455,0 0.0455,0.07958 v 0.564651 l 0.0152,0.02274 q 0.59876,-0.697287 1.34152,-0.697287 0.5116,0 0.73518,0.303169 0.22738,0.303168 0.22738,0.924663 0,0.125057 -0.008,0.390329 -0.008,0.265273 -0.008,0.39033 z"
         style="font-style:normal;font-variant:normal;font-weight:normal;font-stretch:normal;font-size:7.76111px;font-family:'Linux Biolinum';-inkscape-font-specification:'Linux Biolinum';text-align:center;text-anchor:middle;fill:#fff1e5;fill-opacity:1;stroke:none"
         id="path13685" />
      <path
         d="m 193.61262,93.50543 v -1.769745 q -0.14779,-0.231166 -0.31074,-0.341065 -0.16296,-0.109898 -0.42444,-0.109898 -0.16295,0 -0.31833,0.06063 -0.15537,0.05684 -0.31832,0.19327 -0.16296,0.132636 -0.26149,0.424436 -0.0947,0.291799 -0.0947,0.701077 0,0.689708 0.21601,1.042141 0.21601,0.348644 0.55707,0.348644 0.51918,0 0.95498,-0.549493 z m 0,0.424436 q -0.41306,0.526755 -1.00045,0.526755 -0.6215,0 -1.01562,-0.500228 -0.39032,-0.500228 -0.39032,-1.227832 0,-0.784448 0.49264,-1.269517 0.49644,-0.48507 1.26194,-0.48507 0.34865,0 0.65181,0.170532 v -0.504017 q 0,-1.110354 -0.0682,-1.496894 l 0.0152,-0.02653 q 0.34864,-0.02274 0.67455,-0.155374 0.0682,0 0.072,0.07958 -0.0682,0.86024 -0.072,1.458998 v 2.39124 q 0,0.784448 0.13264,1.489315 l -0.0152,0.02274 q -0.15538,-0.02274 -0.34486,-0.02274 -0.091,0 -0.26906,0.02274 -0.0682,0 -0.0682,-0.02274 l -0.0417,-0.450963 z"
         style="font-style:normal;font-variant:normal;font-weight:normal;font-stretch:normal;font-size:7.76111px;font-family:'Linux Biolinum';-inkscape-font-specification:'Linux Biolinum';text-align:center;text-anchor:middle;fill:#fff1e5;fill-opacity:1;stroke:none"
         id="path13687" />
      <path
         d="m 200.43391,92.982465 q 0,0.882977 0.072,1.398364 l -0.0189,0.02274 q -0.14022,-0.02274 -0.36381,-0.02274 -0.22358,0 -0.3638,0.02274 l -0.0152,-0.02274 q 0.0682,-0.519176 0.0682,-1.398364 v -0.757921 q 0,-0.458542 -0.12506,-0.621495 -0.12127,-0.162953 -0.43201,-0.162953 -0.23875,0 -0.54571,0.155373 -0.30696,0.155374 -0.57981,0.48128 v 0.905716 q 0,0.901925 0.0682,1.398364 l -0.0152,0.02274 q -0.14022,-0.02274 -0.3638,-0.02274 -0.22359,0 -0.36381,0.02274 l -0.0152,-0.02274 q 0.0682,-0.473701 0.0682,-1.398364 v -0.424436 q 0,-1.072458 -0.0682,-1.508263 l 0.0152,-0.02274 q 0.34107,0.03032 0.62908,-0.02274 0.0455,0 0.0455,0.07958 v 0.564651 l 0.0152,0.02274 q 0.59876,-0.697287 1.34152,-0.697287 0.5116,0 0.73518,0.303169 0.22738,0.303168 0.22738,0.924663 0,0.125057 -0.008,0.390329 -0.008,0.265273 -0.008,0.39033 z"
         style="font-style:normal;font-variant:normal;font-weight:normal;font-stretch:normal;font-size:7.76111px;font-family:'Linux Biolinum';-inkscape-font-specification:'Linux Biolinum';text-align:center;text-anchor:middle;fill:#fff1e5;fill-opacity:1;stroke:none"
         id="path13689" />
      <path
         d="m 201.33963,92.789195 q 0,-0.822344 0.45475,-1.318783 0.45854,-0.496438 1.22025,-0.496438 0.77687,0 1.19373,0.469911 0.42064,0.469911 0.42064,1.277097 0,0.776869 -0.44338,1.258148 -0.43959,0.477491 -1.2013,0.477491 -0.75414,0 -1.20131,-0.473701 -0.44338,-0.4737 -0.44338,-1.193725 z m 1.62195,-1.504473 q -0.34107,0 -0.56465,0.208428 -0.2198,0.208428 -0.29938,0.500228 -0.0758,0.291799 -0.0758,0.663181 0,0.348643 0.0758,0.659391 0.0796,0.310747 0.3259,0.57223 0.25012,0.261483 0.62908,0.261483 0.38654,0 0.64044,-0.363802 0.25391,-0.367592 0.25391,-0.924664 0,-0.784448 -0.20464,-1.178567 -0.20464,-0.397908 -0.78066,-0.397908 z"
         style="font-style:normal;font-variant:normal;font-weight:normal;font-stretch:normal;font-size:7.76111px;font-family:'Linux Biolinum';-inkscape-font-specification:'Linux Biolinum';text-align:center;text-anchor:middle;fill:#fff1e5;fill-opacity:1;stroke:none"
         id="path13691" />
      <path
         d="m 206.46317,94.411145 q -0.54191,-1.42868 -1.43626,-3.376537 0.12506,0.02274 0.45097,0.02274 0.28801,0 0.38654,-0.02274 0.0227,0.06821 0.13642,0.432015 0.11369,0.360012 0.1478,0.469911 0.0379,0.109898 0.13642,0.413067 0.0985,0.299378 0.16295,0.469911 0.0644,0.166742 0.15917,0.413066 0.0947,0.242535 0.18569,0.458543 h 0.0493 q 0.24254,-0.515387 0.64424,-1.648478 -0.21601,-0.57602 -0.36381,-1.015614 0.12506,0.02274 0.45097,0.02274 0.28801,0 0.38654,-0.02274 0.35243,1.62574 0.74276,2.652723 h 0.0644 q 0.45855,-1.068669 0.95498,-2.652723 0.0682,0.02274 0.26528,0.02274 0.26527,0 0.33348,-0.02274 -0.46612,1.023193 -1.44384,3.376537 -0.0682,-0.02274 -0.28801,-0.02274 -0.12506,0 -0.20085,0.02274 -0.0872,-0.238745 -0.70107,-1.837958 -0.23117,0.560861 -0.68971,1.845537 -0.0682,-0.02274 -0.28043,-0.02274 -0.17811,0 -0.25391,0.02274 z"
         style="font-style:normal;font-variant:normal;font-weight:normal;font-stretch:normal;font-size:7.76111px;font-family:'Linux Biolinum';-inkscape-font-specification:'Linux Biolinum';text-align:center;text-anchor:middle;fill:#fff1e5;fill-opacity:1;stroke:none"
         id="path13693" />
      <path
         d="m 213.18214,91.049766 v -0.299378 q 0,-0.651812 0.42444,-1.189936 0.216,-0.280431 0.56086,-0.439594 0.34864,-0.159164 0.71244,-0.159164 0.22359,0 0.34865,0.07958 l 0.008,0.02274 q -0.11748,0.231165 -0.21601,0.636653 l -0.0834,0.0076 q -0.1478,-0.272851 -0.45097,-0.272851 -0.33348,0 -0.53054,0.200849 -0.19327,0.197059 -0.19327,0.522965 0,0.05306 0.0189,0.360013 0.0227,0.306958 0.0227,0.462331 v 0.06821 h 0.33348 q 0.21601,0 0.54191,-0.01516 l 0.0379,0.05684 q -0.0606,0.155374 -0.0909,0.318327 -0.15537,-0.01516 -0.56086,-0.01516 h -0.26148 v 1.44005 q 0,1.023193 0.0758,1.546159 l -0.0152,0.02274 q -0.14022,-0.02274 -0.37517,-0.02274 -0.23117,0 -0.37138,0.02274 l -0.0152,-0.02274 q 0.0758,-0.488859 0.0796,-1.546159 v -1.44005 h -0.008 q -0.35622,0 -0.57602,0.01516 l -0.0379,-0.05684 q 0.10989,-0.170533 0.17053,-0.318327 0.11748,0.01516 0.45096,0.01516 z"
         style="font-style:normal;font-variant:normal;font-weight:normal;font-stretch:normal;font-size:7.76111px;font-family:'Linux Biolinum';-inkscape-font-specification:'Linux Biolinum';text-align:center;text-anchor:middle;fill:#fff1e5;fill-opacity:1;stroke:none"
         id="path13695" />
      <path
         d="m 215.14516,92.789195 q 0,-0.822344 0.45475,-1.318783 0.45854,-0.496438 1.22025,-0.496438 0.77687,0 1.19373,0.469911 0.42064,0.469911 0.42064,1.277097 0,0.776869 -0.44338,1.258148 -0.4396,0.477491 -1.20131,0.477491 -0.75413,0 -1.2013,-0.473701 -0.44338,-0.4737 -0.44338,-1.193725 z m 1.62195,-1.504473 q -0.34107,0 -0.56465,0.208428 -0.2198,0.208428 -0.29938,0.500228 -0.0758,0.291799 -0.0758,0.663181 0,0.348643 0.0758,0.659391 0.0796,0.310747 0.3259,0.57223 0.25012,0.261483 0.62908,0.261483 0.38654,0 0.64044,-0.363802 0.2539,-0.367592 0.2539,-0.924664 0,-0.784448 -0.20463,-1.178567 -0.20464,-0.397908 -0.78066,-0.397908 z"
         style="font-style:normal;font-variant:normal;font-weight:normal;font-stretch:normal;font-size:7.76111px;font-family:'Linux Biolinum';-inkscape-font-specification:'Linux Biolinum';text-align:center;text-anchor:middle;fill:#fff1e5;fill-opacity:1;stroke:none"
         id="path13697" />
      <path
         d="m 220.02617,91.788739 0.0227,0.01516 q 0.27285,-0.466122 0.47749,-0.648023 0.20464,-0.181901 0.50781,-0.181901 0.0947,0 0.28043,0.05306 l 0.0303,0.03032 -0.15538,0.57602 -0.0606,0.01516 q -0.11748,-0.109899 -0.40549,-0.109899 -0.25769,0 -0.43201,0.272852 -0.26527,0.401698 -0.26527,0.769289 v 0.401699 q 0,0.867819 0.0682,1.398364 l -0.0152,0.02274 q -0.14022,-0.02274 -0.3638,-0.02274 -0.22359,0 -0.3638,0.02274 l -0.0152,-0.02274 q 0.0682,-0.48128 0.0682,-1.398364 v -0.424436 q 0,-1.072458 -0.0682,-1.508263 l 0.0152,-0.02274 q 0.34106,0.03032 0.62907,-0.02274 0.0455,0 0.0455,0.07958 z"
         style="font-style:normal;font-variant:normal;font-weight:normal;font-stretch:normal;font-size:7.76111px;font-family:'Linux Biolinum';-inkscape-font-specification:'Linux Biolinum';text-align:center;text-anchor:middle;fill:#fff1e5;fill-opacity:1;stroke:none"
         id="path13699" />
      <path
         d="m 166.67612,101.35749 0.11747,-0.008 q 0.4017,0.55707 0.91709,0.56086 0.31833,0 0.51538,-0.17053 0.19706,-0.17432 0.19706,-0.4737 0,-0.26527 -0.18948,-0.39412 -0.18948,-0.12885 -0.59496,-0.23496 -0.43581,-0.11747 -0.68213,-0.3259 -0.24633,-0.21222 -0.24633,-0.629076 0,-0.450963 0.34865,-0.697288 0.34864,-0.250113 0.82234,-0.250113 0.59876,0 1.04593,0.231165 l 0.0152,0.02653 -0.15537,0.57223 -0.10611,0.0076 q -0.1478,-0.170532 -0.2198,-0.242535 -0.0682,-0.07579 -0.24632,-0.178111 -0.17812,-0.106109 -0.36381,-0.106109 -0.25769,0 -0.42443,0.128847 -0.16674,0.125057 -0.16674,0.360012 0,0.435805 0.72002,0.606341 0.48128,0.11747 0.76929,0.34864 0.28801,0.23117 0.28801,0.66697 0,0.17811 -0.0606,0.34864 -0.0568,0.17054 -0.19327,0.34107 -0.13264,0.17053 -0.40928,0.27285 -0.27664,0.0985 -0.6556,0.0985 -0.57602,0 -1.17099,-0.20843 z"
         style="font-style:normal;font-variant:normal;font-weight:normal;font-stretch:normal;font-size:7.76111px;font-family:'Linux Biolinum';-inkscape-font-specification:'Linux Biolinum';text-align:center;text-anchor:middle;fill:#fff1e5;fill-opacity:1;stroke:none"
         id="path13701" />
      <path
         d="m 169.65854,100.5503 q 0,-0.822341 0.45475,-1.318779 0.45854,-0.496438 1.22025,-0.496438 0.77687,0 1.19373,0.469911 0.42064,0.46991 0.42064,1.277096 0,0.77687 -0.44338,1.25815 -0.4396,0.47749 -1.20131,0.47749 -0.75413,0 -1.2013,-0.4737 -0.44338,-0.4737 -0.44338,-1.19373 z m 1.62195,-1.50447 q -0.34107,0 -0.56465,0.208428 -0.2198,0.208429 -0.29938,0.500228 -0.0758,0.291804 -0.0758,0.663184 0,0.34864 0.0758,0.65939 0.0796,0.31075 0.3259,0.57223 0.25012,0.26148 0.62908,0.26148 0.38654,0 0.64044,-0.3638 0.2539,-0.36759 0.2539,-0.92466 0,-0.784453 -0.20464,-1.178571 -0.20463,-0.397909 -0.78065,-0.397909 z"
         style="font-style:normal;font-variant:normal;font-weight:normal;font-stretch:normal;font-size:7.76111px;font-family:'Linux Biolinum';-inkscape-font-specification:'Linux Biolinum';text-align:center;text-anchor:middle;fill:#fff1e5;fill-opacity:1;stroke:none"
         id="path13703" />
      <path
         d="m 174.50165,99.409632 0.0227,0.02274 q 0.65939,-0.697287 1.30362,-0.697287 0.32591,0 0.5457,0.166742 0.22359,0.166743 0.27665,0.447174 0.58359,-0.613916 1.3112,-0.613916 0.57602,0 0.76929,0.314537 0.19327,0.314537 0.19327,0.920874 v 0.773076 q 0,0.90193 0.072,1.39837 l -0.0189,0.0227 q -0.14021,-0.0227 -0.3638,-0.0227 -0.22359,0 -0.3638,0.0227 l -0.0152,-0.0227 q 0.0682,-0.4737 0.0682,-1.39837 v -0.852658 q 0,-0.378961 -0.14779,-0.534334 -0.1478,-0.155374 -0.4737,-0.155374 -0.56844,0 -0.9853,0.466121 0.008,0.09474 0.008,0.295589 v 0.780656 q 0,0.90193 0.072,1.39837 l -0.0152,0.0227 q -0.14021,-0.0227 -0.36759,-0.0227 -0.22358,0 -0.3638,0.0227 l -0.0152,-0.0227 q 0.0682,-0.4737 0.072,-1.39837 v -0.852658 q 0,-0.689708 -0.51538,-0.689708 -0.20843,0 -0.50402,0.166743 -0.29559,0.166742 -0.56465,0.439594 v 0.936029 q 0,0.90193 0.0682,1.39837 l -0.0152,0.0227 q -0.14021,-0.0227 -0.36759,-0.0227 -0.22358,0 -0.36001,0.0227 l -0.0152,-0.0227 q 0.0682,-0.4737 0.0682,-1.39837 v -0.42443 q 0,-1.072461 -0.0682,-1.508265 l 0.0152,-0.02274 q 0.34106,0.03032 0.62528,-0.02274 0.0455,0 0.0493,0.07958 z"
         style="font-style:normal;font-variant:normal;font-weight:normal;font-stretch:normal;font-size:7.76111px;font-family:'Linux Biolinum';-inkscape-font-specification:'Linux Biolinum';text-align:center;text-anchor:middle;fill:#fff1e5;fill-opacity:1;stroke:none"
         id="path13705" />
      <path
         d="m 180.47407,100.02355 h 1.42868 q 0.1099,0 0.1099,-0.1099 0,-0.413067 -0.20085,-0.640444 -0.19706,-0.227376 -0.45476,-0.227376 -0.2539,0 -0.52675,0.223587 -0.26906,0.219797 -0.35622,0.754133 z m 2.07291,1.3112 0.15537,0.19327 q -0.22358,0.31075 -0.5836,0.50023 -0.35622,0.18948 -0.76928,0.18948 -0.80719,0 -1.23163,-0.5116 -0.34864,-0.42064 -0.34864,-1.18614 0,-0.814769 0.47749,-1.299838 0.47749,-0.485069 1.11035,-0.485069 0.69729,0 1.01941,0.443383 0.3259,0.439594 0.3259,1.023194 0,0.13264 -0.14021,0.13264 h -2.11081 q 0,0.6897 0.18569,0.98529 0.28043,0.44339 0.84508,0.44339 0.67076,0 1.06488,-0.42823 z"
         style="font-style:normal;font-variant:normal;font-weight:normal;font-stretch:normal;font-size:7.76111px;font-family:'Linux Biolinum';-inkscape-font-specification:'Linux Biolinum';text-align:center;text-anchor:middle;fill:#fff1e5;fill-opacity:1;stroke:none"
         id="path13707" />
      <path
         d="m 183.75586,98.810875 q 0,-0.458542 0.0303,-0.992877 l 0.0152,-0.02274 q 0.11748,-0.01516 0.19706,-0.04169 0.0834,-0.02653 0.18569,-0.07579 0.10611,-0.05306 0.15916,-0.07579 0.0682,0 0.072,0.07579 -0.0379,0.496438 -0.0417,1.133092 h 0.36759 q 0.1478,0 0.54191,-0.01516 l 0.0379,0.05684 q -0.0606,0.155374 -0.0909,0.318327 -0.15537,-0.01516 -0.56086,-0.01516 h -0.29559 v 0.977721 q 0,0.26527 -0.0114,0.60633 -0.0114,0.33728 -0.0114,0.42444 0,0.59876 0.25769,0.63665 0.29938,0.0493 0.61013,-0.0606 l 0.0947,0.19327 q -0.45096,0.28801 -0.89814,0.28422 -0.288,0 -0.48885,-0.19327 -0.19706,-0.19327 -0.19706,-0.54949 0,-0.0872 0.0114,-0.53813 0.0152,-0.45475 0.0152,-0.72002 v -1.061091 q -0.3638,0 -0.55328,0.01516 l -0.0379,-0.05684 q 0.10989,-0.170532 0.17053,-0.318327 0.1099,0.01516 0.42064,0.01516 z"
         style="font-style:normal;font-variant:normal;font-weight:normal;font-stretch:normal;font-size:7.76111px;font-family:'Linux Biolinum';-inkscape-font-specification:'Linux Biolinum';text-align:center;text-anchor:middle;fill:#fff1e5;fill-opacity:1;stroke:none"
         id="path13709" />
      <path
         d="m 186.97324,99.409632 0.0152,0.02274 q 0.59875,-0.697287 1.34531,-0.697287 0.51159,0 0.73518,0.303168 0.22738,0.303168 0.22738,0.924663 0,0.125056 -0.0114,0.394116 -0.008,0.26528 -0.008,0.38654 0,0.90193 0.072,1.39837 l -0.0152,0.0227 q -0.14021,-0.0227 -0.36759,-0.0227 -0.22359,0 -0.3638,0.0227 l -0.0152,-0.0227 q 0.0682,-0.4737 0.072,-1.39837 v -0.757918 q 0,-0.458542 -0.12505,-0.621495 -0.12506,-0.162953 -0.43581,-0.162953 -0.23116,0 -0.54191,0.155374 -0.31075,0.155373 -0.5836,0.481279 v 0.905713 q 0,0.86024 0.072,1.39837 l -0.019,0.0227 q -0.14021,-0.0227 -0.3638,-0.0227 -0.22359,0 -0.3638,0.0227 l -0.0152,-0.0227 q 0.0682,-0.50402 0.0682,-1.39837 v -2.334393 q 0,-1.117934 -0.0682,-1.504473 l 0.0152,-0.02653 q 0.34864,-0.02274 0.67455,-0.155373 0.0682,0 0.072,0.07958 -0.0682,0.894347 -0.072,1.451419 z"
         style="font-style:normal;font-variant:normal;font-weight:normal;font-stretch:normal;font-size:7.76111px;font-family:'Linux Biolinum';-inkscape-font-specification:'Linux Biolinum';text-align:center;text-anchor:middle;fill:#fff1e5;fill-opacity:1;stroke:none"
         id="path13711" />
      <path
         d="m 190.65294,97.783892 q -0.11747,-0.121267 -0.11747,-0.276641 0,-0.155374 0.11747,-0.272852 0.12127,-0.121267 0.27664,-0.121267 0.15538,0 0.27665,0.121267 0.12126,0.117478 0.12126,0.272852 0,0.155374 -0.12126,0.276641 -0.12127,0.121267 -0.27665,0.121267 -0.15537,0 -0.27664,-0.121267 z m -0.0417,2.535248 q 0,-1.030775 -0.0682,-1.508265 l 0.0152,-0.02274 q 0.33349,0.02274 0.67455,-0.0076 0.0455,0 0.0568,0.01137 0.0152,0.01137 0.0152,0.06821 -0.0682,0.651811 -0.072,1.33394 v 0.54949 q 0,0.84508 0.072,1.39837 l -0.0189,0.0227 q -0.14022,-0.0227 -0.3638,-0.0227 -0.22359,0 -0.36381,0.0227 l -0.0152,-0.0227 q 0.0682,-0.52676 0.0682,-1.39837 z"
         style="font-style:normal;font-variant:normal;font-weight:normal;font-stretch:normal;font-size:7.76111px;font-family:'Linux Biolinum';-inkscape-font-specification:'Linux Biolinum';text-align:center;text-anchor:middle;fill:#fff1e5;fill-opacity:1;stroke:none"
         id="path13713" />
      <path
         d="m 195.49985,100.74357 q 0,0.88298 0.072,1.39837 l -0.019,0.0227 q -0.14021,-0.0227 -0.3638,-0.0227 -0.22359,0 -0.3638,0.0227 l -0.0152,-0.0227 q 0.0682,-0.51918 0.0682,-1.39837 v -0.757918 q 0,-0.458542 -0.12505,-0.621495 -0.12127,-0.162953 -0.43202,-0.162953 -0.23874,0 -0.5457,0.155374 -0.30696,0.155373 -0.57981,0.481279 v 0.905713 q 0,0.90193 0.0682,1.39837 l -0.0152,0.0227 q -0.14021,-0.0227 -0.3638,-0.0227 -0.22359,0 -0.3638,0.0227 l -0.0152,-0.0227 q 0.0682,-0.4737 0.0682,-1.39837 v -0.42443 q 0,-1.072461 -0.0682,-1.508265 l 0.0152,-0.02274 q 0.34106,0.03032 0.62907,-0.02274 0.0455,0 0.0455,0.07958 v 0.564651 l 0.0152,0.02274 q 0.59875,-0.697287 1.34152,-0.697287 0.51159,0 0.73518,0.303168 0.22738,0.303168 0.22738,0.924663 0,0.125056 -0.008,0.390326 -0.008,0.26528 -0.008,0.39033 z"
         style="font-style:normal;font-variant:normal;font-weight:normal;font-stretch:normal;font-size:7.76111px;font-family:'Linux Biolinum';-inkscape-font-specification:'Linux Biolinum';text-align:center;text-anchor:middle;fill:#fff1e5;fill-opacity:1;stroke:none"
         id="path13715" />
      <path
         d="m 196.89442,102.94912 q 0,0.3638 0.28801,0.53055 0.2918,0.16674 0.72761,0.16674 0.53433,0 0.91708,-0.19327 0.38654,-0.19327 0.38654,-0.52675 0,-0.37897 -0.30317,-0.56087 -0.22359,-0.13263 -0.82234,-0.12884 -0.0379,0 -0.29938,0.0114 -0.25769,0.0114 -0.39033,0.0114 -0.20843,0.11748 -0.35622,0.31075 -0.1478,0.19327 -0.1478,0.37896 z m 2.24345,-3.020312 q 0,0.481282 -0.35623,0.818552 -0.35243,0.33728 -0.93224,0.33728 -0.37138,0 -0.57602,-0.10611 -0.20843,0.17811 -0.20843,0.43201 0,0.22359 0.11748,0.29559 0.12127,0.072 0.33349,0.072 0.008,0 0.22358,-0.0152 0.29559,-0.0379 0.6215,-0.0417 0.79203,0 1.09519,0.25769 0.32591,0.28043 0.32591,0.76929 0,0.5495 -0.52297,0.89056 -0.51917,0.34107 -1.40973,0.34107 -0.65939,0 -1.07625,-0.2198 -0.41306,-0.2198 -0.41306,-0.6556 0,-0.23875 0.17811,-0.5116 0.34106,-0.26527 0.65939,-0.39412 -0.29938,-0.053 -0.45475,-0.23495 -0.15159,-0.18191 -0.15159,-0.43581 0,-0.30317 0.49644,-0.64423 -0.54949,-0.31833 -0.54949,-0.97014 0,-0.541914 0.40549,-0.860241 0.40927,-0.318326 0.91329,-0.318326 0.26148,0 0.4737,0.06821 0.3297,-0.01895 0.71624,-0.07579 0.38654,-0.06063 0.5078,-0.072 l 0.0227,0.02653 q -0.0227,0.109899 -0.0227,0.200849 0,0.09095 0.0227,0.200849 l -0.0227,0.02274 q -0.72381,-0.07579 -0.80718,-0.07958 0.39033,0.257693 0.39033,0.901926 z m -0.60634,0.0076 q 0,-0.909505 -0.70487,-0.905715 -0.33348,0 -0.51159,0.227376 -0.17432,0.223587 -0.17432,0.617706 0,0.901926 0.73139,0.901926 0.33348,0 0.49644,-0.23117 0.16295,-0.23116 0.16295,-0.610123 z"
         style="font-style:normal;font-variant:normal;font-weight:normal;font-stretch:normal;font-size:7.76111px;font-family:'Linux Biolinum';-inkscape-font-specification:'Linux Biolinum';text-align:center;text-anchor:middle;fill:#fff1e5;fill-opacity:1;stroke:none"
         id="path13717" />
      <path
         d="m 203.85971,99.04583 q -0.40169,0 -0.68212,0.371381 -0.28044,0.371382 -0.28044,0.992879 0,0.65939 0.28423,1.04214 0.28422,0.37896 0.72381,0.37896 0.46612,0 0.82992,-0.32591 h 0.0341 l 0.14779,0.16296 q -0.4358,0.54949 -1.14446,0.54949 -0.71244,0 -1.13688,-0.47749 -0.42064,-0.48128 -0.42064,-1.28847 0,-0.754128 0.50401,-1.235408 0.50402,-0.481279 1.14825,-0.481279 0.61392,0 1.03078,0.216007 l 0.0189,0.02274 -0.1819,0.636653 -0.0985,0.0076 q -0.33348,-0.57223 -0.77687,-0.57223 z"
         style="font-style:normal;font-variant:normal;font-weight:normal;font-stretch:normal;font-size:7.76111px;font-family:'Linux Biolinum';-inkscape-font-specification:'Linux Biolinum';text-align:center;text-anchor:middle;fill:#fff1e5;fill-opacity:1;stroke:none"
         id="path13719" />
      <path
         d="m 205.5423,100.5503 q 0,-0.822341 0.45475,-1.318779 0.45855,-0.496438 1.22026,-0.496438 0.77686,0 1.19372,0.469911 0.42065,0.46991 0.42065,1.277096 0,0.77687 -0.44339,1.25815 -0.43959,0.47749 -1.2013,0.47749 -0.75413,0 -1.20131,-0.4737 -0.44338,-0.4737 -0.44338,-1.19373 z m 1.62195,-1.50447 q -0.34106,0 -0.56465,0.208428 -0.2198,0.208429 -0.29938,0.500228 -0.0758,0.291804 -0.0758,0.663184 0,0.34864 0.0758,0.65939 0.0796,0.31075 0.32591,0.57223 0.25011,0.26148 0.62907,0.26148 0.38654,0 0.64044,-0.3638 0.25391,-0.36759 0.25391,-0.92466 0,-0.784453 -0.20464,-1.178571 -0.20464,-0.397909 -0.78066,-0.397909 z"
         style="font-style:normal;font-variant:normal;font-weight:normal;font-stretch:normal;font-size:7.76111px;font-family:'Linux Biolinum';-inkscape-font-specification:'Linux Biolinum';text-align:center;text-anchor:middle;fill:#fff1e5;fill-opacity:1;stroke:none"
         id="path13721" />
      <path
         d="m 210.38541,99.409632 0.0227,0.02274 q 0.65939,-0.697287 1.30363,-0.697287 0.3259,0 0.5457,0.166742 0.22359,0.166743 0.27664,0.447174 0.5836,-0.613916 1.3112,-0.613916 0.57602,0 0.76929,0.314537 0.19327,0.314537 0.19327,0.920874 v 0.773076 q 0,0.90193 0.072,1.39837 l -0.0189,0.0227 q -0.14022,-0.0227 -0.36381,-0.0227 -0.22358,0 -0.3638,0.0227 l -0.0152,-0.0227 q 0.0682,-0.4737 0.0682,-1.39837 v -0.852658 q 0,-0.378961 -0.1478,-0.534334 -0.14779,-0.155374 -0.4737,-0.155374 -0.56844,0 -0.98529,0.466121 0.008,0.09474 0.008,0.295589 v 0.780656 q 0,0.90193 0.072,1.39837 l -0.0152,0.0227 q -0.14022,-0.0227 -0.36759,-0.0227 -0.22359,0 -0.36381,0.0227 l -0.0152,-0.0227 q 0.0682,-0.4737 0.072,-1.39837 v -0.852658 q 0,-0.689708 -0.51539,-0.689708 -0.20843,0 -0.50401,0.166743 -0.29559,0.166742 -0.56466,0.439594 v 0.936029 q 0,0.90193 0.0682,1.39837 l -0.0152,0.0227 q -0.14022,-0.0227 -0.36759,-0.0227 -0.22359,0 -0.36002,0.0227 l -0.0152,-0.0227 q 0.0682,-0.4737 0.0682,-1.39837 v -0.42443 q 0,-1.072461 -0.0682,-1.508265 l 0.0152,-0.02274 q 0.34107,0.03032 0.62529,-0.02274 0.0455,0 0.0493,0.07958 z"
         style="font-style:normal;font-variant:normal;font-weight:normal;font-stretch:normal;font-size:7.76111px;font-family:'Linux Biolinum';-inkscape-font-specification:'Linux Biolinum';text-align:center;text-anchor:middle;fill:#fff1e5;fill-opacity:1;stroke:none"
         id="path13723" />
      <path
         d="m 216.64584,99.860595 v 1.697745 q 0.29559,0.34864 0.72002,0.35243 0.29559,0 0.50402,-0.13264 0.21222,-0.13263 0.31454,-0.36001 0.10611,-0.23116 0.14779,-0.46612 0.0417,-0.23874 0.0417,-0.50023 0,-1.356675 -0.79582,-1.360465 -0.23116,0 -0.51917,0.234956 -0.28801,0.231166 -0.41307,0.534334 z m 0,-0.450963 0.0152,0.02274 q 0.45854,-0.697287 1.04593,-0.697287 0.62149,0 0.9853,0.47749 0.36759,0.47749 0.36759,1.136877 0,0.82993 -0.44339,1.3491 -0.44338,0.51918 -1.2013,0.51918 -0.45096,0 -0.76929,-0.17053 v 0.34485 q 0,1.00046 0.0682,1.54995 l -0.0152,0.0227 q -0.14021,-0.0227 -0.36759,-0.0227 -0.22358,0 -0.36001,0.0227 l -0.0152,-0.0227 q 0.0682,-0.51918 0.0682,-1.54995 v -2.07291 q 0,-1.072461 -0.0682,-1.508265 l 0.0152,-0.02274 q 0.34106,0.03032 0.62528,-0.02274 0.0455,0 0.0493,0.07958 z"
         style="font-style:normal;font-variant:normal;font-weight:normal;font-stretch:normal;font-size:7.76111px;font-family:'Linux Biolinum';-inkscape-font-specification:'Linux Biolinum';text-align:center;text-anchor:middle;fill:#fff1e5;fill-opacity:1;stroke:none"
         id="path13725" />
      <path
         d="m 220.14364,100.5882 v -2.186603 q 0,-1.110354 -0.0682,-1.496893 l 0.0152,-0.02653 q 0.34864,-0.02274 0.67455,-0.155373 0.0682,0 0.072,0.07958 -0.0682,0.939822 -0.072,1.458998 v 2.326818 q 0,1.03835 0.072,1.55374 l -0.019,0.0227 q -0.14021,-0.0227 -0.3638,-0.0227 -0.22358,0 -0.3638,0.0227 l -0.0152,-0.0227 q 0.0682,-0.49644 0.0682,-1.55374 z"
         style="font-style:normal;font-variant:normal;font-weight:normal;font-stretch:normal;font-size:7.76111px;font-family:'Linux Biolinum';-inkscape-font-specification:'Linux Biolinum';text-align:center;text-anchor:middle;fill:#fff1e5;fill-opacity:1;stroke:none"
         id="path13727" />
      <path
         d="m 222.37193,100.02355 h 1.42868 q 0.1099,0 0.1099,-0.1099 0,-0.413067 -0.20085,-0.640444 -0.19706,-0.227376 -0.45475,-0.227376 -0.2539,0 -0.52675,0.223587 -0.26907,0.219797 -0.35623,0.754133 z m 2.07292,1.3112 0.15537,0.19327 q -0.22359,0.31075 -0.5836,0.50023 -0.35622,0.18948 -0.76929,0.18948 -0.80718,0 -1.23162,-0.5116 -0.34864,-0.42064 -0.34864,-1.18614 0,-0.814769 0.47749,-1.299838 0.47749,-0.485069 1.11035,-0.485069 0.69729,0 1.0194,0.443383 0.32591,0.439594 0.32591,1.023194 0,0.13264 -0.14022,0.13264 h -2.1108 q 0,0.6897 0.18569,0.98529 0.28043,0.44339 0.84508,0.44339 0.67076,0 1.06488,-0.42823 z"
         style="font-style:normal;font-variant:normal;font-weight:normal;font-stretch:normal;font-size:7.76111px;font-family:'Linux Biolinum';-inkscape-font-specification:'Linux Biolinum';text-align:center;text-anchor:middle;fill:#fff1e5;fill-opacity:1;stroke:none"
         id="path13729" />
      <path
         d="m 225.65373,98.810875 q 0,-0.458542 0.0303,-0.992877 l 0.0151,-0.02274 q 0.11748,-0.01516 0.19706,-0.04169 0.0834,-0.02653 0.18569,-0.07579 0.10611,-0.05306 0.15917,-0.07579 0.0682,0 0.072,0.07579 -0.0379,0.496438 -0.0417,1.133092 h 0.3676 q 0.14779,0 0.54191,-0.01516 l 0.0379,0.05684 q -0.0606,0.155374 -0.0909,0.318327 -0.15538,-0.01516 -0.56087,-0.01516 h -0.29559 v 0.977721 q 0,0.26527 -0.0114,0.60633 -0.0114,0.33728 -0.0114,0.42444 0,0.59876 0.25769,0.63665 0.29938,0.0493 0.61013,-0.0606 l 0.0947,0.19327 q -0.45097,0.28801 -0.89814,0.28422 -0.28801,0 -0.48886,-0.19327 -0.19706,-0.19327 -0.19706,-0.54949 0,-0.0872 0.0114,-0.53813 0.0152,-0.45475 0.0152,-0.72002 v -1.061091 q -0.3638,0 -0.55328,0.01516 l -0.0379,-0.05684 q 0.1099,-0.170532 0.17053,-0.318327 0.1099,0.01516 0.42065,0.01516 z"
         style="font-style:normal;font-variant:normal;font-weight:normal;font-stretch:normal;font-size:7.76111px;font-family:'Linux Biolinum';-inkscape-font-specification:'Linux Biolinum';text-align:center;text-anchor:middle;fill:#fff1e5;fill-opacity:1;stroke:none"
         id="path13731" />
      <path
         d="m 228.52246,100.02355 h 1.42868 q 0.1099,0 0.1099,-0.1099 0,-0.413067 -0.20085,-0.640444 -0.19706,-0.227376 -0.45475,-0.227376 -0.25391,0 -0.52676,0.223587 -0.26906,0.219797 -0.35622,0.754133 z m 2.07291,1.3112 0.15538,0.19327 q -0.22359,0.31075 -0.5836,0.50023 -0.35622,0.18948 -0.76929,0.18948 -0.80719,0 -1.23162,-0.5116 -0.34865,-0.42064 -0.34865,-1.18614 0,-0.814769 0.47749,-1.299838 0.47749,-0.485069 1.11036,-0.485069 0.69729,0 1.0194,0.443383 0.32591,0.439594 0.32591,1.023194 0,0.13264 -0.14022,0.13264 h -2.11081 q 0,0.6897 0.18569,0.98529 0.28043,0.44339 0.84509,0.44339 0.67076,0 1.06487,-0.42823 z"
         style="font-style:normal;font-variant:normal;font-weight:normal;font-stretch:normal;font-size:7.76111px;font-family:'Linux Biolinum';-inkscape-font-specification:'Linux Biolinum';text-align:center;text-anchor:middle;fill:#fff1e5;fill-opacity:1;stroke:none"
         id="path13733" />
      <path
         d="m 231.76258,100.5882 v -2.186603 q 0,-1.110354 -0.0682,-1.496893 l 0.0152,-0.02653 q 0.34864,-0.02274 0.67455,-0.155373 0.0682,0 0.072,0.07958 -0.0682,0.939822 -0.072,1.458998 v 2.326818 q 0,1.03835 0.072,1.55374 l -0.019,0.0227 q -0.14021,-0.0227 -0.3638,-0.0227 -0.22358,0 -0.3638,0.0227 l -0.0152,-0.0227 q 0.0682,-0.49644 0.0682,-1.55374 z"
         style="font-style:normal;font-variant:normal;font-weight:normal;font-stretch:normal;font-size:7.76111px;font-family:'Linux Biolinum';-inkscape-font-specification:'Linux Biolinum';text-align:center;text-anchor:middle;fill:#fff1e5;fill-opacity:1;stroke:none"
         id="path13735" />
      <path
         d="m 233.23673,98.788137 q 0.1099,0.02274 0.40549,0.02274 0.28043,0 0.37896,-0.02274 0.25769,0.792027 1.03835,2.675463 h 0.0152 q 0.52297,-1.11415 1.0194,-2.675463 0.0758,0.02274 0.30317,0.02274 0.2577,0 0.33349,-0.02274 -0.33349,0.67455 -1.19752,2.618613 -0.86024,1.94407 -1.05351,2.57315 -0.13263,-0.0379 -0.37896,-0.0379 -0.14021,0 -0.27285,0.0379 0.55707,-0.93983 0.91708,-1.76217 -0.15916,-0.41686 -1.50826,-3.429593 z"
         style="font-style:normal;font-variant:normal;font-weight:normal;font-stretch:normal;font-size:7.76111px;font-family:'Linux Biolinum';-inkscape-font-specification:'Linux Biolinum';text-align:center;text-anchor:middle;fill:#fff1e5;fill-opacity:1;stroke:none"
         id="path13737" />
      <path
         d="m 189.93671,109.02765 v -1.76975 q -0.1478,-0.23116 -0.31075,-0.34106 -0.16295,-0.1099 -0.42443,-0.1099 -0.16296,0 -0.31833,0.0606 -0.15538,0.0568 -0.31833,0.19327 -0.16295,0.13264 -0.26148,0.42444 -0.0947,0.2918 -0.0947,0.70107 0,0.68971 0.21601,1.04215 0.216,0.34864 0.55707,0.34864 0.51917,0 0.95498,-0.54949 z m 0,0.42443 q -0.41307,0.52676 -1.00046,0.52676 -0.62149,0 -1.01561,-0.50023 -0.39033,-0.50023 -0.39033,-1.22783 0,-0.78445 0.49265,-1.26952 0.49644,-0.48507 1.26194,-0.48507 0.34864,0 0.65181,0.17053 v -0.50401 q 0,-1.11036 -0.0682,-1.4969 l 0.0151,-0.0265 q 0.34865,-0.0227 0.67455,-0.15537 0.0682,0 0.072,0.0796 -0.0682,0.86024 -0.072,1.459 v 2.39124 q 0,0.78445 0.13264,1.48932 l -0.0152,0.0227 q -0.15537,-0.0227 -0.34485,-0.0227 -0.0909,0 -0.26906,0.0227 -0.0682,0 -0.0682,-0.0227 l -0.0417,-0.45097 z"
         style="font-style:normal;font-variant:normal;font-weight:normal;font-stretch:normal;font-size:7.76111px;font-family:'Linux Biolinum';-inkscape-font-specification:'Linux Biolinum';text-align:center;text-anchor:middle;fill:#fff1e5;fill-opacity:1;stroke:none"
         id="path13739" />
      <path
         d="m 191.98688,105.545 q -0.11747,-0.12127 -0.11747,-0.27664 0,-0.15537 0.11747,-0.27285 0.12127,-0.12127 0.27665,-0.12127 0.15537,0 0.27664,0.12127 0.12126,0.11748 0.12126,0.27285 0,0.15537 -0.12126,0.27664 -0.12127,0.12127 -0.27664,0.12127 -0.15538,0 -0.27665,-0.12127 z m -0.0417,2.53525 q 0,-1.03078 -0.0682,-1.50827 l 0.0152,-0.0227 q 0.33349,0.0227 0.67455,-0.008 0.0455,0 0.0568,0.0114 0.0152,0.0114 0.0152,0.0682 -0.0682,0.65181 -0.072,1.33394 v 0.54949 q 0,0.84508 0.072,1.39837 l -0.0189,0.0227 q -0.14022,-0.0227 -0.3638,-0.0227 -0.22359,0 -0.36381,0.0227 l -0.0152,-0.0227 q 0.0682,-0.52676 0.0682,-1.39837 z"
         style="font-style:normal;font-variant:normal;font-weight:normal;font-stretch:normal;font-size:7.76111px;font-family:'Linux Biolinum';-inkscape-font-specification:'Linux Biolinum';text-align:center;text-anchor:middle;fill:#fff1e5;fill-opacity:1;stroke:none"
         id="path13741" />
      <path
         d="m 194.03327,106.91684 h -0.008 q -0.35622,0 -0.57602,0.0152 l -0.0379,-0.0568 q 0.10989,-0.17053 0.17053,-0.31833 0.11748,0.0152 0.45096,0.0152 v -0.23116 q 0,-0.42065 0.0872,-0.63666 0.0909,-0.216 0.33728,-0.54949 0.4358,-0.59118 1.19751,-0.59118 0.23875,0 0.34865,0.0682 l 0.008,0.0265 q -0.0947,0.16296 -0.216,0.63287 l -0.0872,0.0114 q -0.1478,-0.27286 -0.45097,-0.27286 -0.31832,0 -0.48128,0.23117 -0.16295,0.22738 -0.16295,0.56844 0,0.0606 0.0189,0.31075 0.0227,0.24632 0.0227,0.35622 v 0.0758 h 1.53479 v -0.38654 q 0,-0.42064 0.0872,-0.63665 0.0909,-0.21601 0.34106,-0.54949 0.43581,-0.59118 1.19373,-0.59118 0.23874,0 0.34864,0.0682 l 0.008,0.0265 q -0.0947,0.16295 -0.21601,0.63665 l -0.0872,0.008 q -0.14779,-0.27285 -0.44717,-0.27285 -0.31833,0 -0.48128,0.23117 -0.16296,0.22737 -0.16296,0.56844 0,0.0606 0.019,0.38654 0.0189,0.3259 0.0189,0.4358 v 0.0758 h 0.33349 q 0.216,0 0.54191,-0.0152 l 0.0417,0.0568 q -0.0606,0.15537 -0.0947,0.31833 -0.15538,-0.0152 -0.55708,-0.0152 h -0.26527 v 1.43247 q 0,1.03077 0.0758,1.55374 l -0.0152,0.0227 q -0.10989,-0.0227 -0.37138,-0.0227 l -0.37896,0.0227 -0.008,-0.0227 q 0.0758,-0.48886 0.0758,-1.55374 v -1.43247 h -1.53479 v 1.43247 q 0,1.03077 0.0758,1.55374 l -0.0152,0.0227 q -0.1099,-0.0227 -0.37138,-0.0227 l -0.38275,0.0227 -0.008,-0.0227 q 0.0758,-0.48886 0.0796,-1.55374 z"
         style="font-style:normal;font-variant:normal;font-weight:normal;font-stretch:normal;font-size:7.76111px;font-family:'Linux Biolinum';-inkscape-font-specification:'Linux Biolinum';text-align:center;text-anchor:middle;fill:#fff1e5;fill-opacity:1;stroke:none"
         id="path13743" />
      <path
         d="m 198.82712,107.78466 h 1.42868 q 0.1099,0 0.1099,-0.1099 0,-0.41307 -0.20085,-0.64045 -0.19706,-0.22737 -0.45475,-0.22737 -0.25391,0 -0.52676,0.22359 -0.26906,0.21979 -0.35622,0.75413 z m 2.07291,1.3112 0.15538,0.19327 q -0.22359,0.31075 -0.5836,0.50023 -0.35622,0.18948 -0.76929,0.18948 -0.80719,0 -1.23162,-0.5116 -0.34865,-0.42065 -0.34865,-1.18615 0,-0.81476 0.47749,-1.29983 0.47749,-0.48507 1.11036,-0.48507 0.69729,0 1.0194,0.44338 0.32591,0.4396 0.32591,1.0232 0,0.13263 -0.14022,0.13263 h -2.11081 q 0,0.68971 0.18569,0.9853 0.28043,0.44338 0.84509,0.44338 0.67076,0 1.06487,-0.42822 z"
         style="font-style:normal;font-variant:normal;font-weight:normal;font-stretch:normal;font-size:7.76111px;font-family:'Linux Biolinum';-inkscape-font-specification:'Linux Biolinum';text-align:center;text-anchor:middle;fill:#fff1e5;fill-opacity:1;stroke:none"
         id="path13745" />
      <path
         d="m 202.66599,107.31096 0.0227,0.0152 q 0.27285,-0.46612 0.47749,-0.64802 0.20464,-0.1819 0.5078,-0.1819 0.0947,0 0.28044,0.0531 l 0.0303,0.0303 -0.15537,0.57602 -0.0606,0.0152 q -0.11747,-0.1099 -0.40548,-0.1099 -0.2577,0 -0.43202,0.27285 -0.26527,0.4017 -0.26527,0.76929 v 0.4017 q 0,0.86782 0.0682,1.39837 l -0.0152,0.0227 q -0.14021,-0.0227 -0.3638,-0.0227 -0.22358,0 -0.3638,0.0227 l -0.0152,-0.0227 q 0.0682,-0.48128 0.0682,-1.39837 v -0.42443 q 0,-1.07246 -0.0682,-1.50827 l 0.0152,-0.0227 q 0.34106,0.0303 0.62907,-0.0227 0.0455,0 0.0455,0.0796 z"
         style="font-style:normal;font-variant:normal;font-weight:normal;font-stretch:normal;font-size:7.76111px;font-family:'Linux Biolinum';-inkscape-font-specification:'Linux Biolinum';text-align:center;text-anchor:middle;fill:#fff1e5;fill-opacity:1;stroke:none"
         id="path13747" />
      <path
         d="m 205.03449,107.78466 h 1.42868 q 0.1099,0 0.1099,-0.1099 0,-0.41307 -0.20085,-0.64045 -0.19706,-0.22737 -0.45475,-0.22737 -0.2539,0 -0.52676,0.22359 -0.26906,0.21979 -0.35622,0.75413 z m 2.07291,1.3112 0.15538,0.19327 q -0.22359,0.31075 -0.5836,0.50023 -0.35622,0.18948 -0.76929,0.18948 -0.80719,0 -1.23162,-0.5116 -0.34865,-0.42065 -0.34865,-1.18615 0,-0.81476 0.47749,-1.29983 0.4775,-0.48507 1.11036,-0.48507 0.69729,0 1.0194,0.44338 0.32591,0.4396 0.32591,1.0232 0,0.13263 -0.14022,0.13263 h -2.11081 q 0,0.68971 0.18569,0.9853 0.28043,0.44338 0.84509,0.44338 0.67076,0 1.06487,-0.42822 z"
         style="font-style:normal;font-variant:normal;font-weight:normal;font-stretch:normal;font-size:7.76111px;font-family:'Linux Biolinum';-inkscape-font-specification:'Linux Biolinum';text-align:center;text-anchor:middle;fill:#fff1e5;fill-opacity:1;stroke:none"
         id="path13749" />
      <path
         d="m 211.14712,108.50468 q 0,0.88298 0.072,1.39837 l -0.019,0.0227 q -0.14022,-0.0227 -0.3638,-0.0227 -0.22359,0 -0.36381,0.0227 l -0.0151,-0.0227 q 0.0682,-0.51918 0.0682,-1.39837 v -0.75792 q 0,-0.45854 -0.12506,-0.62149 -0.12127,-0.16296 -0.43201,-0.16296 -0.23875,0 -0.54571,0.15538 -0.30695,0.15537 -0.57981,0.48128 v 0.90571 q 0,0.90193 0.0682,1.39837 l -0.0152,0.0227 q -0.14022,-0.0227 -0.3638,-0.0227 -0.22359,0 -0.36381,0.0227 l -0.0152,-0.0227 q 0.0682,-0.47371 0.0682,-1.39837 v -0.42443 q 0,-1.07246 -0.0682,-1.50827 l 0.0152,-0.0227 q 0.34107,0.0303 0.62908,-0.0227 0.0455,0 0.0455,0.0796 v 0.56465 l 0.0152,0.0227 q 0.59876,-0.69729 1.34152,-0.69729 0.5116,0 0.73519,0.30317 0.22737,0.30317 0.22737,0.92466 0,0.12506 -0.008,0.39033 -0.008,0.26527 -0.008,0.39033 z"
         style="font-style:normal;font-variant:normal;font-weight:normal;font-stretch:normal;font-size:7.76111px;font-family:'Linux Biolinum';-inkscape-font-specification:'Linux Biolinum';text-align:center;text-anchor:middle;fill:#fff1e5;fill-opacity:1;stroke:none"
         id="path13751" />
      <path
         d="m 212.49622,106.57198 q 0,-0.45854 0.0303,-0.99287 l 0.0152,-0.0227 q 0.11748,-0.0152 0.19706,-0.0417 0.0834,-0.0265 0.18569,-0.0758 0.10611,-0.053 0.15916,-0.0758 0.0682,0 0.072,0.0758 -0.0379,0.49644 -0.0417,1.13309 h 0.36759 q 0.14779,0 0.54191,-0.0152 l 0.0379,0.0568 q -0.0606,0.15537 -0.0909,0.31833 -0.15537,-0.0152 -0.56086,-0.0152 h -0.29559 v 0.97772 q 0,0.26527 -0.0114,0.60633 -0.0114,0.33728 -0.0114,0.42444 0,0.59875 0.25769,0.63665 0.29938,0.0493 0.61013,-0.0606 l 0.0947,0.19327 q -0.45096,0.28801 -0.89814,0.28422 -0.28801,0 -0.48885,-0.19327 -0.19706,-0.19327 -0.19706,-0.5495 0,-0.0872 0.0114,-0.53812 0.0152,-0.45475 0.0152,-0.72002 v -1.06109 q -0.3638,0 -0.55328,0.0152 l -0.0379,-0.0568 q 0.1099,-0.17053 0.17054,-0.31833 0.1099,0.0152 0.42064,0.0152 z"
         style="font-style:normal;font-variant:normal;font-weight:normal;font-stretch:normal;font-size:7.76111px;font-family:'Linux Biolinum';-inkscape-font-specification:'Linux Biolinum';text-align:center;text-anchor:middle;fill:#fff1e5;fill-opacity:1;stroke:none"
         id="path13753" />
      <path
         d="m 214.81546,109.56198 v -0.0303 q 0.10232,-0.28801 0.41686,-0.42064 h 0.0303 q 0.31832,0.11748 0.42064,0.42064 v 0.0303 q -0.1099,0.34107 -0.42064,0.41686 h -0.0303 q -0.18569,-0.0379 -0.27664,-0.12885 -0.0872,-0.0947 -0.14022,-0.28801 z"
         style="font-style:normal;font-variant:normal;font-weight:normal;font-stretch:normal;font-size:7.76111px;font-family:'Linux Biolinum';-inkscape-font-specification:'Linux Biolinum';text-align:center;text-anchor:middle;fill:#fff1e5;fill-opacity:1;stroke:none"
         id="path13755" />
    </g>
    <g
       aria-label="Python."
       transform="translate(-86.519379,50.924957)"
       id="text1161-9"
       style="font-style:normal;font-variant:normal;font-weight:normal;font-stretch:normal;font-size:7.76111px;line-height:1;font-family:'Linux Biolinum';-inkscape-font-specification:'Linux Biolinum';text-align:center;white-space:pre;shape-inside:url(#rect1163-2);fill:#fff1e5;fill-opacity:1;stroke:none;stroke-width:1.5;stroke-linecap:round;stroke-linejoin:round;stroke-dashoffset:10;stroke-opacity:1">
      <path
         d="m 182.61751,89.996256 v 1.830379 q 0.1478,0.07579 0.61392,0.07958 0.59875,0 0.89055,-0.269062 0.29559,-0.269062 0.29559,-0.913295 0,-0.333485 -0.0947,-0.553282 -0.091,-0.219797 -0.26148,-0.329696 -0.17053,-0.109898 -0.34485,-0.147794 -0.17433,-0.0379 -0.4017,-0.0379 -0.4017,0 -0.54949,0.08337 -0.1478,0.07958 -0.1478,0.257693 z m -0.66697,0.932243 q 0,-1.000456 -0.0758,-1.553738 l 0.0152,-0.02274 q 0.14021,0.02274 0.39412,0.02274 0.11747,0 0.54949,-0.02653 0.4358,-0.02653 0.53812,-0.02653 0.5116,0 0.88298,0.128846 0.37517,0.125057 0.56086,0.341065 0.18569,0.212217 0.26906,0.435804 0.0872,0.219797 0.0872,0.458542 0,0.265273 -0.1061,0.526755 -0.10232,0.257693 -0.31454,0.496438 -0.20843,0.234956 -0.59497,0.38275 -0.38275,0.147795 -0.88677,0.147795 -0.41306,0 -0.65181,-0.07958 v 0.666971 q 0,1.000455 0.0796,1.553738 l -0.0152,0.02274 q -0.14021,-0.02274 -0.3979,-0.02274 -0.2577,0 -0.39412,0.02274 l -0.0152,-0.02274 q 0.0758,-0.526755 0.0758,-1.553738 z"
         style="font-style:normal;font-variant:normal;font-weight:normal;font-stretch:normal;font-size:7.76111px;font-family:'Linux Biolinum';-inkscape-font-specification:'Linux Biolinum';text-align:center;text-anchor:middle;fill:#fff1e5;fill-opacity:1;stroke:none"
         id="path13758" />
      <path
         d="m 185.69467,91.027029 q 0.1099,0.02274 0.40549,0.02274 0.28043,0 0.37896,-0.02274 0.25769,0.792027 1.03835,2.67546 h 0.0152 q 0.52296,-1.114143 1.0194,-2.67546 0.0758,0.02274 0.30317,0.02274 0.25769,0 0.33348,-0.02274 -0.33348,0.674549 -1.19751,2.618616 -0.86024,1.944067 -1.05351,2.573142 -0.13264,-0.0379 -0.37896,-0.0379 -0.14022,0 -0.27285,0.0379 0.55707,-0.939822 0.91708,-1.762166 -0.15916,-0.416857 -1.50826,-3.429592 z"
         style="font-style:normal;font-variant:normal;font-weight:normal;font-stretch:normal;font-size:7.76111px;font-family:'Linux Biolinum';-inkscape-font-specification:'Linux Biolinum';text-align:center;text-anchor:middle;fill:#fff1e5;fill-opacity:1;stroke:none"
         id="path13760" />
      <path
         d="m 190.14366,91.049766 q 0,-0.458542 0.0303,-0.992876 l 0.0152,-0.02274 q 0.11748,-0.01516 0.19706,-0.04169 0.0834,-0.02653 0.18569,-0.07579 0.10611,-0.05306 0.15916,-0.07579 0.0682,0 0.072,0.07579 -0.0379,0.496438 -0.0417,1.133091 h 0.36759 q 0.1478,0 0.54192,-0.01516 l 0.0379,0.05684 q -0.0606,0.155374 -0.0909,0.318327 -0.15537,-0.01516 -0.56086,-0.01516 h -0.29559 v 0.977718 q 0,0.265273 -0.0114,0.606337 -0.0114,0.337275 -0.0114,0.424436 0,0.598757 0.2577,0.636653 0.29937,0.04926 0.61012,-0.06063 l 0.0947,0.19327 q -0.45096,0.28801 -0.89813,0.284221 -0.28801,0 -0.48886,-0.19327 -0.19706,-0.19327 -0.19706,-0.549493 0,-0.08716 0.0114,-0.538124 0.0152,-0.454752 0.0152,-0.720024 v -1.06109 q -0.3638,0 -0.55328,0.01516 l -0.0379,-0.05684 q 0.1099,-0.170533 0.17053,-0.318327 0.1099,0.01516 0.42064,0.01516 z"
         style="font-style:normal;font-variant:normal;font-weight:normal;font-stretch:normal;font-size:7.76111px;font-family:'Linux Biolinum';-inkscape-font-specification:'Linux Biolinum';text-align:center;text-anchor:middle;fill:#fff1e5;fill-opacity:1;stroke:none"
         id="path13762" />
      <path
         d="m 193.36104,91.648524 0.0152,0.02274 q 0.59876,-0.697287 1.34531,-0.697287 0.51159,0 0.73518,0.303169 0.22738,0.303168 0.22738,0.924663 0,0.125057 -0.0114,0.394119 -0.008,0.265272 -0.008,0.38654 0,0.901925 0.072,1.398364 l -0.0152,0.02274 q -0.14021,-0.02274 -0.36759,-0.02274 -0.22358,0 -0.3638,0.02274 l -0.0152,-0.02274 q 0.0682,-0.473701 0.072,-1.398364 v -0.757921 q 0,-0.458542 -0.12505,-0.621495 -0.12506,-0.162953 -0.43581,-0.162953 -0.23116,0 -0.54191,0.155373 -0.31075,0.155374 -0.5836,0.48128 v 0.905716 q 0,0.86024 0.072,1.398364 l -0.019,0.02274 q -0.14021,-0.02274 -0.3638,-0.02274 -0.22358,0 -0.3638,0.02274 l -0.0152,-0.02274 q 0.0682,-0.504018 0.0682,-1.398364 v -2.334397 q 0,-1.117933 -0.0682,-1.504473 l 0.0152,-0.02653 q 0.34864,-0.02274 0.67455,-0.155374 0.0682,0 0.072,0.07958 -0.0682,0.894347 -0.072,1.451418 z"
         style="font-style:normal;font-variant:normal;font-weight:normal;font-stretch:normal;font-size:7.76111px;font-family:'Linux Biolinum';-inkscape-font-specification:'Linux Biolinum';text-align:center;text-anchor:middle;fill:#fff1e5;fill-opacity:1;stroke:none"
         id="path13764" />
      <path
         d="m 196.59736,92.789195 q 0,-0.822344 0.45475,-1.318783 0.45855,-0.496438 1.22026,-0.496438 0.77687,0 1.19372,0.469911 0.42065,0.469911 0.42065,1.277097 0,0.776869 -0.44339,1.258148 -0.43959,0.477491 -1.2013,0.477491 -0.75413,0 -1.2013,-0.473701 -0.44339,-0.4737 -0.44339,-1.193725 z m 1.62195,-1.504473 q -0.34106,0 -0.56465,0.208428 -0.2198,0.208428 -0.29938,0.500228 -0.0758,0.291799 -0.0758,0.663181 0,0.348643 0.0758,0.659391 0.0796,0.310747 0.32591,0.57223 0.25011,0.261483 0.62907,0.261483 0.38654,0 0.64045,-0.363802 0.2539,-0.367592 0.2539,-0.924664 0,-0.784448 -0.20464,-1.178567 -0.20464,-0.397908 -0.78066,-0.397908 z"
         style="font-style:normal;font-variant:normal;font-weight:normal;font-stretch:normal;font-size:7.76111px;font-family:'Linux Biolinum';-inkscape-font-specification:'Linux Biolinum';text-align:center;text-anchor:middle;fill:#fff1e5;fill-opacity:1;stroke:none"
         id="path13766" />
      <path
         d="m 203.75213,92.982465 q 0,0.882977 0.072,1.398364 l -0.0189,0.02274 q -0.14022,-0.02274 -0.3638,-0.02274 -0.22359,0 -0.3638,0.02274 l -0.0152,-0.02274 q 0.0682,-0.519176 0.0682,-1.398364 v -0.757921 q 0,-0.458542 -0.12506,-0.621495 -0.12126,-0.162953 -0.43201,-0.162953 -0.23875,0 -0.54571,0.155373 -0.30695,0.155374 -0.5798,0.48128 v 0.905716 q 0,0.901925 0.0682,1.398364 l -0.0152,0.02274 q -0.14022,-0.02274 -0.3638,-0.02274 -0.22359,0 -0.3638,0.02274 l -0.0152,-0.02274 q 0.0682,-0.473701 0.0682,-1.398364 v -0.424436 q 0,-1.072458 -0.0682,-1.508263 l 0.0152,-0.02274 q 0.34106,0.03032 0.62907,-0.02274 0.0455,0 0.0455,0.07958 v 0.564651 l 0.0152,0.02274 q 0.59876,-0.697287 1.34152,-0.697287 0.5116,0 0.73519,0.303169 0.22737,0.303168 0.22737,0.924663 0,0.125057 -0.008,0.390329 -0.008,0.265273 -0.008,0.39033 z"
         style="font-style:normal;font-variant:normal;font-weight:normal;font-stretch:normal;font-size:7.76111px;font-family:'Linux Biolinum';-inkscape-font-specification:'Linux Biolinum';text-align:center;text-anchor:middle;fill:#fff1e5;fill-opacity:1;stroke:none"
         id="path13768" />
      <path
         d="m 204.78291,94.039764 v -0.03032 q 0.10232,-0.28801 0.41685,-0.420646 h 0.0303 q 0.31833,0.117478 0.42065,0.420646 v 0.03032 q -0.1099,0.341065 -0.42065,0.416857 h -0.0303 q -0.18569,-0.0379 -0.27664,-0.128847 -0.0872,-0.09474 -0.14021,-0.28801 z"
         style="font-style:normal;font-variant:normal;font-weight:normal;font-stretch:normal;font-size:7.76111px;font-family:'Linux Biolinum';-inkscape-font-specification:'Linux Biolinum';text-align:center;text-anchor:middle;fill:#fff1e5;fill-opacity:1;stroke:none"
         id="path13770" />
    </g>
  </g>
  <style
     type="text/css"
     id="style2899">
	.st0{fill:#252F3E;}
	.st1{fill-rule:evenodd;clip-rule:evenodd;fill:#FF9900;}
</style>
</svg>
